<?xml version="1.0" encoding="utf-8"?>
<!-- Generator: Adobe Illustrator 24.3.0, SVG Export Plug-In . SVG Version: 6.00 Build 0)  -->
<svg version="1.1" id="Layer_1" xmlns="http://www.w3.org/2000/svg" xmlns:xlink="http://www.w3.org/1999/xlink" x="0px" y="0px"
	 viewBox="0 0 423.73 424.12" style="enable-background:new 0 0 423.73 424.12;" xml:space="preserve">
<style type="text/css">
	.st0{fill:#FFDEF6;}
	.st1{fill:#FFCAF3;}
	.st2{fill:#D75880;}
	.st3{fill:#FFFFFF;}
	.st4{fill:#4A7C3B;}
	.st5{fill:#EEEEB8;}
	.st6{fill:#939C5B;}
	.st7{fill:#777C45;}
	.st8{fill:#E98329;}
	.st9{fill:#CE712C;}
	.st10{fill:#838999;}
	.st11{fill:#D8533D;}
	.st12{fill:#F47F73;}
	.st13{fill:#C63D2A;}
	.st14{fill:#F2F6F7;}
	.st15{fill:#E06E97;}
	.st16{fill:#FF8F80;}
	.st17{fill:#494949;}
	.st18{fill:#302117;}
	.st19{fill:#231F20;}
	.st20{fill:#E6E7E8;}
</style>
<rect y="0.65" class="st0" width="423.73" height="423.73"/>
<path class="st1" d="M383.54,367.99c0,16.14-77.56,29.23-173.24,29.23c-95.68,0-173.24-13.08-173.24-29.23
	c0-16.15,77.56-29.23,173.24-29.23C305.98,338.76,383.54,351.85,383.54,367.99z"/>
<path class="st2" d="M187.69,206.23c0,0-7.61-21.62-44.44-23.22c9.61,10.8,15.21,25.22,34.03,23.22
	c-12.81,0.8-18.41,14.81-33.22,19.22c10.4,5.6,32.83,4,43.24-14.41C187.29,211.04,189.69,209.43,187.69,206.23z"/>
<path class="st3" d="M257.02,291.17c0,0,30.83,6.41,26.42-44.43c0,0,2.41-5.21,4.4,8.4c2,13.61,3.61,52.05-30.03,49.24
	C255.01,299.98,257.02,291.17,257.02,291.17z"/>
<path class="st3" d="M217.58,208.82c-30.15-14.89-54.24,17.32-52.65,51.12c1.6,34.03,14.81,66.06,14.81,66.06h37.23h1.2h37.24
	c0,0,13.2-32.03,14.81-66.06C271.82,226.14,247.73,193.94,217.58,208.82z"/>
<path class="st4" d="M238.82,259.27c-3.79-8.86-10.67-13.73-16.68-14.01l0,0c0,0,0,0,0,0l0,0l0,0c-6.01,0.28-12.89,5.16-16.68,14.01
	c-5.38,12.56-3.82,24.89,5.22,39.15c7.67,11.38,9.83,16.58,10.03,18.96h1.43h0h1.47c0.2-2.38,2.32-7.58,9.99-18.96
	C242.63,284.17,244.2,271.83,238.82,259.27z"/>
<path class="st5" d="M221.38,298.46c0.17,0.12,0.45,0.01,0.61-0.23l0,0c0.17-0.24,0.16-0.54-0.01-0.65l-9.58-6.38
	c-0.17-0.11-0.45-0.01-0.61,0.23l0,0c-0.16,0.25-0.15,0.54,0.02,0.65L221.38,298.46z"/>
<path class="st5" d="M221.38,286.99c0.17,0.11,0.45,0.01,0.61-0.24l0,0c0.17-0.25,0.16-0.54-0.01-0.65l-9.58-6.37
	c-0.17-0.12-0.45-0.01-0.61,0.24l0,0c-0.16,0.24-0.15,0.54,0.02,0.65L221.38,286.99z"/>
<path class="st5" d="M221.38,275.51c0.17,0.11,0.45,0.01,0.61-0.24l0,0c0.17-0.24,0.16-0.54-0.01-0.65l-9.58-6.37
	c-0.17-0.12-0.45-0.02-0.61,0.23l0,0c-0.16,0.25-0.15,0.54,0.02,0.65L221.38,275.51z"/>
<path class="st5" d="M221.38,264.02c0.17,0.12,0.45,0.01,0.61-0.23l0,0c0.17-0.24,0.16-0.54-0.01-0.66l-9.58-6.37
	c-0.17-0.12-0.45-0.01-0.61,0.23l0,0c-0.16,0.24-0.15,0.54,0.02,0.65L221.38,264.02z"/>
<path class="st5" d="M223.4,298.46c-0.17,0.12-0.45,0.01-0.61-0.23l0,0c-0.17-0.24-0.16-0.54,0.02-0.65l9.57-6.38
	c0.17-0.11,0.45-0.01,0.61,0.23l0,0c0.17,0.25,0.15,0.54-0.02,0.65L223.4,298.46z"/>
<path class="st5" d="M223.4,286.99c-0.17,0.11-0.45,0.01-0.61-0.24l0,0c-0.17-0.25-0.16-0.54,0.02-0.65l9.57-6.37
	c0.17-0.12,0.45-0.01,0.61,0.24l0,0c0.17,0.24,0.15,0.54-0.02,0.65L223.4,286.99z"/>
<path class="st5" d="M223.4,275.51c-0.17,0.11-0.45,0.01-0.61-0.24l0,0c-0.17-0.24-0.16-0.54,0.02-0.65l9.57-6.37
	c0.17-0.12,0.45-0.02,0.61,0.23l0,0c0.17,0.25,0.15,0.54-0.02,0.65L223.4,275.51z"/>
<path class="st5" d="M223.4,264.02c-0.17,0.12-0.45,0.01-0.61-0.23l0,0c-0.17-0.24-0.16-0.54,0.02-0.66l9.57-6.37
	c0.17-0.12,0.45-0.01,0.61,0.23l0,0c0.17,0.24,0.15,0.54-0.02,0.65L223.4,264.02z"/>
<path class="st5" d="M223.76,324.24l-0.53-69.52c0-0.42-0.27-0.75-0.61-0.75h-0.61c-0.33,0-0.61,0.33-0.61,0.75l-0.83,69.52H223.76z
	"/>
<path class="st4" d="M281.06,284.07c0.8-9.6-3-17.12-8.18-20.19l0,0h0l0,0l0,0c-5.45-2.57-13.8-1.48-21.3,4.57
	c-10.64,8.58-15.02,20.22-13.71,37.04c1.45,13.65,0.93,19.26-0.01,21.45l1.26,0.67l0.01,0l1.3,0.69c1.29-2.02,5.6-5.62,17.7-12.09
	C272.78,307.86,279.94,297.69,281.06,284.07z"/>
<path class="st5" d="M247.31,310.54c0.1,0.18,0.39,0.22,0.65,0.08l0,0c0.26-0.14,0.39-0.4,0.28-0.58l-5.48-10.12
	c-0.1-0.18-0.39-0.22-0.65-0.08l0,0c-0.26,0.15-0.39,0.4-0.29,0.59L247.31,310.54z"/>
<path class="st5" d="M252.68,300.4c0.1,0.17,0.39,0.21,0.65,0.07l0,0c0.26-0.14,0.39-0.41,0.29-0.59l-5.48-10.11
	c-0.1-0.18-0.39-0.22-0.65-0.08l0,0c-0.26,0.14-0.39,0.41-0.28,0.58L252.68,300.4z"/>
<path class="st5" d="M258.05,290.25c0.1,0.18,0.39,0.21,0.65,0.08l0,0c0.26-0.14,0.38-0.4,0.28-0.59l-5.48-10.11
	c-0.09-0.18-0.38-0.22-0.65-0.08l0,0c-0.26,0.14-0.39,0.41-0.28,0.59L258.05,290.25z"/>
<path class="st5" d="M263.43,280.1c0.1,0.18,0.39,0.22,0.65,0.08l0,0c0.26-0.14,0.39-0.4,0.29-0.59l-5.48-10.11
	c-0.1-0.19-0.39-0.22-0.65-0.08l0,0c-0.26,0.14-0.39,0.4-0.28,0.58L263.43,280.1z"/>
<path class="st5" d="M249.09,311.49c-0.21,0.02-0.4-0.2-0.43-0.49l0,0c-0.03-0.29,0.11-0.55,0.32-0.56l11.45-1.15
	c0.21-0.02,0.4,0.2,0.43,0.49l0,0c0.03,0.3-0.11,0.54-0.33,0.57L249.09,311.49z"/>
<path class="st5" d="M254.46,301.35c-0.2,0.01-0.4-0.2-0.43-0.5l0,0c-0.03-0.3,0.12-0.55,0.32-0.57l11.45-1.15
	c0.21-0.02,0.4,0.2,0.43,0.5l0,0c0.03,0.29-0.12,0.55-0.32,0.56L254.46,301.35z"/>
<path class="st5" d="M259.84,291.2c-0.21,0.02-0.4-0.21-0.43-0.5l0,0c-0.03-0.29,0.11-0.55,0.32-0.57l11.45-1.15
	c0.21-0.02,0.4,0.2,0.43,0.5l0,0c0.03,0.29-0.11,0.55-0.33,0.56L259.84,291.2z"/>
<path class="st5" d="M265.21,281.05c-0.21,0.02-0.4-0.2-0.43-0.49l0,0c-0.03-0.29,0.12-0.54,0.33-0.57l11.44-1.14
	c0.21-0.02,0.4,0.2,0.43,0.5l0,0c0.03,0.29-0.11,0.54-0.33,0.56L265.21,281.05z"/>
<path class="st5" d="M237.35,334.44l32.07-61.68c0.2-0.37,0.11-0.79-0.18-0.95l-0.53-0.28c-0.3-0.16-0.69,0.01-0.89,0.38
	l-33.27,61.05L237.35,334.44z"/>
<path class="st6" d="M180.41,260.22c-0.39-5.41-1.06-16.96-0.06-19.59c-3.95-0.1-6.31,1.15-6.31,1.15l1,11.78l-7.86-15l-5.41,4.52
	l8.73,14.63l-11.23-6.98l-1.98,3.04l16.17,10.77C173.95,264.09,176.98,261.39,180.41,260.22z"/>
<path class="st7" d="M178.6,258.83c-2.52,0.59-5.31,2.96-6.93,4.52l1.79,1.2c0.49-0.46,3.52-3.16,6.95-4.33
	c-0.39-5.41-1.06-16.96-0.06-19.59c-0.48-0.01-0.93-0.01-1.35,0.02C177.38,247.89,178.6,258.83,178.6,258.83z"/>
<path class="st8" d="M171.13,266.47c-2.13,3.74-5.99,14,4.34,28.4c12.78,17.84,23.33,22.25,28.5,20.62
	c1.12-0.35,2.11-1.29,2.97-2.79c3.47-6.08,4.9-22.15-2.81-38.93c-3.31-6.22-9.68-13.28-17.61-14.42c-2.21-0.32-4.39-0.12-6.51,0.57
	c-3.88,1.34-6.7,3.86-8.04,5.25C171.82,265.37,171.5,265.81,171.13,266.47z"/>
<path class="st9" d="M184.39,272.92c0.19,0.42,0,0.91-0.42,1.1l-7.85,3.49c-0.42,0.19-0.92,0-1.11-0.42l0,0
	c-0.19-0.42,0-0.92,0.42-1.11l7.85-3.5C183.71,272.3,184.21,272.49,184.39,272.92L184.39,272.92z"/>
<path class="st9" d="M200.71,271.37c0.19,0.42,0,0.92-0.43,1.1l-7.84,3.5c-0.42,0.19-0.92,0-1.11-0.42l0,0
	c-0.19-0.42,0-0.92,0.42-1.1l7.84-3.5C200.03,270.75,200.52,270.94,200.71,271.37L200.71,271.37z"/>
<path class="st9" d="M190.23,282.3c0.19,0.42,0.11,0.87-0.17,1l-5.24,2.33c-0.28,0.13-0.66-0.11-0.85-0.54l0,0
	c-0.19-0.42-0.11-0.87,0.17-0.99l5.24-2.33C189.65,281.63,190.04,281.87,190.23,282.3L190.23,282.3z"/>
<path class="st9" d="M187.9,293.99c0.18,0.43,0.11,0.87-0.17,0.99l-5.25,2.33c-0.28,0.13-0.67-0.11-0.85-0.54l0,0
	c-0.19-0.43-0.11-0.87,0.17-0.99l5.24-2.34C187.33,293.33,187.71,293.57,187.9,293.99L187.9,293.99z"/>
<path class="st9" d="M200.58,300.5c0.19,0.42,0.11,0.87-0.17,1l-5.24,2.33c-0.29,0.13-0.67-0.11-0.85-0.53l0,0
	c-0.19-0.42-0.11-0.87,0.17-0.99l5.24-2.34C200.01,299.84,200.39,300.08,200.58,300.5L200.58,300.5z"/>
<path class="st9" d="M207.28,291.3c0.19,0.42,0.11,0.87-0.17,1l-5.24,2.33c-0.28,0.13-0.67-0.11-0.85-0.54l0,0
	c-0.19-0.42-0.11-0.86,0.17-0.99l5.24-2.34C206.7,290.64,207.09,290.88,207.28,291.3L207.28,291.3z"/>
<path class="st10" d="M263.63,326.03c0,5.14-23.74,9.3-53.03,9.3c-29.28,0-53.02-4.16-53.02-9.3c0-5.13,23.74-9.3,53.02-9.3
	C239.89,316.73,263.63,320.9,263.63,326.03z"/>
<path class="st10" d="M272.11,365.68c-14.14-1.49-32.96-2.62-58.73-0.66c-25.45,3.26-48.2-0.97-63.62,0.66
	c0,0-14.36,1.63-10.44,10.43c4.24,7.84,29.04,17.62,72.76,17.62c38.83,0.98,66.23-9.79,70.48-17.62
	C286.47,367.31,272.11,365.68,272.11,365.68z"/>
<path class="st11" d="M168.71,285.9c0,0-7.89,7.3-6.01,21.34c4.18,15.47,19.49,28.35,37.12,35.22c17.64,6.87,41.4,4.69,50.88-9.25
	c9.48-13.94,11.61-30.08,2.25-36.72C223.19,296.35,191.92,302.42,168.71,285.9z"/>
<path class="st12" d="M176.86,283.04c0,0-11.69-0.62-12.9,13.55c-1.21,14.17,21.32,37.13,50.91,39.85
	c29.59,2.72,41.1-15.99,43.27-26.86c2.18-10.87-7.35-24.12-24.2-23.34c-16.84,0.77-28.69,4.5-39.98,2.23
	C182.68,286.18,181,284.03,176.86,283.04z"/>
<path class="st11" d="M180.75,290.55c0,0-8.19-2.41-9.88,4.64c-1.69,7.04,8.67,20.49,15.08,21.16c6.41,0.67,15.15-4.69,20.65-13.01
	c5.51-8.32-2.96-7.73-8.86-8.7C191.84,293.64,184.69,292.37,180.75,290.55z"/>
<path class="st11" d="M238.45,293.01c0,0-8.7-2.09-17.12,3.77c-6.51,4.53-15.1,14.25-21.42,19.83c-7.8,6.9,9.14,16.67,29.98,12.03
	c20.84-4.63,21.94-20.15,21.27-24.69C250.5,299.42,244.36,294,238.45,293.01z"/>
<path class="st13" d="M192.53,299.1c0,0-5-1.82-6.7,1.58c-1.7,3.41,2.92,8.29,7.55,6.7C198.01,305.8,197.28,299.7,192.53,299.1z"/>
<path class="st13" d="M229.57,306.16c0,0-3.77-1.22-7.43,2.68c-3.65,3.9,1.59,12.06,8.78,8.77c4.87-2.8,4.75-6.34,3.65-8.4
	C233.47,307.13,231.15,306.28,229.57,306.16z"/>
<path class="st14" d="M276.23,371.18l-12.63-45.04c-0.36,5.09-23.94,9.18-53,9.18c-29.06,0-52.65-4.09-53-9.18l-12.63,45.04
	c-0.11,0.27-0.18,0.54-0.18,0.81c0,6.38,28.68,14.23,65.03,14.23c36.35,0,66.59-7.86,66.59-14.23
	C276.41,371.72,276.34,371.45,276.23,371.18z"/>
<path class="st15" d="M184.82,210.86c0,0,6,22.35,33.37,39.05c0,0,18.69-8.68,31.04-39.38c0,0-6.67-6.34-30.03-5.68
	C206.18,205.19,193.17,203.85,184.82,210.86z"/>
<path class="st3" d="M275.22,37.75c-5.57-4.4-23.99,14.82-29.13,30.83c0,0-16.09-6.33-28.91-5.61c-12.82-0.71-28.91,5.61-28.91,5.61
	c-5.14-16.01-23.56-35.23-29.12-30.83c-17.99,28.03-4.72,65.26-4.72,65.26c-0.43,26.03,5.57,59.65,21,89.28
	c14.29,27.45,38.12,28.78,41.54,28.82l0,0c0,0,0.04,0,0.1,0c0.05,0,0.08,0,0.11,0c0.03,0,0.06,0,0.1,0c0.06,0,0.11,0,0.11,0l0,0
	c3.42-0.05,27.26-1.37,41.55-28.82c15.42-29.63,21.42-63.25,20.99-89.28C279.93,103.01,293.2,65.77,275.22,37.75z"/>
<path class="st16" d="M162.53,89.39c0,0,4-8.4,15.61-15.21c0,0-4-18.02-15.21-23.23C162.93,50.96,154.52,66.17,162.53,89.39z"/>
<path class="st16" d="M271.83,89.39c0,0-4.01-8.4-15.62-15.21c0,0,4.01-18.02,15.22-23.23C271.42,50.96,279.83,66.17,271.83,89.39z"
	/>
<path class="st17" d="M198.16,154.25c8.01-25.63-0.8-46.84-17.21-50.44c-11.1-2.43-20.73,4.1-26.3,10.56
	c0.98,19.13,5.17,41.04,13.54,62.05C176.29,176.11,192.28,173.05,198.16,154.25z"/>
<path class="st18" d="M232.59,195.08c0,4.42-6.99,8.01-15.61,8.01c-8.62,0-15.61-3.59-15.61-8.01c0-4.41,6.99-8,15.61-8
	C225.6,187.09,232.59,190.67,232.59,195.08z"/>
<path class="st18" d="M174.94,99.41c0,0,0-9.61,7.21-12.82c4.8-2,10.41,4,10.41,12.41c0,0-2.8,4-4-2.01c-1.21-6-6.41-8.4-9.61-3.6
	C176.94,97,175.74,101.4,174.94,99.41z"/>
<path class="st18" d="M192.56,130.83c0,4.09-3.32,7.41-7.41,7.41c-4.09,0-7.41-3.32-7.41-7.41c0-4.09,3.32-7.4,7.41-7.4
	C189.24,123.43,192.56,126.75,192.56,130.83z"/>
<path class="st18" d="M254.22,99.41c0,0,0-9.61-7.21-12.82c-4.8-2-10.41,4-10.41,12.41c0,0,2.8,4,4-2.01c1.2-6,6.4-8.4,9.61-3.6
	C252.21,97,253.41,101.4,254.22,99.41z"/>
<path class="st18" d="M236.6,130.83c0,4.09,3.31,7.41,7.4,7.41c4.09,0,7.41-3.32,7.41-7.41c0-4.09-3.32-7.4-7.41-7.4
	C239.91,123.43,236.6,126.75,236.6,130.83z"/>
<path class="st19" d="M288.73,294.82c-0.17,0-0.34-0.06-0.49-0.17c-0.34-0.27-0.39-0.77-0.12-1.1c5.42-6.75,4.92-18.25,4.91-18.36
	c-0.02-0.43,0.31-0.8,0.75-0.82c0.41-0.04,0.8,0.31,0.82,0.74c0.02,0.5,0.54,12.21-5.25,19.42
	C289.19,294.72,288.96,294.82,288.73,294.82z"/>
<path class="st19" d="M295.1,294.11c-0.16,0-0.31-0.04-0.45-0.14c-0.36-0.24-0.45-0.73-0.2-1.09c3.92-5.66,3.07-12.09,3.06-12.15
	c-0.06-0.43,0.24-0.83,0.67-0.89c0.43-0.06,0.83,0.24,0.89,0.67c0.04,0.29,0.95,7.11-3.32,13.27
	C295.59,294,295.35,294.11,295.1,294.11z"/>
<path class="st3" d="M328.02,86.2c-16.9,0-30.6,13.7-30.6,30.6c0,6.89,2.28,13.24,6.12,18.35l-4.94,5.97l9.63-1
	c5.34,4.53,12.24,7.27,19.79,7.27c16.9,0,30.6-13.7,30.6-30.6C358.62,99.9,344.92,86.2,328.02,86.2z"/>
<path class="st2" d="M328.02,111.89c-5.11-10.05-19.61-8.65-18.91,4.41c0.65,12.06,15.44,17.54,18.85,18.64v0.04
	c0.02,0,0.04-0.02,0.06-0.02c0.02,0,0.04,0.02,0.06,0.02v-0.04c3.41-1.1,18.21-6.58,18.86-18.64
	C347.63,103.24,333.13,101.84,328.02,111.89z"/>
<path class="st20" d="M215.66,227.86c0,0-10.64,8.52,0,24.26c5.8,8,4.62,17.03-2.36,23.8c0,0,17.56-5.16,8.17-24.03
	C212.07,233.01,213.73,231.07,215.66,227.86z"/>
<path class="st20" d="M235.68,233.13c0,0-9.78,7.84,0,22.3c5.34,7.36,4.25,15.66-2.17,21.88c0,0,16.15-4.74,7.51-22.09
	C232.38,237.87,233.9,236.08,235.68,233.13z"/>
<path class="st20" d="M195.95,233.13c0,0-9.78,7.84,0,22.3c5.34,7.36,4.25,15.66-2.17,21.88c0,0,16.14-4.74,7.51-22.09
	C192.65,237.87,194.18,236.08,195.95,233.13z"/>
</svg>
