<?xml version="1.0" encoding="utf-8"?>
<!-- Generator: Adobe Illustrator 24.3.0, SVG Export Plug-In . SVG Version: 6.00 Build 0)  -->
<svg version="1.1" id="Layer_1" xmlns="http://www.w3.org/2000/svg" xmlns:xlink="http://www.w3.org/1999/xlink" x="0px" y="0px"
	 viewBox="0 0 423.73 423.73" style="enable-background:new 0 0 423.73 423.73;" xml:space="preserve">
<style type="text/css">
	.st0{fill:#FFDEF6;}
	.st1{fill:#838999;}
	.st2{fill:#E06E97;}
	.st3{fill:#FFFFFF;}
	.st4{fill:#FED7A2;}
	.st5{fill:#C45120;}
	.st6{opacity:0.5;fill:#FFFFFF;}
	.st7{fill:#3B0807;}
	.st8{fill:#BF4113;}
	.st9{fill:#DB6831;}
	.st10{fill:#FBF9FE;}
	.st11{fill:#CC8352;}
	.st12{fill:#E89D60;}
	.st13{fill:#341523;}
	.st14{display:none;fill:#341523;}
	.st15{fill:#FFBC7C;}
	.st16{fill:#573A2C;}
	.st17{fill:#EFF6EC;}
	.st18{fill:#E4BDA3;}
	.st19{fill:#D37B6A;}
	.st20{fill:#BECCB8;}
	.st21{fill:#E95F3B;}
	.st22{fill:#FFCAF3;}
	.st23{fill:#F1F1F2;}
	.st24{fill:#D3CFC5;}
	.st25{fill:#EFEEED;}
	.st26{display:none;fill:#E4BDA3;}
</style>
<rect x="380.21" y="703.39" class="st0" width="472.32" height="405.34"/>
<g>
	<polygon class="st1" points="628.17,769.35 628.31,1062.48 641.76,1062.48 641.62,755.89 439.73,755.93 473.85,849.58 
		486.49,844.97 458.95,769.38 	"/>
</g>
<path class="st2" d="M591.71,843.79c-69.44-3.39-138.47,21.69-189.53,68.86c-5.17-14.25-10.35-28.5-15.53-42.75
	c51.06-47.17,120.1-72.25,189.53-68.86C581.35,815.29,586.53,829.54,591.71,843.79z"/>
<path class="st3" d="M591.71,843.79c4.99,13.74-33.4,40.29-85.73,59.3c-52.34,19.01-98.81,23.29-103.8,9.56
	c-4.99-13.73,33.39-40.28,85.73-59.3C540.24,834.33,586.72,830.06,591.71,843.79z"/>
<g>
	<path class="st4" d="M457.93,893.39c1.23,3.38-8.22,9.92-21.1,14.6c-12.89,4.68-24.33,5.74-25.56,2.36
		c-1.23-3.39,8.22-9.92,21.11-14.6C445.26,891.06,456.7,890.01,457.93,893.39z"/>
	<path class="st4" d="M587.05,846.48c1.23,3.38-8.22,9.92-21.1,14.6c-12.89,4.68-24.33,5.73-25.56,2.35
		c-1.23-3.38,8.22-9.92,21.11-14.6C574.38,844.15,585.82,843.1,587.05,846.48z"/>
	<path class="st4" d="M488.38,868.18c1.23,3.38-8.22,9.92-21.1,14.6c-12.89,4.68-24.33,5.73-25.56,2.35
		c-1.23-3.38,8.22-9.92,21.11-14.6C475.71,865.85,487.15,864.8,488.38,868.18z"/>
	<path class="st4" d="M542.09,848.67c1.23,3.38-8.22,9.92-21.11,14.6c-12.88,4.68-24.32,5.73-25.55,2.35
		c-1.23-3.38,8.22-9.92,21.11-14.6C529.42,846.34,540.86,845.28,542.09,848.67z"/>
	<path class="st4" d="M497.74,893.93c1.23,3.38-8.22,9.92-21.11,14.6c-12.89,4.68-24.32,5.74-25.55,2.35
		c-1.23-3.38,8.22-9.92,21.1-14.6C485.07,891.6,496.51,890.55,497.74,893.93z"/>
	<path class="st4" d="M551.45,874.42c1.23,3.38-8.22,9.92-21.1,14.6c-12.88,4.68-24.33,5.73-25.56,2.35
		c-1.22-3.38,8.22-9.92,21.11-14.6C538.78,872.09,550.22,871.04,551.45,874.42z"/>
</g>
<path class="st1" d="M406.13,1064.14c0,0,3.65,17.27,5.9,22.27c1.69,3.76,3.78,7.89,7.12,7.89h396.24c3.34,0,5.05-3.88,6.65-7.72
	c2.43-5.82,5.3-22.45,5.3-22.45H406.13z"/>
<g>
	<g>
		<g>
			<g>
				<g>
					<path class="st5" d="M697.38,1081.83c4.28,0,10.7,0,10.7,0c12.42-0.77,8.49-10.57,11.48-16.84c3.77-7.88,8.87-22.79,9.9-29.1
						c0.64-3.92-4.03-6.27-3.13-8.49c15.66-38.7,6.14-70.76-19.95-74.7c-12.51-1.89-27.53,8.14-30.14,20.32
						c-2.88,13.39-5.97,45.33,20.79,61.59c18.35,11.15,6.8,30.73,6.8,30.73C692.22,1065.34,685.73,1081.83,697.38,1081.83z"/>
				</g>
			</g>
		</g>
		<path class="st6" d="M696.98,1034.61c17.31,10.52,7.46,28.37,6.29,30.36h7.32c4.92-13.04,7.25-33.56-7.15-41.9
			c-17.1-9.91-22.51-45.01-14.23-66.53c-6.43,3.77-11.59,9.8-13.02,16.48C673.31,986.4,670.22,1018.34,696.98,1034.61z"/>
		<g>
			<g>
				<g>
					<path class="st3" d="M711.3,1050.79c-1.39-0.11-2.76-0.2-4.15-0.23c0.16,7.83-4.04,14.56-4.04,14.56
						c-11.84,0-17.84,17.31-5.95,17.31c4.37,0,10.92,0,10.92,0c12.68-0.78,8.66-11.08,11.72-17.48c1.39-2.9,3.18-6.77,4.18-10.79
						C719.98,1052.25,715.91,1051.14,711.3,1050.79z"/>
				</g>
			</g>
			<g>
				<path class="st3" d="M692.67,1081.17c-0.16-0.99,0.02-1.97,0.36-2.88c0.35-0.92,0.9-1.78,1.64-2.49
					c0.74-0.7,1.67-1.23,2.66-1.46c1-0.23,2.03-0.18,2.94,0.22c-0.91,0.4-1.69,0.75-2.39,1.18c-0.71,0.42-1.32,0.9-1.9,1.45
					c-0.58,0.55-1.12,1.16-1.65,1.83C693.8,1079.68,693.27,1080.39,692.67,1081.17z"/>
				<path class="st3" d="M691.46,1075.85c-0.17-0.85-0.05-1.74,0.29-2.55c0.35-0.82,0.97-1.56,1.75-2.06
					c0.78-0.51,1.68-0.76,2.54-0.78c0.87-0.02,1.7,0.15,2.48,0.55c-0.79,0.4-1.53,0.64-2.19,0.93c-0.67,0.27-1.26,0.56-1.8,0.91
					c-0.54,0.35-1.03,0.75-1.52,1.26C692.52,1074.6,692.05,1075.19,691.46,1075.85z"/>
				<path class="st3" d="M698.45,1082.2c-0.17-0.85-0.05-1.74,0.29-2.56c0.35-0.81,0.97-1.56,1.75-2.06
					c0.78-0.51,1.68-0.75,2.55-0.78c0.87-0.02,1.7,0.15,2.48,0.54c-0.79,0.4-1.53,0.64-2.19,0.93c-0.67,0.27-1.27,0.56-1.8,0.91
					c-0.54,0.35-1.03,0.75-1.52,1.26C699.51,1080.96,699.04,1081.54,698.45,1082.2z"/>
			</g>
		</g>
	</g>
	<g>
		<path class="st5" d="M575.35,1006.77c2.11,7.96,5.03,14.77,12.23,28.74c7.2,13.97,5.93,20.7,0.85,32.55c0,0-5.89-1.21-9.11,4.45
			c-1.17,2.06-4.13,9.32,1.27,9.32c5.31,0,15.88-0.69,19-0.69c4.66,0,6.35-4.23,6.35-11.01c0-5.93,11.49-19.37,8.79-24.14
			c-4.02-7.09-4.76-7.88-3.65-12.07c2.36-8.87,6.76-18.27,7.14-30.81c0.32-10.32-8.89-19.99-23.51-19.99
			C584.25,983.12,571.86,993.59,575.35,1006.77z"/>
		<g>
			<path class="st3" d="M607.34,1061.54c-2.52-3.56-5.05-7.82-9.42-9.34c-1.72-0.6-3.48-0.83-5.3-0.94
				c-0.32,5.28-1.74,9.77-4.51,16.25c0,0-5.9-0.65-9.22,5.19c-1.2,2.12-4.26,9.61,1.31,9.61c5.48,0,15.85,0.02,19.07,0.02
				c4.81,0,7.09-5.11,7.09-12.09c0-1.78,0.9-4.79,2.26-7.47C608.14,1062.19,607.78,1062.16,607.34,1061.54z"/>
			<g>
				<path class="st3" d="M579.38,1081.9c-0.16-0.98,0.02-1.97,0.36-2.88c0.35-0.92,0.9-1.78,1.64-2.49
					c0.74-0.71,1.67-1.23,2.67-1.47c1-0.23,2.03-0.17,2.94,0.22c-0.91,0.4-1.7,0.75-2.4,1.18c-0.7,0.42-1.32,0.9-1.9,1.45
					c-0.58,0.55-1.12,1.16-1.65,1.83C580.5,1080.42,579.98,1081.13,579.38,1081.9z"/>
				<path class="st3" d="M578.18,1076.58c-0.18-0.85-0.06-1.74,0.29-2.55c0.35-0.82,0.97-1.56,1.75-2.06
					c0.78-0.51,1.68-0.75,2.54-0.78c0.87-0.02,1.7,0.15,2.48,0.55c-0.78,0.4-1.52,0.64-2.19,0.93c-0.67,0.27-1.27,0.56-1.81,0.91
					c-0.54,0.35-1.03,0.75-1.52,1.26C579.23,1075.34,578.76,1075.93,578.18,1076.58z"/>
				<path class="st3" d="M585.48,1082.22c-0.17-0.85-0.05-1.74,0.29-2.55c0.35-0.81,0.97-1.56,1.75-2.06
					c0.78-0.5,1.68-0.75,2.55-0.78c0.87-0.02,1.7,0.15,2.48,0.55c-0.79,0.4-1.52,0.64-2.19,0.93c-0.67,0.27-1.26,0.56-1.81,0.91
					c-0.54,0.35-1.03,0.76-1.52,1.26C586.53,1080.98,586.07,1081.56,585.48,1082.22z"/>
			</g>
		</g>
	</g>
	<g>
		<path class="st7" d="M750.76,947.06c0,0,8.54-17.13,2.58-35.52c-5.96-18.39,13.16-29.6,16.63-32.51c0,0-8.34,18.63-4.42,28.38
			c7.06,17.58,12.72,50.77-21.11,68.69C744.43,976.1,739.72,955.79,750.76,947.06z"/>
		<path class="st3" d="M753.34,911.54c0.06,0.14,4.71,0.82,6.61,0.2c4.48-1.46,5.81-3.5,5.6-4.33c-2.92-11.22,5.43-30.06,5.43-30.06
			C767.52,880.26,744.46,890.03,753.34,911.54z"/>
	</g>
	<path class="st5" d="M706.36,1032.14c45.2,0,69.65-61.02,37.27-85.77c-34.94-26.69-69.02,0.46-88.72,6.62
		c-19.69,6.16-44.46-10.95-44.46-10.95l-43.83,32.84c0,36.96,26.25,57.25,58.86,57.25C664.86,1032.14,683.57,1032.14,706.36,1032.14
		z"/>
	<path class="st7" d="M757.34,966.88c-1.98-8.03-6.5-15.11-13.71-20.61c-34.94-26.69-69.02,0.46-88.72,6.61
		c-17.93,5.61-40.07-8.07-43.88-10.57c-3.22,12.54,18.33,39.12,38.8,33.51c26.26-7.2,40.65-15.35,49.34-15.35
		C713.03,960.48,734.33,979.41,757.34,966.88z"/>
	<path class="st3" d="M757.15,989.1c-35.35,34.29-82.53,14.47-123.2,19.87c-32.55,4.32-48.42-29.39-53.76-44.14L566.62,975
		c0,36.95,26.25,57.25,58.86,57.25c39.38,0,58.09,0,80.88,0C732.8,1032.25,752.13,1011.38,757.15,989.1z"/>
	<g>
		<path class="st8" d="M561.35,908.66c0,0-6.76,1-14,4.1c-8.17,3.5-17.2,7.89-22.32,12.06c-4.53,3.7-6.1,6.55-4.55,11.57
			c2.7,8.76,9.08,30.1,12.5,41.54c1.36,4.56,4.3,6.36,7.04,4.22c5.26-4.12,13.01-11.79,13.35-21.38
			C553.88,946.21,561.35,908.66,561.35,908.66z"/>
		<path class="st9" d="M610.6,945.02l-4.87-28.27l-7.82-7.77c0,0-5.5-0.89-7.01-0.73c-3.66,0.39-9.93,1.73-13.62,1.72v0.04l0-0.04
			c-3.68,0.03-9.97-1.27-13.63-1.64c-1.51-0.15-10.73,1.94-14.77,8.58c-3.73,6.13-4.72,28.3-4.72,28.3
			c-2.27,4.22-5.52,17.63,2.31,22.84c12.63,8.4,15.44,14.84,26.51,14.81l4.51-0.01l0.01-0.03l0,0.03l4.5-0.01
			c11.06-0.03,13.85-6.49,26.43-14.96C616.22,962.62,612.9,949.24,610.6,945.02z"/>
		<path class="st3" d="M584.18,950.61l-3.32-40.91c-0.87,0.09-2.64,0.19-3.54,0.22c-0.85,0.03-1.89,0.07-3.45-0.15l-3.27,41.05
			c-8.35,1.88-15.88,7.03-15.86,13.87c0.01,4.1,5.53,13.11,8.64,15.88c2.67,1.44,5.58,2.26,9.54,2.25l4.51-0.01l0.01-0.04v0.04
			l4.51-0.01c3.96-0.01,6.86-0.85,9.53-2.3c3.1-2.8,8.65-13.52,8.64-17.61C600.1,956.07,592.53,952.01,584.18,950.61z"/>
		<g>
			<path class="st7" d="M600.12,941.6c0.01,2.4-1.22,4.34-2.74,4.34c-1.52,0-2.76-1.93-2.76-4.33c-0.01-2.39,1.22-4.34,2.74-4.34
				C598.88,937.27,600.11,939.21,600.12,941.6z"/>
			<path class="st7" d="M560.13,941.71c0.01,2.39-1.22,4.34-2.74,4.34c-1.52,0.01-2.76-1.93-2.76-4.33
				c-0.01-2.39,1.22-4.34,2.74-4.34C558.88,937.38,560.12,939.32,560.13,941.71z"/>
		</g>
		<path class="st8" d="M597.6,908.94c0,0,0.37,0.03,11.62,2.2c7.33,1.42,15.92,3.8,24.26,7.78c5.05,2.42,4.46,9.62,3.03,14.74
			c-2.74,9.81-8.16,32.09-10.55,41.99c-0.74,3.03-4.4,3.98-8.28,1.94c-5.9-3.09-13.33-8.73-13.36-17.52
			c-0.06-21.66-0.13-28.7-0.16-40.52C604.15,914.52,597.6,908.94,597.6,908.94z"/>
		<g>
			<path class="st7" d="M565.22,949.68c0.74-3.05,5.72-3.8,11.97-3.81c7.56-0.02,11.2,0.71,11.83,3.75
				c0.74,3.57-6.38,9.74-12.25,9.75C572.01,959.38,564.33,953.38,565.22,949.68z"/>
			<g>
				<path class="st7" d="M602.72,963.02c-0.05-0.04-0.13-0.04-0.18,0.01v0c-1.79,1.92-3.76,3.7-5.87,5.26
					c-1.06,0.78-2.16,1.49-3.31,2.08c-1.15,0.59-2.37,1.05-3.6,1.19c-0.3,0.03-0.6,0.04-0.91,0.03c-0.31-0.01-0.62-0.04-0.93-0.09
					c-0.61-0.09-1.22-0.24-1.8-0.45c-1.17-0.42-2.27-1.05-3.27-1.8c-1.01-0.75-1.93-1.62-2.78-2.57c-0.42-0.47-0.82-0.96-1.21-1.46
					c-0.19-0.25-0.37-0.5-0.55-0.76c-0.17-0.25-0.36-0.53-0.49-0.76c-0.09-0.15-0.22-0.28-0.38-0.38c-0.1-0.06,0.37-4.9,0.37-4.9
					l-1.96,0c0,0,0.22,5.02,0.08,5.25l-0.01,0.02c-0.14,0.23-0.32,0.51-0.49,0.76c-0.18,0.26-0.36,0.51-0.55,0.76
					c-0.38,0.51-0.78,0.99-1.2,1.46c-0.84,0.95-1.76,1.82-2.76,2.58c-1,0.75-2.1,1.39-3.26,1.81c-0.58,0.21-1.18,0.37-1.8,0.46
					c-0.31,0.05-0.62,0.08-0.93,0.09l-0.11,0l-0.12,0l-0.22,0c-0.15,0-0.3-0.02-0.45-0.03c-1.22-0.13-2.44-0.59-3.59-1.17
					c-1.16-0.58-2.26-1.29-3.32-2.06c-2.11-1.55-4.08-3.32-5.88-5.23l-0.01-0.01c-0.06-0.06-0.16-0.07-0.23-0.02
					c-0.07,0.06-0.08,0.16-0.02,0.23c1.7,2.04,3.57,3.93,5.64,5.64c1.04,0.85,2.13,1.65,3.32,2.33c1.18,0.68,2.47,1.27,3.92,1.52
					c0.18,0.03,0.36,0.05,0.55,0.07c0.09,0,0.18,0.01,0.28,0.02l0.13,0.01l0.14,0c0.36,0,0.72-0.01,1.08-0.04
					c0.72-0.07,1.43-0.21,2.11-0.41c1.38-0.41,2.65-1.06,3.81-1.83c1.17-0.77,2.23-1.67,3.2-2.65c0.49-0.48,0.95-0.99,1.4-1.52
					c0.11-0.13,0.22-0.27,0.33-0.41c0.11,0.13,0.22,0.27,0.33,0.4c0.45,0.52,0.92,1.02,1.41,1.5c0.98,0.96,2.05,1.86,3.22,2.62
					c1.17,0.77,2.45,1.41,3.82,1.81c0.69,0.2,1.4,0.34,2.11,0.4c0.36,0.03,0.72,0.05,1.08,0.04c0.37-0.01,0.74-0.04,1.1-0.11
					c1.44-0.26,2.72-0.86,3.9-1.54c1.18-0.69,2.26-1.5,3.3-2.35c2.05-1.73,3.91-3.63,5.59-5.67
					C602.77,963.14,602.76,963.07,602.72,963.02z"/>
			</g>
		</g>
	</g>
	<g>
		<path class="st5" d="M604.57,1006.77c2.11,7.96,5.03,14.77,12.23,28.74c7.2,13.97,5.93,20.7,0.85,32.55c0,0-5.89-1.21-9.1,4.45
			c-1.17,2.06-4.13,9.32,1.27,9.32c5.31,0,15.88-0.69,19-0.69c4.66,0,6.35-4.23,6.35-11.01c0-5.93,11.48-19.37,8.79-24.14
			c-4.02-7.09-4.76-7.88-3.65-12.07c2.36-8.87,6.76-18.27,7.14-30.81c0.32-10.32-8.89-19.99-23.51-19.99
			C613.47,983.12,601.08,993.59,604.57,1006.77z"/>
		<g>
			<path class="st3" d="M636.56,1061.54c-2.52-3.56-5.05-7.82-9.42-9.34c-1.72-0.6-3.48-0.83-5.3-0.94
				c-0.32,5.28-1.74,9.77-4.51,16.25c0,0-5.9-0.65-9.22,5.19c-1.21,2.12-4.26,9.61,1.31,9.61c5.48,0,15.85,0.02,19.07,0.02
				c4.81,0,7.09-5.11,7.09-12.09c0-1.78,0.9-4.79,2.26-7.47C637.36,1062.19,637,1062.16,636.56,1061.54z"/>
			<g>
				<path class="st3" d="M608.6,1081.9c-0.16-0.98,0.02-1.97,0.36-2.88c0.35-0.92,0.9-1.78,1.65-2.49c0.74-0.71,1.67-1.23,2.67-1.47
					c0.99-0.23,2.03-0.17,2.94,0.22c-0.91,0.4-1.7,0.75-2.4,1.18c-0.7,0.42-1.32,0.9-1.89,1.45c-0.58,0.55-1.12,1.16-1.65,1.83
					C609.72,1080.42,609.2,1081.13,608.6,1081.9z"/>
				<path class="st3" d="M607.39,1076.58c-0.17-0.85-0.05-1.74,0.29-2.55c0.35-0.82,0.97-1.56,1.75-2.06
					c0.78-0.51,1.68-0.75,2.55-0.78c0.87-0.02,1.7,0.15,2.48,0.55c-0.78,0.4-1.52,0.64-2.19,0.93c-0.67,0.27-1.27,0.56-1.8,0.91
					c-0.54,0.35-1.03,0.75-1.52,1.26C608.45,1075.34,607.98,1075.93,607.39,1076.58z"/>
				<path class="st3" d="M614.7,1082.22c-0.17-0.85-0.05-1.74,0.29-2.55c0.35-0.81,0.97-1.56,1.75-2.06
					c0.78-0.5,1.68-0.75,2.55-0.78c0.87-0.02,1.7,0.15,2.48,0.55c-0.78,0.4-1.52,0.64-2.19,0.93c-0.67,0.27-1.27,0.56-1.81,0.91
					c-0.54,0.35-1.03,0.76-1.52,1.26C615.75,1080.98,615.29,1081.56,614.7,1082.22z"/>
			</g>
		</g>
	</g>
	<g>
		<g>
			<g>
				<g>
					<path class="st5" d="M722.46,1081.83c4.28,0,10.7,0,10.7,0c12.42-0.77,8.49-10.57,11.48-16.84c3.77-7.88,8.87-22.79,9.89-29.1
						c0.64-3.92-4.03-6.27-3.13-8.49c15.66-38.7,6.14-70.76-19.95-74.7c-12.51-1.89-27.53,8.14-30.14,20.32
						c-2.88,13.39-5.97,45.33,20.79,61.59c18.35,11.15,6.8,30.73,6.8,30.73C717.31,1065.34,710.81,1081.83,722.46,1081.83z"/>
				</g>
			</g>
		</g>
		<path class="st6" d="M722.07,1034.61c17.31,10.52,7.46,28.37,6.29,30.36h7.32c4.91-13.04,7.25-33.56-7.15-41.9
			c-17.11-9.91-22.51-45.01-14.23-66.53c-6.43,3.77-11.59,9.8-13.03,16.48C698.4,986.4,695.31,1018.34,722.07,1034.61z"/>
		<g>
			<g>
				<g>
					<path class="st3" d="M736.39,1050.79c-1.38-0.11-2.76-0.2-4.15-0.23c0.16,7.83-4.04,14.56-4.04,14.56
						c-11.84,0-17.84,17.31-5.94,17.31c4.36,0,10.92,0,10.92,0c12.68-0.78,8.66-11.08,11.72-17.48c1.39-2.9,3.17-6.77,4.18-10.79
						C745.08,1052.25,741,1051.14,736.39,1050.79z"/>
				</g>
			</g>
			<g>
				<path class="st3" d="M717.76,1081.17c-0.16-0.99,0.02-1.97,0.36-2.88c0.35-0.92,0.91-1.78,1.65-2.49
					c0.74-0.7,1.67-1.23,2.66-1.46c1-0.23,2.03-0.18,2.94,0.22c-0.91,0.4-1.7,0.75-2.4,1.18c-0.7,0.42-1.32,0.9-1.9,1.45
					c-0.58,0.55-1.11,1.16-1.65,1.83C718.88,1079.68,718.36,1080.39,717.76,1081.17z"/>
				<path class="st3" d="M716.55,1075.85c-0.17-0.85-0.05-1.74,0.29-2.55c0.35-0.82,0.97-1.56,1.75-2.06
					c0.78-0.51,1.68-0.76,2.55-0.78c0.87-0.02,1.7,0.15,2.48,0.55c-0.79,0.4-1.53,0.64-2.19,0.93c-0.67,0.27-1.27,0.56-1.8,0.91
					c-0.54,0.35-1.03,0.75-1.52,1.26C717.61,1074.6,717.14,1075.19,716.55,1075.85z"/>
				<path class="st3" d="M723.54,1082.2c-0.18-0.85-0.06-1.74,0.29-2.56c0.35-0.81,0.97-1.56,1.75-2.06
					c0.78-0.51,1.68-0.75,2.55-0.78c0.87-0.02,1.71,0.15,2.48,0.54c-0.78,0.4-1.52,0.64-2.19,0.93c-0.67,0.27-1.27,0.56-1.81,0.91
					c-0.54,0.35-1.03,0.75-1.52,1.26C724.59,1080.96,724.13,1081.54,723.54,1082.2z"/>
			</g>
		</g>
	</g>
</g>
<rect class="st0" width="423.73" height="423.73"/>
<path class="st10" d="M23.1,96.5c0,1.57-1.28,2.85-2.85,2.85c-1.57,0-2.85-1.28-2.85-2.85c0-1.57,1.28-2.85,2.85-2.85
	C21.82,93.65,23.1,94.92,23.1,96.5z"/>
<path class="st10" d="M394.18,116.73c0,3.82-3.1,6.91-6.91,6.91s-6.91-3.1-6.91-6.91c0-3.82,3.1-6.91,6.91-6.91
	S394.18,112.91,394.18,116.73z"/>
<path class="st10" d="M414.72,314.38c0,5.06-4.1,9.15-9.15,9.15c-5.06,0-9.15-4.1-9.15-9.15c0-5.06,4.1-9.15,9.15-9.15
	C410.63,305.22,414.72,309.32,414.72,314.38z"/>
<path class="st10" d="M401.4,232.09c0,2.75-2.23,4.98-4.98,4.98c-2.75,0-4.98-2.23-4.98-4.98c0-2.75,2.23-4.98,4.98-4.98
	C399.17,227.11,401.4,229.34,401.4,232.09z"/>
<path class="st10" d="M126.47,29.24c0,1.75-1.42,3.16-3.16,3.16c-1.75,0-3.16-1.41-3.16-3.16c0-1.75,1.42-3.16,3.16-3.16
	C125.06,26.08,126.47,27.5,126.47,29.24z"/>
<path class="st10" d="M347.66,67c0,1.5-1.21,2.71-2.71,2.71c-1.5,0-2.71-1.21-2.71-2.71c0-1.5,1.22-2.71,2.71-2.71
	C346.44,64.29,347.66,65.5,347.66,67z"/>
<path class="st10" d="M13.48,235.19c0,1.5-1.22,2.71-2.71,2.71c-1.5,0-2.71-1.21-2.71-2.71c0-1.5,1.22-2.71,2.71-2.71
	C12.26,232.48,13.48,233.7,13.48,235.19z"/>
<path class="st10" d="M33.5,325.63c0,2.75-2.23,4.98-4.98,4.98c-2.75,0-4.98-2.23-4.98-4.98c0-2.75,2.23-4.98,4.98-4.98
	C31.27,320.66,33.5,322.88,33.5,325.63z"/>
<path class="st10" d="M60.68,246.46c0,1.94-1.58,3.52-3.52,3.52c-1.94,0-3.52-1.58-3.52-3.52c0-1.94,1.58-3.52,3.52-3.52
	C59.1,242.94,60.68,244.51,60.68,246.46z"/>
<path class="st10" d="M60.96,27.42c0,3.57-2.9,6.47-6.47,6.47c-3.57,0-6.47-2.9-6.47-6.47c0-3.57,2.9-6.47,6.47-6.47
	C58.06,20.95,60.96,23.85,60.96,27.42z"/>
<path class="st10" d="M385.95,32.79c0,2.96-2.4,5.36-5.36,5.36c-2.96,0-5.36-2.4-5.36-5.36c0-2.96,2.4-5.36,5.36-5.36
	C383.55,27.42,385.95,29.83,385.95,32.79z"/>
<path class="st11" d="M193.72,231.09c0,0,2.44-26.18,17.94-20.18c0,0,8.27-15.71,15.95-2.63c0,0,5.47,10.56-2.04,12.92
	c0,0,10.74,2.61,1.17,7.43l-10.87,2.84c0,0,7.47,1.92,6.68,4.83C221.78,239.23,207.19,250.01,193.72,231.09z"/>
<path class="st11" d="M199.62,257.05c-0.52-4.19-6.51-6.9-13.38-6.05c-6.14,0.76-10.91,4.1-11.48,7.8
	c-3.21-0.12-5.99,1.93-6.36,4.82c-0.4,3.08,2.1,5.93,5.58,6.38c3.29,0.42,6.28-1.47,6.92-4.28c2.11,0.59,4.6,0.79,7.21,0.46
	C194.98,265.33,200.13,261.24,199.62,257.05z"/>
<path class="st12" d="M220.09,242.98c-0.43-1.05-1.09-1.94-1.87-2.61c1.69-2.67,2.18-7,1.01-11.52c-1.21-4.69-3.89-8.33-6.78-9.74
	c1.15-1.66,1.41-3.99,0.51-6.18c-1.05-2.53-3.35-4.1-5.68-4.1c-0.11-2.75-1.27-5.97-3.42-8.93c-2.9-3.99-6.81-6.43-10.05-6.6
	c0.92-2.5,1.15-5.75,0.47-9.16c-0.91-4.55-3.21-8.21-5.87-9.89c0.55-1.22,0.73-2.67,0.44-4.14c-0.69-3.44-3.71-5.73-6.75-5.12
	c-3.04,0.61-4.95,3.89-4.26,7.32c0.36,1.77,1.33,3.24,2.62,4.16c-1.47,2.61-1.99,6.52-1.16,10.67c1.24,6.21,5.08,10.78,8.89,10.88
	c-0.5,3.08,0.64,7.17,3.31,10.85c3.07,4.23,7.27,6.71,10.62,6.61c0.08,0.58,0.24,1.16,0.47,1.73c0.66,1.59,1.82,2.8,3.17,3.48
	c-1.94,2.61-2.56,7.19-1.32,11.97c1.03,3.97,3.1,7.19,5.47,8.94c-0.87,1.61-1,3.69-0.19,5.65c1.34,3.24,4.75,4.9,7.62,3.72
	C220.19,249.81,221.43,246.22,220.09,242.98z"/>
<path class="st11" d="M179.42,151.19c0,0,15.7,44.44,15.7,55.93s32.16,48.9-20.42,59.22c0,0-58.39,0.08-61.93-12.65
	c-3.54-12.72-13.18-82.1,0.42-100.22L179.42,151.19z"/>
<path class="st12" d="M193.43,195.52c-0.36,1.17-0.73,2.33-1.14,3.48c-1.76,4.18-4.52,17.43-6.98,21.16
	c-6.64,10.08-13.84,13.77-25.01,16.36c-3.51,0.81-7.42,0.25-10.71,0.88c-7.6,1.46-17.62,2.78-24.86-0.88
	c-7.96-4.02-15.61-19.92-18.42-28.71c-1.18-3.7-0.12-7.83-0.15-11.65c-0.05-5.72,0.07-11.45,0.52-17.16
	c0.49-6.31,1.18-13.57,3.56-19.74c0.15-0.38,0.36-0.86,0.6-1.4c0.36-0.77,0.8-1.67,1.28-2.57c0.01-0.01,0.01-0.01,0.01-0.02
	c0.96-1.83,2.02-3.68,2.7-4.63l0.15,0l48.94,0.84l15.57,0.27c0,0,0.16,0.47,0.42,1.23c0.5,1.46,1.37,3.98,2.19,6.36
	c0.55,1.59,1.19,3.44,1.88,5.48C186.9,173.47,190.81,185.53,193.43,195.52z"/>
<path class="st12" d="M117.02,222.94c-1.52-4.57-4.4-8.02-7.37-9.25c0.07-0.41,0.11-0.83,0.11-1.26c0-1.68-0.6-3.21-1.56-4.32
	c0.87-1.09,1.4-2.54,1.4-4.13c3.28-1.42,5.69-6.31,5.69-12.12c0-5.41-2.09-10.02-5.02-11.78c2.01-0.91,3.44-3.14,3.44-5.74
	c0-1.5-0.47-2.87-1.26-3.94c2.58-0.58,4.52-3.14,4.52-6.22c0-3.5-2.51-6.35-5.62-6.35c-3.1,0-5.62,2.84-5.62,6.35
	c0,1.57,0.51,3.01,1.35,4.12c-2.47,0.6-4.33,3.08-4.33,6.05c0,2.34,1.15,4.38,2.86,5.43c-3.24,1.46-5.61,6.32-5.61,12.09
	c0,2.53,0.46,4.89,1.25,6.86c-1.56,1.09-2.6,3.04-2.6,5.26c0,1.68,0.6,3.21,1.56,4.32c-0.87,1.1-1.4,2.54-1.4,4.13
	c0,2.49,1.3,4.64,3.18,5.62c-0.77,2.68-0.66,6.16,0.51,9.7c1.13,3.42,3.04,6.21,5.17,7.92c-1.1,1.13-1.79,2.76-1.79,4.57
	c0,3.42,2.45,6.19,5.48,6.19c3.02,0,5.48-2.77,5.48-6.19c0-1.55-0.51-2.97-1.34-4.06C118.11,233.78,118.84,228.42,117.02,222.94z"/>
<path class="st11" d="M114.97,150.65c-0.97,1.5-2.02,3.2-2.85,4.63c0,0.01-0.01,0.01-0.01,0.02c-0.59,1.03-1.08,1.92-1.35,2.51
	c0.03,0.02,0.05,0.04,0.07,0.05c2.08,1.48,5.28,3.53,9.48,5.57c0.02,0.04,12,22.1,20.52,22.21c8.51,0.1,32.24-17.27,32.36-17.36
	c3.49-0.89,7.09-2.03,10.79-3.46c-0.69-2.05-1.33-3.9-1.88-5.48c-0.83-2.38-1.69-4.9-2.19-6.36l-16-1.49L114.97,150.65z"/>
<path class="st12" d="M220.03,265.44c-0.83,5.66-1.77,7.09-4.29,12.25c-0.9,1.84-2.22,3.54-4,4.56c-0.31,0.18-0.64,0.34-0.99,0.47
	c-0.34,0.14-0.69,0.26-1.06,0.36c-2.84,0.79-6.49,0.58-9.55-0.54c-0.44-0.16-0.87-0.34-1.28-0.53c-1.68-0.81-3.09-1.92-3.95-3.3
	c-1.88-3.03-3.55-6.64-3.21-10.29c0.26-2.8,2.1-5.11,3.94-7.1c0.06-0.06,0.13-0.15,0.21-0.24c2.45-2.97-1.4-6.76-2.95-9.15
	c-2.59-4-6.53-5.2-8.57-9.5c-2.61-5.48-5.02-12.15-5.21-18.31c-0.19-6,3.51-13.88,5-19.61c0.25-0.96,1.05-14.61,1.86-14.42
	l15.92,10.01c18.2,26.36,15.76,52.85,15.76,52.85C219.26,261.31,220.37,263.1,220.03,265.44z"/>
<path class="st12" d="M128.74,272.18c-5.69,9.31-10.34,7.34-14.06,7.35c-0.19,0-0.37,0.01-0.56,0.02c-0.18,0.01-0.37,0.02-0.56,0.03
	c-2.99,0.15-7.77,0.06-9.96,0c-0.63-0.01-1.05-0.03-1.15-0.03c-0.01,0-0.02,0-0.02,0s-4.32-0.56-4.82-2.59
	c-0.51-2.03-0.45-3.27-0.52-6.18c-0.13-5.47,5.85-6.35,5.85-6.35c3.81-3.43,6.48-12.2,7.24-17.92c0.77-5.72-3.81-15.25-4.38-19.44
	c-0.57-4.2-5.53-8.01-4.39-24.41c1.15-16.39,10.76-37.92,10.76-37.92l12.75,14.66l1.02,25.29l2.42,24.27c0,0,1.52,21.99,3.68,25.67
	C134.2,258.33,128.74,272.18,128.74,272.18z"/>
<path class="st13" d="M116.71,268.31c-0.48,0.12-0.85,0.37-1.17,0.72c-0.32,0.36-0.58,0.84-0.78,1.42c-0.4,1.14-0.54,2.63-0.54,4.05
	c0,2.42,0.4,4.66,0.44,4.92l0,0.02c0.01,0.03,0.01,0.06,0.01,0.09c-0.19,0-0.37,0.01-0.56,0.02c-0.18,0.01-0.37,0.02-0.56,0.03
	c-0.07-0.42-0.46-2.64-0.46-5.08c0-1.12,0.08-2.3,0.31-3.37c0.24-1.08,0.62-2.08,1.29-2.84c0.44-0.5,1.03-0.89,1.73-1.07
	c0.3-0.07,0.6,0.1,0.68,0.41C117.19,267.93,117.01,268.23,116.71,268.31z"/>
<path class="st13" d="M106.28,266.87c-0.72,0.2-1.28,0.52-1.74,0.93c-0.46,0.41-0.82,0.92-1.09,1.5c-0.55,1.16-0.75,2.63-0.75,4.09
	c0,2.88,0.78,5.67,0.87,5.99l0.01,0.03c0.02,0.06,0.03,0.12,0.02,0.17c-0.63-0.01-1.05-0.03-1.15-0.03
	c-0.19-0.7-0.87-3.34-0.88-6.16c0-1.17,0.12-2.37,0.45-3.48c0.33-1.12,0.89-2.15,1.77-2.94c0.59-0.52,1.32-0.93,2.19-1.17
	c0.3-0.08,0.6,0.09,0.69,0.39C106.75,266.48,106.58,266.79,106.28,266.87z"/>
<path class="st13" d="M210.75,282.73c-0.34,0.14-0.69,0.26-1.06,0.36c-1.03-2.67-2.09-5.8-2.09-8.86c0-0.44,0.02-0.88,0.07-1.32
	c0.03-0.31,0.31-0.53,0.62-0.49c0.31,0.03,0.53,0.31,0.5,0.62c-0.04,0.39-0.06,0.79-0.06,1.19
	C208.71,277.03,209.72,280.07,210.75,282.73C210.74,282.72,210.75,282.72,210.75,282.73z"/>
<path class="st13" d="M200.13,282.54c-0.44-0.16-0.87-0.34-1.28-0.53c-0.98-2.61-1.87-5.54-1.88-8.43c0-0.26,0.01-0.53,0.03-0.79
	c0.02-0.31,0.28-0.55,0.59-0.53c0.31,0.02,0.55,0.28,0.53,0.59c-0.01,0.24-0.02,0.48-0.02,0.72c0,2.85,0.97,5.9,2.02,8.61
	C200.16,282.3,200.17,282.43,200.13,282.54z"/>
<path class="st11" d="M145.52,246.42l-7.5,10.79c0,0-10.37,2.69-11.45,8.28c-1.08,5.59-2.64,8.36,2.71,8.57c5.35,0.21,8,0.69,8,0.69
	s19.4-4.82,20.31-9.65c0.91-4.82-1.43-7.52-1.43-7.52L145.52,246.42z"/>
<path class="st13" d="M137.11,267.34c0,0.71-1.41,1.29-3.15,1.29c-1.74,0-3.15-0.58-3.15-1.29c0-0.71,1.41-1.29,3.15-1.29
	C135.71,266.05,137.11,266.62,137.11,267.34z"/>
<path class="st14" d="M-277.29,255.6c0,0.71-1.41,1.29-3.15,1.29c-1.74,0-3.15-0.58-3.15-1.29s1.41-1.29,3.15-1.29
	C-278.7,254.32-277.29,254.89-277.29,255.6z"/>
<ellipse class="st13" cx="136.48" cy="271.24" rx="3.15" ry="1.29"/>
<path class="st13" d="M149.41,267.11c0.05,1.21-2.3,2.29-5.26,2.41c-2.95,0.12-5.39-0.75-5.44-1.96c-0.05-1.21,2.3-2.29,5.26-2.41
	C146.92,265.02,149.36,265.9,149.41,267.11z"/>
<path class="st12" d="M149.76,222.68c0,0,5.03,10.29,4.46,13.44c-0.57,3.15-7.16,10.29-6.44,14.01c0.72,3.72-0.83,18.59-2.63,22.59
	c-1.8,4-7.23,3.43-8.38,8.58s-7.15,7.72,0,11.15c0,0,2.25,4.1,9.82,2.67c3.39-0.64,5.05-1.24,5.05-1.24s-0.57,4.29,5.43,0.86
	c6.01-3.43,10.26-15.04,10.26-15.04s5.75-34.15,6.9-39.58c1.14-5.43-0.29-16.59,0-17.44C174.53,221.82,165.03,210.1,149.76,222.68z"
	/>
<path class="st13" d="M152.21,293.87l0-0.01c0-0.03,0-0.11,0-0.24c0-0.73,0.05-2.92,0.59-5.12c0.27-1.1,0.65-2.19,1.19-3.09
	c0.54-0.9,1.22-1.6,2.09-1.98c0.28-0.13,0.41-0.46,0.29-0.74s-0.46-0.41-0.74-0.29c-1.13,0.5-1.97,1.39-2.59,2.43
	c-0.93,1.56-1.4,3.46-1.65,5.11c-0.25,1.66-0.28,3.08-0.28,3.66c0,0.18,0,0.28,0,0.28c0.01,0.31,0.27,0.55,0.58,0.54
	C151.98,294.43,152.22,294.18,152.21,293.87L152.21,293.87z"/>
<path class="st13" d="M137.52,292.1l0-0.02c0.01-0.21,0.16-2.23,0.93-4.49c0.38-1.13,0.92-2.32,1.66-3.38
	c0.74-1.06,1.68-1.98,2.88-2.61c0.27-0.14,0.38-0.48,0.24-0.76c-0.14-0.27-0.48-0.38-0.76-0.24c-1.43,0.75-2.53,1.86-3.36,3.07
	c-1.24,1.83-1.91,3.91-2.28,5.53c-0.37,1.63-0.43,2.8-0.43,2.83c-0.02,0.31,0.22,0.57,0.53,0.59
	C137.24,292.65,137.5,292.41,137.52,292.1L137.52,292.1z"/>
<path class="st12" d="M115.59,67.93c0,0,0.93-6.67,8.74-7.96c0,0,8.37-8.18,15.38-4.34c0,0,16.36-8.79,28.21,1.57
	c0,0,20.6-0.1,24.14,13.29c0,0,9.64,2.33,9.26,11.73c0,0,11.71,2.88,8.21,17.43c0,0,3.84,38.08-14.93,39.06
	c0,0,0.82,20.67-15.68,22.21c0,0-10.03,11.32-26.39,3.25c0,0-29.34,4.55-33.53-10.24c0,0-19.21-7.73-12.57-22.39
	c0,0-10.26-23.77,7.49-38.32C113.91,93.23,102.69,77.29,115.59,67.93z"/>
<path class="st15" d="M173.18,126.57c1.14-7.01-8.05-9.84-8.05-9.84c-1.58-2.47-7.19-3.25-7.19-3.25c-3.18-3.8-7.7-3.59-8.01-3.57
	c-0.29-0.11-4.55-1.62-8.7,1.09c0,0-5.6-0.88-7.82,1.02c0,0-9.62,0.05-10.56,7.08c0,0-10.51,4.74-9.54,13.91
	c0.97,9.17,6.13,15.86,15.65,14.06c0,0,3.58,10.33,15.04,2.78c7.95,10.22,15.2,1.71,15.2,1.71c8.59,4.48,15.47-0.42,19.05-8.92
	C181.86,134.16,173.18,126.57,173.18,126.57z"/>
<path class="st13" d="M145.44,136.72c0,0-4.48-1.8-5.33-3.12c-0.86-1.32-1.99-6.33-1.61-7.45c0.38-1.12,0.5-1.4,0.5-1.4
	s1.95-3.58,5-2.29c5.43,2.3,9.14-0.22,10.58,2.21c1.44,2.43,1.1,5.42-0.93,8.27C152.04,135.19,149.07,137.02,145.44,136.72z"/>
<path class="st13" d="M130.76,138.97c0.04,0.07,0.35,0.61,1.09,1.15c0.37,0.27,0.84,0.54,1.42,0.73c0.58,0.2,1.28,0.32,2.09,0.32
	c0.42,0,0.87-0.03,1.35-0.11l-0.12-0.74l-0.41,0.63c0.03,0.02,0.72,0.47,1.83,0.91c1.11,0.45,2.65,0.9,4.4,0.9
	c0.64,0,1.31-0.06,1.99-0.21c0.3-0.07,0.53-0.31,0.58-0.62c0,0,0.25-1.54,0.5-3.21c0.13-0.83,0.26-1.7,0.36-2.41
	c0.05-0.36,0.09-0.68,0.13-0.95c0.03-0.27,0.05-0.48,0.06-0.64c0.02-0.41-0.3-0.77-0.72-0.79c-0.41-0.02-0.77,0.3-0.79,0.72
	c0,0.08-0.02,0.28-0.05,0.53c-0.11,0.89-0.35,2.53-0.57,3.93c-0.11,0.7-0.21,1.35-0.29,1.82c-0.07,0.47-0.12,0.76-0.12,0.76
	l0.74,0.12l-0.16-0.73c-0.56,0.12-1.12,0.18-1.67,0.18c-1.48,0-2.84-0.39-3.83-0.79c-0.49-0.2-0.89-0.4-1.17-0.55
	c-0.14-0.07-0.24-0.13-0.31-0.18c-0.03-0.02-0.06-0.04-0.08-0.05L137,139.7l0,0l-0.14,0.21l0.14-0.21l0,0l-0.14,0.21l0.14-0.21
	c-0.16-0.1-0.34-0.14-0.53-0.11c-0.41,0.06-0.78,0.09-1.11,0.09c-0.65,0-1.18-0.1-1.61-0.25c-0.64-0.22-1.07-0.54-1.34-0.79
	c-0.13-0.13-0.23-0.24-0.28-0.32c-0.03-0.04-0.05-0.07-0.06-0.08l-0.01-0.01l-0.07,0.04l0.07-0.04l0,0l-0.07,0.04l0.07-0.04
	l-0.45,0.26l0.45-0.25l0-0.01l-0.45,0.26l0.45-0.25c-0.2-0.36-0.66-0.49-1.02-0.29C130.68,138.15,130.55,138.61,130.76,138.97
	L130.76,138.97z"/>
<path class="st13" d="M157,141.86l0.35,0.37L157,141.86L157,141.86l0.35,0.37L157,141.86l0.05,0.04L157,141.86L157,141.86l0.05,0.04
	L157,141.86c0,0-0.19,0.17-0.55,0.34c-0.36,0.17-0.87,0.33-1.56,0.33c-0.66,0-1.49-0.15-2.5-0.63c-0.17-0.08-0.36-0.09-0.54-0.04
	l0.03,0.09l-0.03-0.09l0,0l0.03,0.09l-0.03-0.09c-0.03,0.01-1.23,0.35-2.83,0.35c-1.32,0-2.9-0.23-4.35-1.03l-0.36,0.66l0.75,0.1
	c0,0,0.01-0.1,0.03-0.27c0.08-0.6,0.28-2.11,0.48-3.56c0.1-0.73,0.21-1.45,0.3-2.03c0.05-0.29,0.09-0.55,0.12-0.75
	c0.04-0.2,0.07-0.36,0.08-0.43c0.1-0.4-0.14-0.81-0.55-0.91c-0.4-0.1-0.81,0.14-0.91,0.55c-0.04,0.16-0.08,0.36-0.12,0.63
	c-0.16,0.93-0.39,2.56-0.58,3.98c-0.19,1.41-0.35,2.6-0.35,2.6c-0.04,0.31,0.11,0.61,0.38,0.76c1.75,0.96,3.58,1.22,5.07,1.22
	c1.87,0,3.21-0.4,3.26-0.41l-0.21-0.72l-0.32,0.68c1.19,0.57,2.25,0.78,3.15,0.78c0.99,0,1.77-0.26,2.29-0.52
	c0.53-0.26,0.81-0.53,0.86-0.57c0.3-0.29,0.31-0.76,0.02-1.06C157.77,141.58,157.3,141.57,157,141.86L157,141.86z"/>
<path class="st11" d="M115.03,102.89c4.32-10.91,7.86-20.31,7.89-21.85c0.08-3.96-6.31-9.57-6.31-9.57S104.16,69.55,95,77.6
	c0,0-12.39,4.58-16.03,13.54c0,0-16.62,23.73-7.41,35.2c0,0-0.32,4.49,3.45,4.33c0,0-2.69,8.54,4.93,8.87c0,0,0.49,8.26,8.85,2.41
	c0,0,5.73,3.95,10.75-1.03c11.57-0.64,5.58-13.52,5.58-13.52c0.05-0.13,0.1-0.25,0.16-0.38c7.86-1.11,6.11-8.73,5-11.96
	c0.34,0.25,0.56,0.4,0.56,0.4C119.44,113.47,116.78,106.22,115.03,102.89z"/>
<path class="st11" d="M189.98,108.99c-2.5-11.47-4.47-21.31-4.26-22.84c0.56-3.92,7.78-8.43,7.78-8.43s12.6,0.13,20.33,9.55
	c0,0,11.49,6.52,13.63,15.95c0,0,12.57,26.11,1.62,35.93c0,0-0.41,4.48-4.11,3.71c0,0,1.28,8.87-6.3,7.96c0,0-1.82,8.07-9.12,0.95
	c0,0-6.29,2.97-10.44-2.75c-11.31-2.51-3.32-14.24-3.32-14.24c-0.03-0.13-0.06-0.27-0.09-0.4c-7.57-2.37-4.62-9.61-3-12.61
	c-0.37,0.2-0.61,0.31-0.61,0.31C183.91,118.71,187.71,111.99,189.98,108.99z"/>
<path class="st11" d="M147.58,88.52L147.58,88.52c-0.05-0.08-1.04-1.6-2.01-3.64c-0.48-1.02-0.96-2.16-1.32-3.31
	c-0.35-1.14-0.58-2.29-0.58-3.3c0-0.53,0.06-1.01,0.19-1.44c0.12-0.41-0.11-0.83-0.52-0.95c-0.41-0.12-0.83,0.11-0.95,0.52
	c-0.18,0.6-0.25,1.23-0.25,1.88c0,1.25,0.27,2.55,0.66,3.81c0.59,1.89,1.46,3.7,2.18,5.04c0.72,1.34,1.3,2.22,1.31,2.23
	c0.23,0.35,0.71,0.45,1.06,0.22C147.71,89.35,147.81,88.87,147.58,88.52L147.58,88.52z"/>
<path class="st11" d="M156.69,89.34c-1.4-2.16-2.59-4.53-3.33-6.96c-0.12-0.41-0.56-0.63-0.96-0.51c-0.41,0.12-0.63,0.56-0.51,0.96
	c0.8,2.6,2.05,5.09,3.51,7.35c0.23,0.36,0.71,0.46,1.06,0.23C156.81,90.17,156.92,89.7,156.69,89.34L156.69,89.34z"/>
<path class="st16" d="M166.01,116.76c1.38-0.2,2.59-0.77,4.01-0.92c1.68-0.18,3.42-0.46,5.1-0.39c1.23,0.06,8.36,0.2,10.71,0.19
	c0,0,0.01,0,0.01,0c0.67-0.04,0.77-1.07,0.12-1.23c-9.06-2.31-13.78-2.52-19.98,1.74c-0.1,0.07-0.23,0.17-0.19,0.38
	C165.78,116.52,165.96,116.76,166.01,116.76z"/>
<path class="st16" d="M136,110.64c-1.3-0.51-2.35-1.34-3.7-1.81c-1.6-0.56-3.22-1.23-4.87-1.54c-1.21-0.23-8.19-1.71-10.47-2.25
	c0,0-0.01,0-0.01,0c-0.65-0.19-0.51-1.21,0.16-1.23c9.35-0.19,13.99,0.68,19.06,6.24c0.09,0.09,0.19,0.22,0.1,0.41
	C136.27,110.45,136.05,110.65,136,110.64z"/>
<path class="st17" d="M347.84,181.98c0-0.01-0.02-0.03-0.03-0.04c-2.69-3.52-6.4-6.43-10.5-6.46l-0.01,0c-0.13-0.01-0.26-0.01-0.4,0
	c-1.17,0.03-2.37,0.3-3.58,0.88c-0.08,0.04-0.16,0.07-0.24,0.11c-0.09,0.04-0.17,0.08-0.25,0.12c-0.44,0.23-0.87,0.49-1.32,0.8
	c-0.13,0.09-0.26,0.19-0.39,0.28c-0.03,0.02-0.04,0.04-0.07,0.06c-0.12,0.1-0.24,0.19-0.35,0.29c-2.62,2.21-4.23,5.65-3.76,9.39
	c0.09,0.66,0.23,1.3,0.42,1.93c0.07,0.26,0.15,0.52,0.24,0.77c0.34,0.95,0.77,1.86,1.25,2.76l0.01,0.03
	c0.5,0.75,0.96,1.47,1.37,2.15c0.94,1.57,1.65,2.98,2.18,4.22c0.34,0.81,0.59,1.53,0.78,2.19l0.03,0.08
	c0.03,0.11,0.06,0.21,0.08,0.32c0.08,0.3,0.15,0.58,0.2,0.86c0.02,0.06,0.03,0.13,0.05,0.19c0.04,0.21,0.07,0.42,0.1,0.62
	c0.02,0.23,0.06,0.45,0.07,0.68c0.01,0.17,0.02,0.36,0.02,0.53c0,0.04,0.01,0.08,0.01,0.12c-0.01,1.02-0.18,2.03-0.58,2.99
	c-0.05,0.13-0.11,0.26-0.18,0.41c-0.07,0.13-0.14,0.27-0.21,0.39c-0.03,0.05-0.06,0.09-0.1,0.15c-0.07,0.13-0.14,0.25-0.23,0.38
	c-0.11,0.17-0.23,0.34-0.36,0.49c-1.11,1.43-2.63,2.54-4.19,3.49c-7.42,4.54-18.29,8.1-27.1,7.99c-0.87-1.76-5.75,2.5-6.45,3.14
	c-5.54,5.11-4.3,13.6,2.14,17.3c10.57,6.05,26.95-1.73,36.75-6.4c8.33-3.96,15.69-10.05,19.58-18.57c2.08-4.56,2.84-9.23,2.57-13.87
	c-0.01-0.34-0.04-0.68-0.07-1.01c-0.27-3.04-0.96-6.06-1.99-9.01L347.84,181.98z"/>
<path class="st18" d="M353.31,192.76c1.03,2.95,1.71,5.97,1.99,9.01c0.03,0.33,0.05,0.67,0.07,1.01c-3.46,1.64-7.08,3.01-10.71,4.12
	c-2.13,0.66-4.28,1.26-6.46,1.75c-1.83,0.41-4.21,1.19-6.13,1.04c0.13-0.15,0.25-0.32,0.36-0.49c0.08-0.12,0.16-0.24,0.23-0.38
	c1.25-2.33,1.25-4.97,0.5-7.48c-0.7-2.34-1.96-4.46-3.17-6.58c-1.32-2.29-2.71-4.69-3.06-7.34c-0.71-5.73,3.76-11.45,9.58-11.9
	c4.69-0.36,8.62,2.9,11.3,6.41c0,0.01,0.02,0.03,0.03,0.04L353.31,192.76z"/>
<path class="st17" d="M272.2,160.36c-8.25-0.83-16.72,1.3-24.38,7.61c-12.09,9.95-15.32,27.68-16.71,42.43
	c-1.57,16.81-0.24,34.2,5,50.31c5.41,16.6,19.86,30.38,38.31,28.38c11.87-1.29,22.36-9.22,29.02-18.79
	c15.52-22.28,16.93-53.75,7.27-78.57C304.9,176.75,288.96,162.05,272.2,160.36z"/>
<path class="st18" d="M252.82,105.83c0.78-1.23-11.86-6.16-13.1-6.62c-4.18-1.52-8.46-2.77-12.8-3.73
	c-2.01-0.44-8.06-2.47-9.22,0.29c-0.92,2.19-0.32,5.96-0.01,8.2c0.64,4.73,1.77,9.24,3.12,13.82c1.73,5.86,4.47,11.67,7.41,17.04
	c0.92,1.68,1.37,3.66,2.6,5.14C230.81,139.98,252.68,106.06,252.82,105.83z"/>
<path class="st17" d="M282.32,103.82c0,0,26.52,30.81,26.54,30.83c-0.45-0.52,1.9-5.26,2.12-5.89c3.62-10,5.81-20.75,5.88-31.4
	c0.02-2.64,0.25-5.93-1.15-8.29c-1.74-2.94-9.03,0.93-11.25,1.8c-6.83,2.69-13.3,6.15-19.45,10.15c-0.87,0.56-2.43,1.57-2.67,2.65
	C282.33,103.72,282.32,103.77,282.32,103.82z"/>
<path class="st19" d="M309.88,96.38c-0.97-1.14-2.56-0.89-4.34-0.37c-3.66,1.07-7.19,2.53-10.59,4.23c-2.02,1-4.05,1.97-6.01,3.09
	c-0.95,0.54-1.88,1.11-2.77,1.75c-2.78,1.97,2.3,4.76,3.61,5.84c2.62,2.16,4.42,5.12,6.4,7.83c1.47,2.02,2.91,4.06,4.56,5.94
	c1.04,1.19,4.55,5.8,6.28,3.27c0.75-1.09,0.86-2.53,1.07-3.8c0.26-1.56,0.74-3.06,1.1-4.6c0.9-3.82,1.4-7.75,1.67-11.67
	c0.21-3.19,0.53-6.89-0.28-10.04C310.41,97.21,310.18,96.73,309.88,96.38z"/>
<path class="st19" d="M236.97,122.83c0.71-1.44,1.53-2.81,2.53-4.11c1.57-2.04,3.33-3.92,5.12-5.76c0.42-0.44,4.76-5.36,5.05-5.22
	c-2.35-1.1-4.76-2.08-7.18-2.84c-3.8-1.2-7.55-2.2-11.49-2.8c-1.87-0.29-5-0.83-6.84-0.08c-2.1,0.86-0.66,6.24-0.28,8.02
	c0.88,4.19,2.05,8.63,3.58,12.62c0.84,2.2,1.72,4.45,2.68,6.6c0.41,0.93,1.04,2.82,2.38,2.35c1.56-0.54,2.22-3.52,2.75-4.87
	C235.79,125.41,236.34,124.09,236.97,122.83z"/>
<path class="st20" d="M216.78,162.08c2.18,5.25,5.77,10.08,10.92,14.02c3.71,2.84,8.65,5.02,14.33,6.57
	c6.63,1.82,14.26,2.78,22.09,2.95c0,0,0.01,0,0.01,0c6.64,0.15,13.43-0.27,19.86-1.22l0.01,0c7.86-1.16,15.19-3.1,21.09-5.75
	c0.34-0.15,0.67-0.31,1.01-0.47c4.28-2.04,8.37-4.74,11.24-7.74c6.96-7.3,8.96-16.78,8.03-25.93c0-0.03-0.01-0.06-0.01-0.09
	c-0.07-0.72-0.17-1.44-0.27-2.15c-0.16-1.05-0.36-2.1-0.6-3.13c-0.99-4.42-2.6-8.64-4.59-12.36c-1.3-2.43-3.03-4.71-5.11-6.83
	c0,0,0,0,0,0c-1.24-1.26-2.61-2.47-4.09-3.6c0,0,0,0,0-0.01c-6.16-4.72-14.21-8.29-22.95-10.3l0,0c-0.07-0.02-0.14-0.03-0.21-0.05
	c-1.51-0.34-3.04-0.64-4.58-0.89c-1.07-0.17-2.15-0.32-3.24-0.45c-1.82-0.21-3.66-0.35-5.5-0.42c-0.7-0.03-1.39-0.04-2.09-0.05
	c-0.13,0-0.26,0-0.39,0c-0.55,0-1.1,0-1.64,0.01c-0.98,0.02-1.95,0.06-2.92,0.12c-0.87,0.05-1.73,0.12-2.59,0.21
	c-1.35,0.13-2.69,0.31-4.02,0.51c-1.35,0.21-2.69,0.46-4.02,0.75c-0.47,0.1-0.93,0.2-1.4,0.31c-0.69,0.17-1.37,0.33-2.05,0.52l0,0
	c-1.71,0.46-3.4,0.98-5.04,1.55l0,0c-8.26,2.87-15.61,7.14-21.23,12.34l0,0c-1.32,1.22-2.54,2.49-3.66,3.8l0,0
	c-1.68,1.98-3.12,4.05-4.28,6.21c-2.66,4.94-4.24,10.37-4.6,15.84c-0.12,1.79-0.11,3.58,0.03,5.36c0.03,0.43,0.08,0.86,0.13,1.29
	C214.79,156.12,215.57,159.16,216.78,162.08z"/>
<path class="st17" d="M216.27,160.6c0.07,0.18,0.15,0.35,0.23,0.53c7.21,16.3,23.69,21.03,39.97,22.88
	c24.69,2.79,66.01-2.91,68.78-34.27c1.55-17.52-11.86-35.46-27.67-41.92c-23.2-9.48-52.68-6-71.38,11.26
	C214.99,129.42,210.24,146.3,216.27,160.6z"/>
<path class="st18" d="M213.82,151.58c0.37,1.37,0.82,2.72,1.34,4.05c7.17,2.53,15.45,2.97,23.78,0.77
	c20.06-5.31,30.27-23.48,29.37-41.71c-0.27-5.44-0.79-11.87-1.76-11.81c-0.87,0.05-1.73,0.12-2.59,0.21
	c-1.35,0.13-2.69,0.31-4.02,0.51c-1.35,0.21-2.69,0.46-4.02,0.75c-0.47,0.1-0.93,0.2-1.4,0.31c-0.69,0.17-1.37,0.33-2.05,0.52l0,0
	c-1.71,0.46-3.4,0.98-5.04,1.55l0,0c-8.26,2.87-15.61,7.14-21.23,12.34l0,0c-1.32,1.22-2.54,2.49-3.66,3.8l0,0
	c-1.68,1.98-3.12,4.05-4.28,6.21c-2.66,4.94-4.24,10.37-4.6,15.84c-0.12,1.79-0.11,3.58,0.03,5.36
	C213.73,150.72,213.77,151.15,213.82,151.58z"/>
<path class="st16" d="M285.25,147.69c1.55-0.61,2.8-1.61,4.41-2.18c1.91-0.67,3.84-1.48,5.82-1.86c1.45-0.27,9.78-2.07,12.51-2.73
	c0,0,0.01,0,0.01,0c0.77-0.23,0.61-1.45-0.2-1.47c-11.17-0.19-16.72,0.86-22.75,7.53c-0.1,0.11-0.23,0.26-0.12,0.49
	C284.93,147.48,285.19,147.71,285.25,147.69z"/>
<path class="st16" d="M253.18,150.04c-1.65-0.23-3.1-0.92-4.8-1.09c-2.01-0.21-4.08-0.54-6.09-0.45c-1.47,0.07-9.99,0.27-12.8,0.26
	c0,0-0.01,0-0.01,0c-0.8-0.04-0.93-1.27-0.15-1.47c10.81-2.79,16.46-3.06,23.88,2.01c0.12,0.09,0.28,0.2,0.23,0.45
	C253.45,149.76,253.24,150.04,253.18,150.04z"/>
<path class="st3" d="M271.23,160.53c0.45,4.54-3.01,8.54-7.73,8.94c-4.72,0.39-8.92-2.97-9.37-7.52c-0.45-4.54,3-8.54,7.73-8.94
	C266.58,152.63,270.78,155.99,271.23,160.53z"/>
<path class="st3" d="M270.22,160.31c-0.45-4.54,3.01-8.55,7.73-8.94c4.72-0.39,8.92,2.97,9.37,7.52c0.45,4.54-3,8.55-7.73,8.94
	c-3.16,0.26-6.08-1.16-7.81-3.48L270.22,160.31z"/>
<path class="st21" d="M267.88,158.99l-5.41-4.34c-0.87-0.69-0.33-1.97,0.87-2.07l12.64-1.05c1.19-0.1,1.91,1.05,1.19,1.88
	l-4.48,5.18C271.5,159.98,269.34,160.16,267.88,158.99z"/>
<path class="st21" d="M270.57,160.59c0.04,0.39,0.05,0.78,0.02,1.16c-0.1,1.85-0.9,3.53-2.17,4.81c-1.27,1.27-3,2.12-4.98,2.28
	c-0.41,0.03-0.81,0.04-1.2,0.01c-1.92-0.12-3.69-0.9-5.02-2.14c-1.33-1.23-2.23-2.91-2.42-4.81c-0.04-0.35-0.36-0.62-0.73-0.58
	c-0.37,0.03-0.64,0.34-0.6,0.69c0.22,2.22,1.27,4.18,2.83,5.62c1.56,1.44,3.62,2.36,5.87,2.5c0.46,0.03,0.93,0.02,1.4-0.01
	c2.3-0.19,4.34-1.18,5.82-2.67c1.48-1.48,2.42-3.46,2.54-5.62c0.03-0.44,0.02-0.89-0.03-1.35c-0.04-0.35-0.36-0.62-0.73-0.58
	C270.8,159.93,270.53,160.24,270.57,160.59L270.57,160.59z"/>
<path class="st21" d="M286.66,158.94c0.04,0.39,0.05,0.78,0.03,1.16c-0.1,1.85-0.9,3.53-2.17,4.8c-1.27,1.27-3,2.12-4.98,2.28
	c-0.41,0.03-0.81,0.04-1.2,0.01c-2.44-0.15-4.63-1.38-6-3.23c-0.22-0.29-0.63-0.36-0.93-0.16c-0.3,0.2-0.37,0.6-0.15,0.89
	c1.6,2.16,4.16,3.59,7.01,3.77c0.46,0.03,0.93,0.02,1.4-0.01c2.31-0.19,4.34-1.18,5.82-2.67c1.48-1.48,2.42-3.46,2.54-5.62
	c0.03-0.44,0.02-0.89-0.03-1.35c-0.04-0.35-0.36-0.62-0.73-0.58C286.89,158.28,286.62,158.59,286.66,158.94L286.66,158.94z"/>
<path class="st21" d="M272.08,163.69l-0.37-3.7c-0.04-0.35-0.36-0.62-0.73-0.58c-0.37,0.03-0.64,0.34-0.6,0.7l0.37,3.7
	c0.04,0.35,0.36,0.62,0.73,0.58C271.85,164.35,272.12,164.04,272.08,163.69L272.08,163.69z"/>
<path class="st20" d="M232.46,273.45c0.24,3.44,0.69,6.88,1.38,10.17c1.19,5.66,3.1,10.84,5.92,14.72c1.83,2.51,4.25,4.47,6.62,5.67
	c6.06,3.07,14.33,2.55,21.44-0.95l0,0c0.89-0.44,1.76-0.92,2.6-1.45c0.16-0.1,0.32-0.2,0.48-0.31c4.32-2.82,7.94-6.85,9.96-11.92
	c1.27-3.19,2.13-6.68,2.61-10.31c0.19-1.43,0.33-2.88,0.4-4.35c0,0,0,0,0,0c0.09-1.64,0.11-3.3,0.06-4.96l0,0
	c-0.03-1.21-0.1-2.43-0.2-3.64c-0.05-0.65-0.12-1.29-0.19-1.94l0,0c-0.15-1.37-0.35-2.74-0.58-4.09c0-0.03-0.01-0.05-0.01-0.08
	c-0.5-2.88-1.19-5.69-2.03-8.35c-0.25-0.8-0.52-1.59-0.8-2.36c-0.45-1.23-0.93-2.43-1.44-3.57c-0.06-0.14-0.12-0.27-0.19-0.41
	c-0.36-0.78-0.74-1.54-1.14-2.27c-0.98-1.8-2.08-3.46-3.28-4.96c-1.28-1.61-2.67-3.03-4.13-4.26l-0.01-0.01l0,0
	c-4.44-3.7-9.61-5.57-14.71-5.03c-0.6,0.06-1.2,0.16-1.8,0.29c-1.21,0.26-2.4,0.67-3.57,1.22c-2.25,1.04-4.4,2.57-6.38,4.5
	c-0.54,0.53-1.07,1.08-1.58,1.67c-2.38,2.7-4.44,6-6.03,9.69c0,0,0,0,0,0c-1.59,3.7-2.69,7.8-3.14,12.1
	C232.22,262.9,232.09,268.17,232.46,273.45z"/>
<path class="st20" d="M273.15,345.21c-0.33,0.22-0.71,0.42-1.13,0.58c-0.67,0.28-1.45,0.5-2.32,0.65c-0.57,0.09-1.17,0.14-1.83,0.15
	c-0.43,0.03-0.9,0.03-1.38,0.01c-0.14,0-0.29-0.01-0.44-0.02c-2.98-0.16-5.58-2.1-6.68-4.9c-1.02-2.6-2.64-6.44-5.11-11.6
	c-5.12-10.74-13.01-14.67-15.29-18.07c-1.59-2.36-1.29-10.86-0.94-15.88c0.01-0.15,0.01-0.3,0.02-0.45
	c0.16-1.99,0.29-3.34,0.29-3.34s6.35-12.86,13.65-13.87c3.86-0.53,7.99,2.25,11.59,12.01c0,0-1.48,5.07-0.23,13.09
	c0.05,0.4,0.13,0.8,0.21,1.19c1.05,5.74,3.51,12.82,8.76,20.58c0,0,4.64,8.46,3.87,14.71c-0.09,0.73-0.26,1.42-0.51,2.07
	C275.19,343.35,274.39,344.43,273.15,345.21z"/>
<path class="st17" d="M230.93,272.46c0.54,6.3,1.95,12.22,4.02,16.96c5.09,11.63,18.06,19.16,30.49,13.71
	c16.97-7.43,21-28.97,17.26-45.39c-3.18-13.95-13.25-34.31-30.86-29.19C234.83,233.49,229.38,254.49,230.93,272.46z"/>
<path class="st17" d="M272.99,344.77c-0.3,0.28-0.66,0.53-1.05,0.76c-0.63,0.37-1.37,0.68-2.23,0.9c-0.04,0-0.07,0-0.11,0.02
	c-0.51,0.12-1.07,0.21-1.67,0.27c-0.43,0.05-0.88,0.07-1.34,0.08c-0.53,0.01-1.09,0-1.69-0.03c-3.03-0.17-5.68-2.14-6.83-4.95
	c-1.04-2.61-2.73-6.47-5.25-11.65c-5.26-10.79-13.3-14.76-15.63-18.19c-2.01-2.94-1.12-15.36-0.83-18.82
	c0.03-0.49,0.07-0.8,0.07-0.89c0.01-0.01,0.01-0.01,0.01-0.01s7.42-14.95,15.55-13.81c0.01-0.01,0.02,0,0.02,0
	c3.39,0.48,6.9,3.75,10.06,12.09c0,0-1.53,5.2-0.1,13.44c0.05,0.38,0.13,0.77,0.21,1.17c1.13,5.7,3.67,12.7,8.97,20.37
	c0,0,3.71,6.62,4.05,12.49l0.01,0.01c0.06,0.92,0.02,1.82-0.12,2.68C274.84,342.28,274.18,343.7,272.99,344.77z"/>
<path class="st20" d="M283.12,261.28c0.24,3.44,0.69,6.88,1.38,10.17c1.19,5.66,3.1,10.84,5.92,14.72c1.83,2.51,4.25,4.47,6.62,5.67
	c6.06,3.07,14.33,2.55,21.44-0.95l0,0c0.89-0.44,1.76-0.92,2.6-1.45c0.16-0.1,0.32-0.2,0.48-0.31c4.32-2.82,7.94-6.85,9.96-11.92
	c1.27-3.19,2.13-6.68,2.61-10.31c0.19-1.43,0.33-2.88,0.4-4.35c0,0,0,0,0,0c0.09-1.64,0.11-3.3,0.06-4.96l0,0
	c-0.03-1.21-0.1-2.43-0.2-3.64c-0.05-0.65-0.12-1.29-0.19-1.94l0,0c-0.15-1.37-0.35-2.74-0.58-4.09c0-0.03-0.01-0.05-0.01-0.08
	c-0.5-2.88-1.19-5.69-2.03-8.35c-0.25-0.8-0.52-1.59-0.8-2.36c-0.45-1.23-0.93-2.43-1.44-3.57c-0.06-0.14-0.12-0.27-0.19-0.41
	c-0.36-0.78-0.74-1.54-1.14-2.27c-0.98-1.8-2.08-3.46-3.28-4.96c-1.28-1.61-2.67-3.03-4.13-4.26l-0.01-0.01l0,0
	c-4.44-3.7-9.61-5.57-14.71-5.03c-0.6,0.06-1.2,0.16-1.8,0.29c-1.21,0.26-2.4,0.67-3.57,1.22c-2.25,1.04-4.4,2.57-6.38,4.5
	c-0.54,0.53-1.07,1.08-1.58,1.67c-2.38,2.7-4.44,6-6.03,9.69c0,0,0,0,0,0c-1.59,3.7-2.69,7.8-3.14,12.1
	C282.87,250.73,282.75,255.99,283.12,261.28z"/>
<path class="st20" d="M323.81,333.03c-0.33,0.22-0.71,0.42-1.13,0.58c-0.67,0.28-1.45,0.5-2.32,0.65c-0.57,0.09-1.17,0.14-1.83,0.15
	c-0.43,0.03-0.9,0.03-1.38,0.01c-0.14,0-0.29-0.01-0.44-0.02c-2.98-0.16-5.58-2.1-6.68-4.9c-1.02-2.6-2.64-6.44-5.11-11.6
	c-5.12-10.74-13.01-14.67-15.29-18.07c-1.59-2.36-1.29-10.86-0.94-15.88c0.01-0.15,0.01-0.3,0.02-0.45
	c0.16-1.99,0.29-3.34,0.29-3.34s6.35-12.86,13.65-13.87c3.86-0.53,7.99,2.25,11.59,12.01c0,0-1.48,5.07-0.23,13.09
	c0.05,0.4,0.13,0.8,0.21,1.19c1.05,5.74,3.51,12.82,8.76,20.58c0,0,4.64,8.46,3.87,14.71c-0.09,0.73-0.26,1.42-0.51,2.07
	C325.85,331.17,325.05,332.25,323.81,333.03z"/>
<path class="st17" d="M281.59,260.29c0.54,6.3,1.95,12.22,4.02,16.96c5.09,11.63,18.06,19.16,30.49,13.71
	c16.97-7.43,21-28.97,17.26-45.39c-3.18-13.95-13.25-34.31-30.86-29.19C285.49,221.32,280.03,242.31,281.59,260.29z"/>
<path class="st17" d="M323.65,332.6c-0.3,0.28-0.66,0.53-1.05,0.76c-0.63,0.37-1.37,0.68-2.23,0.9c-0.04,0-0.07,0-0.11,0.02
	c-0.51,0.12-1.07,0.21-1.67,0.27c-0.43,0.05-0.88,0.07-1.34,0.08c-0.53,0.01-1.09,0-1.69-0.03c-3.03-0.17-5.68-2.14-6.83-4.95
	c-1.04-2.61-2.73-6.47-5.25-11.65c-5.26-10.79-13.3-14.76-15.63-18.19c-2.01-2.94-1.12-15.36-0.83-18.82
	c0.03-0.49,0.07-0.8,0.07-0.89c0.01-0.01,0.01-0.01,0.01-0.01s7.42-14.95,15.55-13.81c0.01-0.01,0.02,0,0.02,0
	c3.39,0.48,6.9,3.75,10.06,12.09c0,0-1.53,5.2-0.1,13.44c0.05,0.38,0.13,0.77,0.21,1.17c1.13,5.7,3.67,12.7,8.97,20.37
	c0,0,3.71,6.62,4.05,12.49l0.01,0.01c0.06,0.92,0.02,1.82-0.12,2.68C325.5,330.11,324.84,331.53,323.65,332.6z"/>
<path class="st17" d="M293.59,227.16l-8.6,26.53c0,0,20.81,1.41,22.83-0.72C309.84,250.84,293.59,227.16,293.59,227.16z"/>
<ellipse class="st22" cx="214.76" cy="381.61" rx="163" ry="17.98"/>
<path class="st3" d="M216.68,195.76c-6.33,0-12.14,1.88-16.74,5.02c0.11-0.83,0.16-1.68,0.16-2.53c0-12.76-12.05-23.09-26.91-23.09
	c-9.26,0-17.43,4.02-22.27,10.13c-1.92-3.33-5.67-5.59-9.98-5.59c-4.96,0-9.17,3-10.71,7.17c-0.75-0.05-1.51-0.09-2.28-0.09
	c-3.23,0-6.26,0.49-8.9,1.34c0.09-0.44,0.15-0.89,0.15-1.34c0-5.89-8.2-10.67-18.32-10.67c-10.12,0-18.31,4.78-18.31,10.67
	c0,0.65,0.1,1.28,0.29,1.89c-0.9-0.06-1.82-0.1-2.75-0.1c-12.68,0-22.96,5.99-22.96,13.38c0,6.18,7.19,11.38,16.97,12.92
	c-0.01,0.15-0.02,0.31-0.02,0.46c0,5.89,8.2,10.67,18.32,10.67c5.63,0,10.66-1.48,14.02-3.81c2.13,1.75,5.13,3.11,8.65,3.87
	c3.24,9.64,13.58,16.69,25.86,16.69c14.38,0,26.13-9.68,26.87-21.86c1.74,0.3,3.54,0.46,5.38,0.46c6.33,0,12.14-1.88,16.74-5.02
	c-0.11,0.83-0.16,1.68-0.16,2.53c0,12.76,12.05,23.09,26.91,23.09c14.86,0,26.91-10.34,26.91-23.09
	C243.6,206.1,231.55,195.76,216.68,195.76z"/>
<path class="st3" d="M383.87,178.23c0-13.1-12.37-23.72-27.64-23.72c-13.8,0-25.23,8.68-27.3,20.02
	c-10.42,3.4-17.82,12.04-17.82,22.17c0,13.1,12.37,23.72,27.64,23.72c13.8,0,25.23-8.68,27.3-20.02
	C376.46,197.01,383.87,188.37,383.87,178.23z"/>
<path class="st23" d="M139.77,357.26v23.37c0,4.23-3.44,7.67-7.67,7.67c-4.23,0-7.66-3.44-7.66-7.67v-23.37
	c0-4.23,3.43-7.66,7.66-7.66c2.12,0,4.03,0.86,5.42,2.24C138.91,353.23,139.77,355.15,139.77,357.26z"/>
<path class="st23" d="M294.49,357.26v23.37c0,4.23-3.43,7.67-7.66,7.67c-4.23,0-7.67-3.44-7.67-7.67v-23.37
	c0-4.23,3.44-7.66,7.67-7.66c2.12,0,4.03,0.86,5.42,2.24C293.63,353.23,294.49,355.15,294.49,357.26z"/>
<path class="st24" d="M137.52,351.85c1.39,1.39,2.25,3.31,2.25,5.42v20.4c-5.28-0.98-10.4-2.4-15.33-4.23v-16.18
	c0-4.23,3.43-7.66,7.66-7.66C134.22,349.6,136.13,350.46,137.52,351.85z"/>
<path class="st24" d="M294.49,357.26v16.18c-4.93,1.82-10.05,3.24-15.33,4.23v-20.4c0-4.23,3.44-7.66,7.67-7.66
	c2.12,0,4.03,0.86,5.42,2.24C293.63,353.23,294.49,355.15,294.49,357.26z"/>
<path class="st25" d="M367.21,204.16c-1.99,0-3.82,6.6-5.29,14.61c-2.06,11.29-3.43,25.4-3.56,27.74c-1.1,19.46,5,39.13,1.27,58.49
	c-10.07,52.44-80.63,67.72-124.66,70.8c-35.36,2.47-71.21-1.18-98.15-7.2c-34.87-7.8-75.58-30.66-81.22-69.12
	c-2.55-17.47,6.12-32.42,6.85-49.55c0.09-2.22-0.55-9.4-1.84-16.98c-0.75-4.4-1.72-8.93-2.91-12.69c-1.62-5.17-3.64-8.9-6.02-8.9
	h47.54c29.12,7.87,69,15.7,111.66,15.69c26.71,0,54.49-3.06,81.47-10.98c10.08-2.96,20.06-6.59,29.83-11
	c8.06-0.55,16.1-0.96,24.15-1.11c6.7-0.13,13.4-0.1,20.09,0.18C366.68,204.14,366.94,204.14,367.21,204.16z"/>
<path class="st24" d="M367.21,204.16c-1.99,0-3.82,6.6-5.29,14.61c-20.37,13.21-41.91,22.59-63.7,28.98
	c-29.3,8.59-59.05,11.82-87.34,11.82c-45.27-0.01-86.85-8.24-117.24-16.44c-13.41-3.62-24.64-7.26-33.03-10.18
	c-0.75-4.4-1.72-8.93-2.91-12.69c-1.62-5.17-3.64-8.9-6.02-8.9h10.54c0.71,0.26,1.46,0.54,2.24,0.82
	c8.18,2.93,20.05,6.87,34.62,10.81c0.04,0.01,0.09,0.03,0.13,0.04c29.12,7.87,69,15.7,111.66,15.69c26.71,0,54.49-3.06,81.47-10.98
	c10.08-2.96,20.06-6.59,29.83-11c8.2-3.7,16.27-7.94,24.15-12.78c6.7-0.13,13.4-0.1,20.09,0.18
	C366.68,204.14,366.94,204.14,367.21,204.16z"/>
<path class="st25" d="M382.5,192.1c-5.27,4.31-10.63,8.32-16.09,12.04c-21.68,14.78-44.8,25.09-68.19,31.96
	c-29.3,8.59-59.05,11.82-87.34,11.82c-45.27-0.01-86.85-8.24-117.24-16.44c-15.03-4.06-27.32-8.13-35.94-11.21
	c-8.81-3.15-13.8-5.28-13.97-5.36c-5.29-2.28-7.75-8.41-5.48-13.71c2.27-5.29,8.4-7.75,13.7-5.48h0.01l0.02,0.01l0.13,0.06
	c0.12,0.04,0.31,0.13,0.57,0.24c0.53,0.22,1.33,0.54,2.4,0.96c2.13,0.84,5.29,2.05,9.38,3.53c8.18,2.93,20.05,6.87,34.62,10.81
	c0.04,0.01,0.09,0.03,0.13,0.04c29.12,7.87,69,15.7,111.66,15.69c26.71,0,54.49-3.06,81.47-10.98c10.08-2.96,20.06-6.59,29.83-11
	c16.38-7.38,32.22-16.93,47.11-29.12c4.46-3.65,11.03-3,14.69,1.47C387.62,181.88,386.96,188.45,382.5,192.1z"/>
<ellipse class="st3" cx="174.81" cy="218.15" rx="25.33" ry="21.74"/>
<ellipse class="st3" cx="141.57" cy="218.15" rx="12.41" ry="11.67"/>
<path class="st3" d="M183.95,219.69c-3.9,7.6,0.12,17.44,8.98,21.98c8.86,4.54,19.19,2.06,23.09-5.54c3.9-7.6-0.12-17.44-8.98-21.98
	C198.18,209.61,187.84,212.09,183.95,219.69z"/>
<path class="st3" d="M213.16,234.68c-2.09,4.08-0.27,9.19,4.07,11.42c4.34,2.22,9.55,0.72,11.65-3.36
	c2.09-4.08,0.27-9.19-4.07-11.42C220.47,229.09,215.26,230.59,213.16,234.68z"/>
<path class="st20" d="M269.57,221.15c-0.01-0.01-0.02-0.02-0.02-0.03c-0.21-2.59-1.32-5.43-3.22-8.07
	c-1.02-1.42-2.27-2.79-3.72-4.03c-6.63-5.67-15.07-6.69-18.85-2.27c-3.78,4.42-1.47,12.6,5.17,18.27c0.42,0.36,0.85,0.7,1.29,1.03
	c4.16,3.08,8.83,4.43,12.56,3.86c0.37-0.05,0.72-0.13,1.07-0.22c1.1-0.29,2.1-0.77,2.94-1.44c0.26-0.21,0.51-0.43,0.74-0.68
	c0.09-0.09,0.17-0.18,0.25-0.28c0.58-0.67,1.01-1.44,1.31-2.26c0.14-0.39,0.25-0.79,0.33-1.2
	C269.48,223.48,269.82,221.49,269.57,221.15z"/>
<path class="st26" d="M-170.22,216.49c0.42,0.36,0.85,0.7,1.29,1.03c4.16,3.08,8.83,4.43,12.56,3.86c0.37-0.05,0.72-0.13,1.07-0.22
	c1.1-0.29,2.1-0.77,2.94-1.45c0.26-0.21,0.51-0.43,0.74-0.68c0.09-0.09,0.17-0.18,0.25-0.28c0.58-0.67,1.01-1.44,1.31-2.26
	c0.14-0.39,0.25-0.79,0.33-1.2c0.63-3.22-0.5-7.17-3.09-10.77c-1.02-1.42-2.27-2.79-3.72-4.03c-6.63-5.67-15.07-6.69-18.85-2.27
	C-179.16,202.64-176.85,210.82-170.22,216.49z"/>
<path class="st3" d="M249.76,225.05c4.16,3.08,8.83,4.43,12.56,3.86c0.37-0.05,0.72-0.13,1.07-0.22c1.1-0.29,2.1-0.77,2.94-1.45
	c0.26-0.21,0.51-0.43,0.74-0.68c0.09-0.09,0.17-0.18,0.25-0.28c0.58-0.67,1.01-1.44,1.31-2.26c0.14-0.39,0.25-0.79,0.33-1.2
	c0.63-3.22-0.5-7.17-3.09-10.77c-3.49,0.03-7.09,1.22-10.14,3.63C252.58,218.18,250.55,221.54,249.76,225.05z"/>
<path class="st16" d="M265.62,226.25c0.23,0.31,0.46,0.62,0.71,1c0.26-0.21,0.51-0.43,0.74-0.68c-0.23-0.34-0.44-0.63-0.66-0.91
	c-0.29-0.39-0.59-0.77-0.95-1.26c-0.08-0.12-0.18-0.24-0.28-0.37c-0.54-0.69-1.31-1.54-1.81-2.08c-0.19-0.2-0.5-0.22-0.7-0.03
	c-0.2,0.18-0.22,0.5-0.03,0.7c0.49,0.54,1.25,1.39,1.76,2.03c0.1,0.12,0.18,0.23,0.26,0.34
	C265.04,225.49,265.34,225.87,265.62,226.25z"/>
<path class="st16" d="M268.45,223.78c0.06,0.08,0.12,0.16,0.19,0.25c0.14-0.39,0.25-0.79,0.33-1.2c-0.21-0.27-0.42-0.55-0.67-0.9
	c-0.08-0.12-0.18-0.24-0.28-0.37c-0.54-0.69-1.31-1.54-1.81-2.08c-0.18-0.2-0.49-0.22-0.7-0.03c-0.2,0.19-0.22,0.5-0.03,0.7
	c0.49,0.54,1.25,1.39,1.76,2.03c0.09,0.12,0.18,0.23,0.25,0.33C267.86,223.02,268.16,223.41,268.45,223.78z"/>
<path class="st16" d="M262.29,228.88c0.01,0.01,0.02,0.03,0.03,0.04c0.37-0.05,0.72-0.13,1.07-0.22c-0.1-0.14-0.2-0.28-0.3-0.41
	c-0.29-0.39-0.59-0.77-0.94-1.26c-0.08-0.12-0.18-0.24-0.28-0.37c-0.54-0.69-1.31-1.54-1.81-2.08c-0.19-0.2-0.5-0.22-0.7-0.03
	c-0.2,0.19-0.22,0.5-0.03,0.7c0.49,0.54,1.25,1.39,1.76,2.03c0.09,0.12,0.18,0.23,0.25,0.33
	C261.71,228.12,262.01,228.5,262.29,228.88z"/>
<path class="st20" d="M284.72,218.87c0-0.01,0.01-0.02,0.01-0.03c-0.32-2.31,0.11-5.01,1.27-7.69c0.62-1.44,1.45-2.87,2.49-4.25
	c4.72-6.24,11.92-8.75,16.07-5.61c4.16,3.14,3.7,10.75-1.02,16.99c-0.3,0.4-0.61,0.78-0.93,1.15c-3.05,3.5-6.88,5.57-10.26,5.79
	c-0.33,0.02-0.66,0.03-0.98,0.01c-1.02-0.05-1.98-0.27-2.86-0.7c-0.27-0.13-0.53-0.28-0.78-0.45c-0.09-0.06-0.18-0.13-0.27-0.2
	c-0.63-0.48-1.16-1.06-1.58-1.73c-0.2-0.31-0.37-0.64-0.52-0.99C285.25,220.89,284.57,219.21,284.72,218.87z"/>
<path class="st18" d="M304.34,216.12c-0.32,0.45-0.66,0.88-1,1.29c-3.27,3.94-7.27,6.38-10.73,6.76c-0.34,0.04-0.67,0.06-1,0.05
	c-1.04-0.01-2.01-0.21-2.89-0.64c-0.27-0.13-0.53-0.28-0.77-0.46c-0.09-0.06-0.18-0.13-0.27-0.2c-0.63-0.49-1.14-1.11-1.54-1.82
	c-0.19-0.33-0.35-0.68-0.49-1.06c-1.08-2.89-0.68-6.9,1.09-10.95c0.7-1.6,1.61-3.2,2.73-4.74c5.09-7.01,12.55-10.06,16.66-6.81
	C310.23,200.8,309.44,209.11,304.34,216.12z"/>
<path class="st3" d="M303.34,217.41c-3.27,3.94-7.27,6.38-10.73,6.76c-0.34,0.04-0.67,0.06-1,0.05c-1.04-0.01-2.01-0.21-2.89-0.64
	c-0.27-0.13-0.53-0.28-0.77-0.46c-0.09-0.06-0.18-0.13-0.27-0.2c-0.63-0.49-1.14-1.11-1.54-1.82c-0.19-0.33-0.35-0.68-0.49-1.06
	c-1.08-2.89-0.68-6.9,1.09-10.95c3.16-0.84,6.59-0.6,9.73,0.93C299.71,211.61,302.08,214.28,303.34,217.41z"/>
<path class="st16" d="M289.21,222.47c-0.16,0.35-0.32,0.7-0.48,1.12c-0.27-0.13-0.53-0.28-0.77-0.46c0.16-0.38,0.3-0.71,0.45-1.03
	c0.2-0.44,0.41-0.87,0.65-1.43c0.06-0.13,0.12-0.27,0.19-0.42c0.38-0.78,0.94-1.78,1.3-2.42c0.14-0.24,0.41-0.33,0.63-0.2
	c0.21,0.12,0.27,0.42,0.14,0.65c-0.36,0.63-0.91,1.62-1.27,2.36c-0.07,0.14-0.13,0.27-0.18,0.38
	C289.62,221.6,289.41,222.04,289.21,222.47z"/>
<path class="st16" d="M286.27,220.83c-0.04,0.09-0.08,0.18-0.13,0.28c-0.19-0.33-0.35-0.68-0.49-1.06c0.14-0.31,0.29-0.63,0.46-1.02
	c0.06-0.13,0.12-0.27,0.19-0.42c0.38-0.78,0.94-1.78,1.3-2.42c0.13-0.24,0.41-0.33,0.63-0.21c0.21,0.13,0.27,0.42,0.14,0.65
	c-0.36,0.63-0.91,1.62-1.27,2.36c-0.07,0.14-0.13,0.26-0.18,0.38C286.68,219.96,286.47,220.4,286.27,220.83z"/>
<path class="st16" d="M292.63,224.13c-0.01,0.01-0.01,0.03-0.02,0.04c-0.34,0.04-0.67,0.06-1,0.05c0.07-0.16,0.14-0.31,0.21-0.46
	c0.2-0.44,0.41-0.87,0.65-1.43c0.06-0.13,0.12-0.27,0.19-0.42c0.38-0.78,0.94-1.78,1.3-2.42c0.14-0.24,0.41-0.33,0.63-0.21
	c0.21,0.13,0.27,0.42,0.14,0.65c-0.36,0.63-0.91,1.62-1.27,2.36c-0.07,0.14-0.13,0.27-0.18,0.38
	C293.04,223.26,292.83,223.7,292.63,224.13z"/>
</svg>
