<svg width="43" height="43" viewBox="0 0 43 43" fill="none" xmlns="http://www.w3.org/2000/svg">
<path d="M21.9391 38.1581C31.1474 38.1581 38.6122 30.6933 38.6122 21.485C38.6122 12.2768 31.1474 4.81201 21.9391 4.81201C12.7309 4.81201 5.26611 12.2768 5.26611 21.485C5.26611 30.6933 12.7309 38.1581 21.9391 38.1581Z" fill="#E38CA8"/>
<path d="M15.6233 38.1001L30.2517 35.725C31.1114 35.5855 31.7003 34.7683 31.5608 33.9085L27.0892 6.36915C26.9497 5.50937 26.1325 4.92048 25.2727 5.06002L10.6443 7.43512C9.78452 7.57466 9.19563 8.39187 9.33517 9.25166L13.8067 36.791C13.9463 37.6508 14.7635 38.2397 15.6233 38.1001Z" fill="#838999"/>
<path d="M9.9139 9.88045L10.2138 9.83165C10.3314 9.81251 10.4121 9.70071 10.3929 9.58289L10.391 9.57107C10.3719 9.45346 10.2601 9.37284 10.1422 9.39197L9.84231 9.44078C9.7247 9.45991 9.64408 9.57171 9.66321 9.68953L9.66515 9.70136C9.68428 9.81896 9.79608 9.89959 9.9139 9.88045Z" fill="#9A9FAC"/>
<path d="M10.0763 10.8812L10.3762 10.8326C10.4938 10.8135 10.5744 10.7017 10.5553 10.5839L10.5533 10.572C10.5342 10.4544 10.4224 10.3738 10.3046 10.3929L10.0047 10.4415C9.88705 10.4607 9.80643 10.5725 9.82556 10.6903L9.8275 10.7021C9.84663 10.8195 9.95865 10.9001 10.0763 10.8812Z" fill="#9A9FAC"/>
<path d="M31.647 35.498L17.0184 37.8727C16.1584 38.0124 15.3414 37.4233 15.2016 36.5644L10.7307 9.02503C10.591 8.16503 11.1801 7.34803 12.0401 7.20828L26.6676 4.83253C27.5276 4.69278 28.3446 5.28188 28.4843 6.14188L30.5032 18.5721L30.5118 18.6237L30.8633 20.7909L30.8784 20.8877L31.6707 25.7639V25.766L32.9563 33.6812C33.0961 34.5412 32.507 35.3582 31.647 35.498Z" fill="#DDDFE3"/>
<path d="M31.6706 25.7637V25.7658C31.4717 26.0647 31.2535 26.3539 31.0052 26.6323C30.2441 27.4826 28.6896 28.3727 27.5136 28.8941C27.2932 28.9919 27.0761 29.0629 26.8664 29.1005C26.1784 29.222 25.8764 28.42 25.8366 27.6062C25.8269 27.4439 25.8301 27.2827 25.8409 27.1257C25.8559 26.9279 25.9247 26.7548 26.0247 26.5979C26.2795 26.198 26.746 25.9024 27.0793 25.5852C27.548 25.1391 27.993 24.6704 28.4134 24.1791C29.2261 23.2353 29.9463 22.2151 30.5644 21.1326C30.0248 20.9939 29.7464 20.3661 29.7367 19.8028C29.7313 19.4986 29.9786 18.7536 30.5118 18.6235L30.8633 20.7907L30.8783 20.8875L31.6706 25.7637Z" fill="#B2937D"/>
<path d="M25.7095 36.4624L17.019 37.8734C16.1592 38.0129 15.342 37.424 15.2025 36.5643L10.7309 9.02491C10.5914 8.16513 11.1803 7.34791 12.0401 7.20838L17.004 6.40234L25.7095 36.4624Z" fill="#A5AAB6"/>
<path d="M21.0828 35.9696L21.0103 35.5233C20.9516 35.1621 21.1993 34.8185 21.5605 34.7598L26.3533 33.9818C26.7145 33.9231 27.0581 34.1707 27.1168 34.5319L27.1892 34.9783C27.2479 35.3395 27.0002 35.6831 26.639 35.7417L21.8462 36.5198C21.485 36.5785 21.1415 36.3311 21.0828 35.9696Z" fill="#838999"/>
<path d="M15.2823 34.7018L11.1736 9.39807C11.1269 9.11126 11.3235 8.83864 11.6103 8.7922L27.5764 6.19973C27.8632 6.15307 28.1358 6.34958 28.1823 6.63639L32.2907 31.9402C32.3373 32.227 32.1408 32.4996 31.854 32.546L15.8879 35.1385C15.6013 35.1849 15.3287 34.9887 15.2823 34.7018Z" fill="#9A9FAC"/>
<path d="M31.5212 32.2376L29.6256 32.5453L29.3555 32.5885L20.0892 34.0933L19.6997 34.1571L16.1066 34.7404C15.8286 34.786 15.5633 34.5946 15.5188 34.3167L11.5189 9.68819C11.4744 9.4102 11.6647 9.14489 11.9437 9.10038L27.3571 6.59757C27.6362 6.55199 27.9004 6.74226 27.946 7.02133L31.9446 31.6498C31.9906 31.9278 31.799 32.1931 31.5212 32.2376Z" fill="#FFEDF9"/>
<path d="M21.3484 35.8105L21.3127 35.5902C21.2648 35.2954 21.4669 35.015 21.7616 34.9671L26.2278 34.2419C26.5226 34.194 26.8029 34.3961 26.8509 34.6908L26.8866 34.9112C26.9345 35.206 26.7324 35.4863 26.4377 35.5343L21.9715 36.2595C21.6767 36.3074 21.3963 36.1053 21.3484 35.8105Z" fill="white"/>
<path d="M13.4769 10.4484C13.6949 10.137 13.6193 9.70786 13.3079 9.48984C12.9965 9.27182 12.5674 9.3475 12.3494 9.65887C12.1313 9.97024 12.207 10.3994 12.5184 10.6174C12.8297 10.8354 13.2589 10.7598 13.4769 10.4484Z" fill="#B2937D"/>
<path d="M13.2977 10.2953C13.4311 10.0828 13.3669 9.80241 13.1544 9.66906C12.9418 9.5357 12.6614 9.59989 12.5281 9.81243C12.3947 10.025 12.4589 10.3054 12.6715 10.4387C12.884 10.5721 13.1644 10.5079 13.2977 10.2953Z" fill="#414042"/>
<path d="M13.0477 10.2059C12.9144 10.2276 12.7889 10.1371 12.7674 10.0038C12.7457 9.87049 12.8362 9.74493 12.9695 9.72343C13.1028 9.70172 13.2283 9.79223 13.2498 9.92553C13.2713 10.0586 13.1808 10.1842 13.0477 10.2059Z" fill="white"/>
<path d="M35.1887 20.7586C35.0975 20.9945 34.8754 21.1493 34.6658 21.2895C34.348 21.5025 34.0313 21.7156 33.7134 21.9287C33.5745 22.0209 33.4332 22.1166 33.3261 22.2453C33.2294 22.3638 33.1645 22.5061 33.1006 22.6452C32.5332 23.8802 31.8839 25.0945 30.9818 26.105C30.2209 26.956 28.9483 28.2297 27.7727 28.7515C27.5527 28.8495 27.3352 28.92 27.1255 28.9576C26.4375 29.0796 26.1357 28.2776 26.0957 27.463C26.0867 27.3013 26.0888 27.1394 26.1002 26.9833C26.115 26.7851 26.1834 26.612 26.2836 26.4546C26.5388 26.0547 27.0047 25.7597 27.3386 25.442C27.8069 24.9965 28.2521 24.5271 28.6727 24.0361C29.485 23.0929 30.2061 22.0721 30.8235 20.9897C30.2835 20.8509 30.0055 20.2231 29.9964 19.6604C29.9906 19.354 30.0842 18.9928 30.369 18.8903C30.5763 18.815 30.8132 18.9154 30.9648 19.076C31.1164 19.2377 31.1996 19.4497 31.2804 19.6559C31.3522 19.2663 31.4341 18.855 31.6973 18.5611C31.9605 18.2683 32.4719 18.1646 32.7375 18.4564C32.9574 18.6978 32.9129 19.0625 32.8241 19.3895C32.9824 18.9976 33.4973 18.7744 33.8802 18.9657C34.279 19.165 34.41 19.7552 34.1571 20.1175C34.3394 19.9182 34.6596 19.8533 34.8999 19.9808C35.1659 20.1207 35.2981 20.4761 35.1887 20.7586Z" fill="white"/>
<path d="M29.3554 32.5883L27.4314 32.9005L21.7809 33.8188L20.0891 34.0933L19.6995 34.1572C19.6791 34.0363 19.6619 33.9168 19.6471 33.7994C19.614 33.5352 19.5901 33.2697 19.5776 33.0043C19.5378 32.2604 19.5742 31.512 19.6858 30.775C19.8122 29.9378 20.0356 29.1163 20.3533 28.3326C20.4127 28.1856 20.4752 28.0387 20.5436 27.8951C20.5995 27.7766 20.6576 27.6592 20.7201 27.5442C20.7668 27.4576 20.8147 27.3722 20.8659 27.289C20.9502 27.1488 21.0413 27.0134 21.1394 26.8822C21.4139 26.5165 21.7465 26.1964 22.1181 25.9321C22.8015 25.4469 23.6162 25.1495 24.4499 25.1005C24.7963 25.0788 25.1506 25.1016 25.4729 25.2269C25.8148 25.3602 26.088 25.62 26.366 25.8614C26.4686 25.9502 26.5677 26.0437 26.6644 26.1428C26.71 26.1895 26.7545 26.2361 26.7988 26.2852C26.9276 26.4288 27.0517 26.578 27.1701 26.7362C27.1781 26.7476 27.1873 26.7601 27.1964 26.7715C27.569 27.275 27.8856 27.8459 28.1533 28.4393C28.2159 28.5781 28.2763 28.7183 28.3333 28.8596C28.8906 30.2257 29.2049 31.6473 29.3554 32.5883Z" fill="white"/>
<path d="M21.7807 33.8187L20.0889 34.0932L19.6993 34.1571C19.6789 34.0362 19.6617 33.9167 19.6468 33.7993C19.6137 33.5351 19.5898 33.2695 19.5774 33.0042C19.5376 32.2603 19.5739 31.5119 19.6855 30.7749C19.8586 30.8889 20.016 31.0153 20.1218 31.095C20.484 31.3638 20.7996 31.6783 21.0559 32.0303C21.3475 32.4267 21.5663 32.8699 21.6938 33.3416C21.7351 33.494 21.7671 33.6559 21.7807 33.8187Z" fill="#DB7E5A"/>
<path d="M29.3556 32.5884L27.4315 32.9006C27.3655 32.6864 27.3268 32.4585 27.3096 32.2386C27.2709 31.7544 27.312 31.2646 27.4236 30.7929C27.5216 30.3748 27.6764 29.9703 27.8815 29.5934C27.9783 29.4146 28.1423 29.074 28.3339 28.8599C28.8907 30.2258 29.2051 31.6473 29.3556 32.5884Z" fill="#DB7E5A"/>
<path d="M29.0536 23.7241C28.9386 24.2984 28.7632 24.8109 28.5729 25.1504C28.2209 25.7827 27.7299 26.3319 27.1705 26.7363C27.0236 26.8444 26.871 26.9414 26.7149 27.0267C26.6362 27.07 26.5566 27.111 26.4769 27.151C25.3752 27.7012 24.1678 27.9429 22.9431 28.0271C22.2448 28.0751 21.5317 28.0157 20.8492 27.8358C20.8037 27.7425 20.7604 27.6455 20.7205 27.5442C20.7671 27.4576 20.8151 27.3722 20.8662 27.289C20.9505 27.1489 21.0417 27.0134 21.1397 26.8823C21.4143 26.5165 21.7469 26.1964 22.1184 25.9322C22.8019 25.4469 23.6165 25.1496 24.4503 25.1006C24.7966 25.0788 25.151 25.1016 25.4733 25.227C25.8151 25.3603 26.0884 25.62 26.3664 25.8614C26.4689 25.9502 26.568 26.0438 26.6648 26.1429C26.92 25.743 27.3859 25.448 27.7198 25.1302C28.1878 24.6845 28.6333 24.2152 29.0536 23.7241Z" fill="#B2937D"/>
<path d="M27.2819 14.8466C27.1886 15.0494 27.0574 15.2328 26.8968 15.382C26.3854 15.8548 25.621 15.9788 25.1824 16.5279C25.0594 16.6829 24.8806 17.8586 24.7666 18.0213C24.4362 18.493 24.0034 17.7958 23.4611 17.9267C23.0806 18.019 22.6661 18.0303 22.3094 17.8732C22.2617 17.8538 22.2137 17.8287 22.1681 17.8014C21.112 17.1645 20.6575 17.0074 21.1507 16.3705C21.7226 15.629 23.6422 14.1558 24.5318 13.8449C25.1287 13.6364 25.7748 13.665 26.4047 13.6957C26.7476 13.7127 27.0916 13.7299 27.4346 13.7469C27.4995 14.1186 27.4414 14.5095 27.2819 14.8466Z" fill="#845453"/>
<path d="M27.282 14.8465C27.1886 15.0492 27.0575 15.2326 26.8969 15.3818C26.3854 15.8546 25.6211 15.9787 25.1825 16.5278C25.0595 16.6828 24.8806 17.8584 24.7667 18.0212C24.4362 18.4929 24.0034 17.7956 23.4612 17.9266C23.0806 18.0188 22.6661 18.0302 22.3094 17.873C22.2763 17.5961 22.2583 17.3205 22.2456 17.0539C22.2148 16.3898 22.937 15.7961 23.4087 15.4089C23.9316 14.9783 24.5753 14.6616 25.2532 14.6502C25.8217 14.6412 26.3753 14.845 26.9448 14.8587C27.0577 14.8613 27.1704 14.8568 27.282 14.8465Z" fill="#351F1C"/>
<path d="M28.2937 24.6934C27.9144 25.3372 27.3902 25.8897 26.799 26.2849C26.6668 26.3726 26.53 26.4534 26.3922 26.5252C25.3579 27.063 24.2289 27.3147 23.0771 27.408C22.9176 27.4205 22.7581 27.4308 22.5988 27.4377C22.0213 27.4639 21.4356 27.4173 20.8661 27.2885C20.7465 27.2633 20.6281 27.2326 20.5094 27.1984C20.2178 27.1152 19.9319 27.0105 19.655 26.8817C19.3645 26.7473 19.0831 26.5867 18.8165 26.3999C18.3676 26.0856 17.9597 25.6958 17.6512 25.2277C17.2571 24.6285 17.0382 23.9244 16.8251 23.2308C16.1518 21.0447 15.5867 19.1148 17.4916 17.8287C17.7514 17.6533 19.1811 17.0962 19.4533 16.9743C20.7224 16.4024 22.1098 16.374 23.4063 16.9743C24.2435 17.3617 24.9306 18.0201 26.0059 19.0955C26.5833 19.673 27.3126 19.2036 28.0211 19.5956C28.4345 19.8256 28.6931 20.2279 28.8344 20.7142C29.2083 21.9982 28.7789 23.8687 28.2937 24.6934Z" fill="#DB7E5A"/>
<path d="M28.2939 24.6938C27.8301 25.4822 27.149 26.1326 26.3927 26.5256C25.2147 27.1373 23.9148 27.379 22.5992 27.4381C21.8998 27.4699 21.1888 27.3949 20.5098 27.1988C20.4393 27.0461 20.3765 26.8845 20.323 26.7112C19.9652 25.5652 20.1645 24.2402 20.9052 23.2856C21.5044 22.5133 22.4431 21.9072 22.5889 20.9423C22.6652 20.4343 22.4977 19.9249 22.3655 19.4293C22.3451 19.3519 22.3279 19.2608 22.378 19.198C22.4235 19.1421 22.5067 19.1341 22.5773 19.1468C23.0204 19.2197 23.1765 19.7813 23.5364 20.0492C23.86 20.2896 24.3134 20.285 24.7099 20.2122C25.2372 20.1154 25.7466 19.9352 26.2774 19.8658C26.9529 19.7791 27.9462 19.9228 28.8348 20.7144C29.2085 21.9986 28.7792 23.8691 28.2939 24.6938Z" fill="white"/>
<path d="M23.4419 29.3702C23.4237 30.016 22.9066 30.3762 22.3061 30.5196C22.0474 31.3011 21.5418 31.9994 20.8753 32.4767C20.4902 32.7513 20.0447 32.9574 19.5777 33.0041C19.4935 31.4137 19.7555 29.8051 20.3535 28.3321C20.4128 28.1851 20.4754 28.0382 20.5437 27.8946C20.6405 27.6874 20.7475 27.4833 20.8662 27.2885C20.7467 27.2634 20.6282 27.2326 20.5095 27.1985C20.218 27.1152 19.9321 27.0105 19.6551 26.8818C19.5173 26.3578 19.2484 25.8519 18.9351 25.4499C18.8156 25.2961 18.6765 25.1286 18.6844 24.9315C18.6969 24.6479 19.0045 24.4804 19.2757 24.4587C19.7871 24.4176 20.2952 24.6877 20.6256 25.0979C20.9561 25.5068 20.9026 25.4636 20.9469 25.9955C21.1302 25.7496 21.6383 25.7461 22.118 25.9317C22.7206 26.163 23.2766 26.6926 23.0771 27.4081C23.0736 27.4229 23.0691 27.4377 23.0646 27.4537C23.5636 27.8318 23.5191 28.3377 23.1433 28.7888C23.2927 28.9943 23.4486 29.1128 23.4419 29.3702Z" fill="#B2937D"/>
<path d="M24.6306 20.8905C25.1333 20.5581 25.7082 20.3418 26.3008 20.2619C26.4278 20.2447 26.5583 20.2339 26.6828 20.2644C26.9152 20.3212 27.0984 20.5199 27.1831 20.7488C27.4736 21.534 26.6112 22.7946 25.7697 22.6819C25.0735 22.5888 23.6709 21.525 24.6306 20.8905Z" fill="#2D292F"/>
<path d="M25.2905 20.7695C25.3548 20.7454 25.4231 20.7271 25.4904 20.7402C25.5575 20.7533 25.6231 20.8041 25.6412 20.8778C25.6556 20.9369 25.6373 21.0008 25.6046 21.0492C25.5719 21.0975 25.5263 21.1326 25.4799 21.164C25.3608 21.2448 25.017 21.4942 24.9067 21.5202C24.7422 21.5592 24.6442 21.4536 24.6891 21.2859C24.7513 21.0552 25.1002 20.8413 25.2905 20.7695Z" fill="white"/>
<path d="M22.0418 29.6812C22.0328 29.7551 22.0201 29.8248 22.0077 29.8884C21.8163 30.8544 21.2489 31.7385 20.4538 32.307C20.0221 32.6168 19.5128 32.8378 18.9843 32.8471C18.4546 32.8574 17.9067 32.6306 17.6012 32.1932C17.3131 31.7798 17.2708 31.2363 17.3277 30.7338C17.4372 29.7609 17.8883 28.8326 18.5821 28.1502C18.6698 28.0635 18.7734 27.9702 18.8874 27.8767C19.5287 27.348 20.5289 26.7843 21.2638 27.101C22.0964 27.4585 22.1592 28.845 22.0418 29.6812Z" fill="white"/>
<path d="M22.0418 29.6812C21.8446 29.7893 21.6225 29.8691 21.3959 29.9205C20.8206 30.0503 20.095 30.031 19.5845 29.7143C19.4809 29.6517 19.3863 29.5754 19.3044 29.4864C19.2805 29.4612 19.2578 29.4352 19.236 29.4077C18.8738 28.9452 18.8875 28.4189 18.8875 27.8767C19.5289 27.348 20.529 26.7843 21.2639 27.101C22.0964 27.4585 22.1592 28.845 22.0418 29.6812Z" fill="#B2937D"/>
<path d="M19.8604 29.4655C19.812 29.4817 18.396 30.8495 18.396 30.8495C18.396 30.8495 18.5409 30.0127 19.8442 29.0312L19.8604 29.4655Z" fill="#B2937D"/>
<path d="M18.5133 25.2813C18.3936 25.1271 18.2549 24.9605 18.2633 24.7629C18.2753 24.4798 18.5828 24.3125 18.8543 24.2908C19.3652 24.2495 19.8734 24.52 20.2039 24.9291C20.5343 25.3385 20.7003 25.871 20.7453 26.4029C21.1637 25.8405 22.9729 26.2019 22.6431 27.2855C23.1423 27.6639 23.0984 28.1694 22.7215 28.6204C22.8712 28.8258 23.0271 28.9444 23.02 29.2016C22.9987 29.9737 22.2649 30.3374 21.5266 30.4116C20.7885 30.4856 20.074 30.2056 19.6789 29.5503C19.2437 28.8288 19.357 28.1642 19.334 27.3717C19.3123 26.6287 18.9565 25.8515 18.5133 25.2813Z" fill="white"/>
<path d="M19.9364 20.206C19.6169 21.5399 21.1596 22.315 21.3931 21.0568C21.6154 19.8582 20.2271 18.9924 19.9364 20.206Z" fill="#2D292F"/>
<path d="M23.651 18.9449C23.6246 20.0722 24.9945 20.5226 24.9651 19.4674C24.9369 18.4623 23.6753 17.9194 23.651 18.9449Z" fill="#2D292F"/>
<path d="M18.9658 19.0526C18.9624 19.1813 18.952 19.3088 18.934 19.4342C18.8736 19.8876 18.7233 20.3079 18.4453 20.6236C17.9293 21.2125 17.2583 21.8164 16.4767 21.5975C15.8036 21.4083 15.0242 20.5507 14.5503 19.9457C14.4637 19.8352 14.3725 19.7178 14.253 19.6621C14.1083 19.5948 13.9546 19.6313 13.8099 19.6576C13.4123 19.7283 12.9931 19.7066 12.5818 19.5995C12.2561 19.5142 11.9347 19.3751 11.6362 19.1848C12.1933 18.7324 12.6171 18.1117 13.1161 17.583C13.6151 17.0544 14.2313 16.6022 14.9593 16.5919C15.3364 16.5863 15.8309 16.6203 16.2078 16.7342C17.3152 17.0668 19.0251 17.2936 18.9658 19.0526Z" fill="#845453"/>
<path d="M18.934 19.4342C18.8735 19.8876 18.7233 20.3079 18.4453 20.6236C17.9293 21.2124 17.2583 21.8164 16.4767 21.5975C15.8036 21.4083 15.0242 20.5507 14.5503 19.9457C14.4637 19.8351 14.3725 19.7178 14.253 19.6621C14.1083 19.5948 13.9546 19.6313 13.8099 19.6576C13.4123 19.7283 12.9931 19.7066 12.5818 19.5995C12.6523 19.5677 12.722 19.5322 12.788 19.4935C13.1707 19.2725 13.4863 18.9534 13.8019 18.6425C14.1162 18.3314 14.4433 18.0216 14.8374 17.8223C15.44 17.5194 16.1645 17.5067 16.807 17.7118C17.4496 17.9169 18.0133 18.3258 18.4747 18.8169C18.648 19.0012 18.8099 19.2097 18.934 19.4342Z" fill="#351F1C"/>
<path d="M25.9615 23.7077C25.9568 23.7077 25.9518 23.7073 25.9469 23.7064C25.9004 23.6985 25.8693 23.6542 25.8772 23.6077C25.9817 23.0016 25.8783 22.3855 25.8772 22.3792C25.8693 22.3328 25.9004 22.2885 25.9469 22.2805C25.9931 22.2726 26.0374 22.3038 26.0456 22.3502C26.0501 22.3764 26.1552 23.0008 26.0456 23.6365C26.0385 23.6782 26.0023 23.7077 25.9615 23.7077Z" fill="#2D292F"/>
<path d="M27.8048 23.0522C27.8139 23.7495 27.6601 24.2541 27.3981 24.6336C27.1338 25.0163 26.7602 25.2715 26.333 25.4686C25.6871 25.766 24.9613 26.0087 24.2756 25.8264C24.0249 25.7604 23.82 25.651 23.6536 25.5097C23.1912 25.1178 23.0179 24.4743 22.9678 23.7815C23.4747 24.1176 23.894 24.3306 24.533 24.3182C25.1266 24.3068 25.7144 24.0243 25.9866 23.4648C26.2977 23.6665 26.6075 23.6848 26.964 23.6312C27.322 23.5786 27.6238 23.4612 27.8048 23.0522Z" fill="#C43B4C"/>
<path d="M27.3982 24.6332C27.134 25.0159 26.7603 25.2711 26.3331 25.4683C25.6873 25.7656 24.9614 26.0083 24.2758 25.826C24.0251 25.76 23.8202 25.6506 23.6538 25.5093C23.7506 25.3214 23.8897 25.146 24.081 24.9875C24.6619 24.5044 25.4721 24.4167 26.2295 24.418C26.6395 24.4178 27.0336 24.4726 27.3982 24.6332Z" fill="#EA718B"/>
<path d="M24.6575 25.9713C24.656 25.9713 24.6542 25.9713 24.6527 25.9713C24.5156 25.9638 24.3814 25.9427 24.2539 25.909C23.4188 25.6875 22.9706 24.9937 22.8833 23.7874C22.8809 23.7549 22.8973 23.7239 22.9254 23.7074C22.9536 23.6911 22.9884 23.6921 23.0157 23.71C23.5399 24.0583 23.9329 24.2445 24.5317 24.2324C25.1466 24.22 25.6746 23.9114 25.9096 23.4272C25.9204 23.4051 25.9399 23.3888 25.9634 23.3823C25.987 23.3756 26.0122 23.3797 26.0328 23.3928C26.2921 23.561 26.5585 23.6053 26.9522 23.5468C27.2994 23.4952 27.564 23.3855 27.727 23.0172C27.7431 22.9807 27.7829 22.9596 27.8223 22.9682C27.8616 22.9762 27.89 23.0106 27.8906 23.0508C27.9031 23.9843 27.6249 24.6678 27.0397 25.1404C27.0033 25.17 26.9494 25.1644 26.9195 25.1275C26.8898 25.0909 26.8956 25.037 26.9324 25.0073C27.4153 24.6173 27.6668 24.0901 27.7126 23.3636C27.5094 23.6018 27.2426 23.6764 26.9773 23.7158C26.6935 23.7577 26.3609 23.7732 26.0197 23.5842C25.7391 24.0787 25.1793 24.3902 24.5349 24.4033C23.9527 24.4141 23.5524 24.2537 23.0688 23.9482C23.178 24.9787 23.5711 25.551 24.2976 25.7437C24.4139 25.7746 24.5364 25.7935 24.662 25.8004C24.7091 25.803 24.7452 25.8434 24.7426 25.8905C24.7402 25.9359 24.7024 25.9713 24.6575 25.9713Z" fill="#2D292F"/>
<path d="M20.0829 20.1734C20.1074 20.1304 20.1377 20.0885 20.1815 20.0612C20.2254 20.0337 20.2856 20.0231 20.335 20.0448C20.3905 20.0691 20.4191 20.1261 20.4346 20.1799C20.4795 20.3377 20.426 20.8362 20.1555 20.8089C19.8696 20.7799 20.0098 20.3011 20.0829 20.1734Z" fill="white"/>
<path d="M23.8342 18.7574C23.8506 18.718 23.8719 18.6793 23.9058 18.6516C23.9398 18.6239 23.989 18.609 24.0323 18.623C24.0809 18.6385 24.1101 18.6847 24.1279 18.7294C24.1804 18.8606 24.183 19.2934 23.9549 19.2957C23.7139 19.2981 23.7857 18.8739 23.8342 18.7574Z" fill="white"/>
<path d="M33.177 20.6441C33.0785 20.4521 32.8558 20.3455 32.6337 20.2773C32.0327 20.0929 31.6075 20.5917 31.5268 20.7011C31.411 20.8585 31.3873 21.1141 31.555 21.2507C31.7459 21.4061 32.0798 21.3528 32.2495 21.5271C32.3165 21.5962 32.3453 21.6903 32.4111 21.7604C32.5296 21.8862 32.7517 21.8989 32.9117 21.8195C33.4234 21.5656 33.2449 20.7766 33.177 20.6441Z" fill="#B2937D"/>
<path d="M30.7242 19.4299C30.6705 19.426 30.6133 19.4387 30.5742 19.4757C30.5284 19.5189 30.5155 19.5862 30.5092 19.649C30.4989 19.7515 30.5002 19.8579 30.5365 19.9545C30.5886 20.0931 30.8199 20.2692 30.9691 20.1725C31.0338 20.1303 31.0693 20.0536 31.0794 19.977C31.1091 19.7485 30.9932 19.449 30.7242 19.4299Z" fill="#B2937D"/>
<path d="M32.5942 19.1484C32.5637 19.0381 32.4858 18.9382 32.3794 18.8962C32.3493 18.8844 32.3169 18.8771 32.2844 18.8786C32.1962 18.8827 32.1231 18.9493 32.0741 19.0229C31.9421 19.2202 31.8845 19.7126 32.2027 19.7792C32.5155 19.8446 32.6572 19.377 32.5942 19.1484Z" fill="#B2937D"/>
<path d="M33.7843 19.729C33.8026 19.6159 33.7733 19.4927 33.6938 19.4101C33.6712 19.3867 33.6448 19.3667 33.6149 19.3546C33.5332 19.3218 33.4388 19.3521 33.3638 19.3983C33.1617 19.5228 32.9045 19.9465 33.166 20.1396C33.4231 20.3292 33.7465 19.9629 33.7843 19.729Z" fill="#B2937D"/>
<path d="M34.5964 20.8476C34.6648 20.7558 34.6958 20.633 34.6633 20.5231C34.6541 20.492 34.6399 20.4621 34.6188 20.4374C34.5614 20.3703 34.4638 20.3537 34.3758 20.3602C34.1391 20.3774 33.7152 20.6345 33.8581 20.9265C33.9987 21.2133 34.455 21.0376 34.5964 20.8476Z" fill="#B2937D"/>
</svg>
