<?xml version="1.0" encoding="utf-8"?>
<!-- Generator: Adobe Illustrator 24.3.0, SVG Export Plug-In . SVG Version: 6.00 Build 0)  -->
<svg version="1.1" id="Layer_1" xmlns="http://www.w3.org/2000/svg" xmlns:xlink="http://www.w3.org/1999/xlink" x="0px" y="0px"
	 viewBox="0 0 426.05 423.73" style="enable-background:new 0 0 426.05 423.73;" xml:space="preserve">
<style type="text/css">
	.st0{fill:#FFDEF6;}
	.st1{fill:#FFCAF3;}
	.st2{fill:#D75880;}
	.st3{fill:#FFFFFF;}
	.st4{fill:#4A7C3B;}
	.st5{fill:#EEEEB8;}
	.st6{fill:#939C5B;}
	.st7{fill:#777C45;}
	.st8{fill:#E98329;}
	.st9{fill:#CE712C;}
	.st10{fill:#838999;}
	.st11{fill:#D8533D;}
	.st12{fill:#F47F73;}
	.st13{fill:#C63D2A;}
	.st14{fill:#F2F6F7;}
	.st15{fill:#E06E97;}
	.st16{fill:#FF8F80;}
	.st17{fill:#494949;}
	.st18{fill:#302117;}
	.st19{fill:#231F20;}
	.st20{fill:#E6E7E8;}
	.st21{fill:#FED7A2;}
	.st22{fill:#C45120;}
	.st23{opacity:0.5;fill:#FFFFFF;}
	.st24{fill:#3B0807;}
	.st25{fill:#BF4113;}
	.st26{fill:#DB6831;}
	.st27{fill:#FBF9FE;}
	.st28{fill:#CC8352;}
	.st29{fill:#E89D60;}
	.st30{fill:#341523;}
	.st31{display:none;fill:#341523;}
	.st32{fill:#FFBC7C;}
	.st33{fill:#573A2C;}
	.st34{fill:#EFF6EC;}
	.st35{fill:#E4BDA3;}
	.st36{fill:#D37B6A;}
	.st37{fill:#BECCB8;}
	.st38{fill:#E95F3B;}
	.st39{fill:#F1F1F2;}
	.st40{fill:#D3CFC5;}
	.st41{fill:#EFEEED;}
	.st42{display:none;fill:#E4BDA3;}
</style>
<rect x="14.31" y="731.27" class="st0" width="371.81" height="448.71"/>
<path class="st1" d="M332.1,1077.35c0,12.53-60.21,22.69-134.48,22.69c-74.27,0-134.48-10.16-134.48-22.69
	c0-12.53,60.21-22.69,134.48-22.69C271.89,1054.66,332.1,1064.82,332.1,1077.35z"/>
<path class="st2" d="M180.07,951.78c0,0-5.91-16.78-34.5-18.02c7.46,8.39,11.81,19.58,26.41,18.02
	c-9.94,0.62-14.29,11.5-25.79,14.92c8.08,4.35,25.48,3.11,33.56-11.19C179.76,955.52,181.63,954.27,180.07,951.78z"/>
<path class="st3" d="M233.89,1017.72c0,0,23.93,4.98,20.51-34.49c0,0,1.87-4.04,3.42,6.52c1.56,10.57,2.8,40.4-23.31,38.22
	C232.33,1024.56,233.89,1017.72,233.89,1017.72z"/>
<path class="st3" d="M203.28,953.8c-23.4-11.55-42.1,13.45-40.87,39.68c1.24,26.42,11.5,51.28,11.5,51.28h28.9h0.93h28.91
	c0,0,10.25-24.86,11.5-51.28C245.38,967.24,226.68,942.24,203.28,953.8z"/>
<path class="st4" d="M219.76,992.96c-2.94-6.88-8.28-10.66-12.95-10.88l0,0c0,0,0,0,0,0l0,0l0,0c-4.67,0.22-10,4-12.95,10.88
	c-4.18,9.75-2.96,19.32,4.05,30.39c5.95,8.84,7.63,12.87,7.79,14.72h1.11h0h1.14c0.16-1.85,1.8-5.88,7.75-14.72
	C222.72,1012.28,223.94,1002.71,219.76,992.96z"/>
<path class="st5" d="M206.22,1023.38c0.14,0.09,0.35,0.01,0.47-0.18l0,0c0.13-0.19,0.12-0.42-0.01-0.5l-7.44-4.95
	c-0.13-0.09-0.35-0.01-0.47,0.18l0,0c-0.12,0.2-0.12,0.42,0.01,0.51L206.22,1023.38z"/>
<path class="st5" d="M206.22,1014.47c0.14,0.08,0.35,0.01,0.47-0.19l0,0c0.13-0.19,0.12-0.42-0.01-0.51l-7.44-4.95
	c-0.13-0.09-0.35-0.01-0.47,0.19l0,0c-0.12,0.19-0.12,0.42,0.01,0.5L206.22,1014.47z"/>
<path class="st5" d="M206.22,1005.56c0.14,0.09,0.35,0,0.47-0.19l0,0c0.13-0.19,0.12-0.42-0.01-0.51l-7.44-4.95
	c-0.13-0.09-0.35-0.01-0.47,0.18l0,0c-0.12,0.19-0.12,0.42,0.01,0.51L206.22,1005.56z"/>
<path class="st5" d="M206.22,996.64c0.14,0.09,0.35,0.01,0.47-0.18l0,0c0.13-0.19,0.12-0.42-0.01-0.51l-7.44-4.94
	c-0.13-0.09-0.35-0.01-0.47,0.18l0,0c-0.12,0.19-0.12,0.42,0.01,0.51L206.22,996.64z"/>
<path class="st5" d="M207.79,1023.38c-0.13,0.09-0.35,0.01-0.47-0.18l0,0c-0.13-0.19-0.12-0.42,0.01-0.5l7.43-4.95
	c0.13-0.09,0.35-0.01,0.47,0.18l0,0c0.13,0.2,0.12,0.42-0.01,0.51L207.79,1023.38z"/>
<path class="st5" d="M207.79,1014.47c-0.13,0.08-0.35,0.01-0.47-0.19l0,0c-0.13-0.19-0.12-0.42,0.01-0.51l7.43-4.95
	c0.13-0.09,0.35-0.01,0.47,0.19l0,0c0.13,0.19,0.12,0.42-0.01,0.5L207.79,1014.47z"/>
<path class="st5" d="M207.79,1005.56c-0.13,0.09-0.35,0-0.47-0.19l0,0c-0.13-0.19-0.12-0.42,0.01-0.51l7.43-4.95
	c0.13-0.09,0.35-0.01,0.47,0.18l0,0c0.13,0.19,0.12,0.42-0.01,0.51L207.79,1005.56z"/>
<path class="st5" d="M207.79,996.64c-0.13,0.09-0.35,0.01-0.47-0.18l0,0c-0.13-0.19-0.12-0.42,0.01-0.51l7.43-4.94
	c0.13-0.09,0.35-0.01,0.47,0.18l0,0c0.13,0.19,0.12,0.42-0.01,0.51L207.79,996.64z"/>
<path class="st5" d="M208.08,1043.39l-0.41-53.97c0-0.32-0.21-0.58-0.47-0.58h-0.47c-0.26,0-0.47,0.26-0.47,0.58l-0.64,53.97H208.08
	z"/>
<path class="st4" d="M252.55,1012.21c0.62-7.45-2.33-13.29-6.35-15.67l0,0h0l0,0l0,0c-4.23-1.99-10.71-1.15-16.53,3.55
	c-8.26,6.66-11.66,15.69-10.65,28.76c1.13,10.59,0.72,14.95-0.01,16.65l0.98,0.52l0,0l1.01,0.54c1-1.57,4.34-4.36,13.74-9.38
	C246.12,1030.67,251.68,1022.78,252.55,1012.21z"/>
<path class="st5" d="M226.35,1032.75c0.07,0.14,0.3,0.17,0.5,0.06l0,0c0.2-0.11,0.3-0.31,0.22-0.45l-4.25-7.86
	c-0.07-0.14-0.3-0.17-0.5-0.06l0,0c-0.2,0.12-0.3,0.31-0.22,0.46L226.35,1032.75z"/>
<path class="st5" d="M230.52,1024.88c0.08,0.13,0.3,0.16,0.5,0.06l0,0c0.2-0.11,0.3-0.31,0.22-0.46l-4.25-7.85
	c-0.08-0.14-0.3-0.17-0.5-0.06l0,0c-0.2,0.11-0.3,0.31-0.22,0.45L230.52,1024.88z"/>
<path class="st5" d="M234.69,1017.01c0.08,0.14,0.3,0.16,0.5,0.06l0,0c0.2-0.11,0.3-0.31,0.22-0.46l-4.26-7.85
	c-0.07-0.14-0.3-0.17-0.5-0.06l0,0c-0.2,0.11-0.3,0.31-0.22,0.46L234.69,1017.01z"/>
<path class="st5" d="M238.87,1009.13c0.08,0.14,0.3,0.17,0.5,0.06l0,0c0.2-0.11,0.3-0.31,0.22-0.46l-4.25-7.85
	c-0.07-0.14-0.3-0.17-0.5-0.06l0,0c-0.2,0.11-0.3,0.31-0.22,0.45L238.87,1009.13z"/>
<path class="st5" d="M227.74,1033.49c-0.16,0.02-0.31-0.16-0.33-0.38l0,0c-0.02-0.23,0.09-0.43,0.25-0.44l8.89-0.89
	c0.16-0.02,0.31,0.16,0.33,0.38l0,0c0.02,0.23-0.09,0.42-0.25,0.44L227.74,1033.49z"/>
<path class="st5" d="M231.91,1025.62c-0.16,0.01-0.31-0.16-0.33-0.38l0,0c-0.02-0.23,0.09-0.43,0.25-0.44l8.89-0.89
	c0.16-0.02,0.31,0.16,0.33,0.38l0,0c0.02,0.23-0.09,0.43-0.25,0.44L231.91,1025.62z"/>
<path class="st5" d="M236.08,1017.74c-0.16,0.01-0.31-0.16-0.33-0.39l0,0c-0.02-0.23,0.09-0.42,0.25-0.44l8.89-0.89
	c0.16-0.02,0.31,0.15,0.33,0.38l0,0c0.02,0.23-0.09,0.43-0.25,0.44L236.08,1017.74z"/>
<path class="st5" d="M240.25,1009.86c-0.16,0.02-0.31-0.16-0.33-0.38l0,0c-0.03-0.22,0.09-0.42,0.25-0.44l8.88-0.89
	c0.16-0.02,0.31,0.16,0.33,0.39l0,0c0.02,0.22-0.09,0.42-0.25,0.43L240.25,1009.86z"/>
<path class="st5" d="M218.62,1051.3l24.9-47.88c0.15-0.29,0.09-0.61-0.14-0.73l-0.41-0.22c-0.23-0.12-0.54,0.01-0.69,0.29
	l-25.83,47.39L218.62,1051.3z"/>
<path class="st6" d="M174.42,993.69c-0.3-4.2-0.82-13.16-0.05-15.21c-3.07-0.07-4.9,0.89-4.9,0.89l0.77,9.14l-6.1-11.64l-4.2,3.51
	l6.78,11.35l-8.72-5.42l-1.53,2.36l12.55,8.36C169.41,996.7,171.76,994.6,174.42,993.69z"/>
<path class="st7" d="M173.02,992.62c-1.96,0.46-4.12,2.3-5.38,3.51l1.39,0.93c0.38-0.35,2.73-2.45,5.39-3.36
	c-0.3-4.2-0.82-13.16-0.05-15.21c-0.37-0.01-0.72,0-1.05,0.02C172.07,984.12,173.02,992.62,173.02,992.62z"/>
<path class="st8" d="M167.22,998.54c-1.66,2.9-4.65,10.87,3.37,22.04c9.92,13.85,18.11,17.27,22.12,16c0.87-0.27,1.64-1,2.31-2.17
	c2.69-4.72,3.81-17.2-2.18-30.22c-2.57-4.83-7.51-10.31-13.67-11.19c-1.71-0.25-3.41-0.09-5.05,0.44c-3.01,1.04-5.2,3-6.24,4.08
	C167.76,997.69,167.51,998.03,167.22,998.54z"/>
<path class="st9" d="M177.52,1003.55c0.15,0.33,0,0.71-0.32,0.86l-6.09,2.71c-0.33,0.15-0.71,0-0.86-0.33l0,0
	c-0.15-0.33,0-0.71,0.33-0.86l6.09-2.71C176.99,1003.07,177.37,1003.21,177.52,1003.55L177.52,1003.55z"/>
<path class="st9" d="M190.18,1002.35c0.15,0.33,0,0.71-0.33,0.86l-6.09,2.71c-0.33,0.15-0.72,0-0.86-0.33l0,0
	c-0.15-0.33,0-0.71,0.33-0.86l6.09-2.71C189.65,1001.87,190.04,1002.02,190.18,1002.35L190.18,1002.35z"/>
<path class="st9" d="M182.04,1010.83c0.15,0.33,0.09,0.68-0.13,0.77l-4.07,1.81c-0.22,0.1-0.51-0.09-0.66-0.42l0,0
	c-0.15-0.33-0.09-0.68,0.13-0.77l4.07-1.81C181.6,1010.31,181.9,1010.5,182.04,1010.83L182.04,1010.83z"/>
<path class="st9" d="M180.24,1019.91c0.14,0.33,0.08,0.68-0.13,0.77l-4.07,1.81c-0.22,0.1-0.52-0.09-0.66-0.42l0,0
	c-0.15-0.33-0.09-0.68,0.13-0.77l4.07-1.81C179.79,1019.39,180.09,1019.58,180.24,1019.91L180.24,1019.91z"/>
<path class="st9" d="M190.08,1024.96c0.15,0.33,0.09,0.67-0.13,0.77l-4.07,1.81c-0.22,0.1-0.52-0.09-0.66-0.41l0,0
	c-0.15-0.33-0.09-0.68,0.13-0.77l4.07-1.81C189.64,1024.45,189.93,1024.64,190.08,1024.96L190.08,1024.96z"/>
<path class="st9" d="M195.28,1017.82c0.15,0.33,0.08,0.67-0.13,0.77l-4.07,1.81c-0.22,0.1-0.52-0.09-0.66-0.42l0,0
	c-0.15-0.33-0.09-0.67,0.13-0.77l4.07-1.81C194.83,1017.3,195.13,1017.49,195.28,1017.82L195.28,1017.82z"/>
<path class="st10" d="M239.02,1044.78c0,3.99-18.43,7.22-41.16,7.22c-22.73,0-41.16-3.23-41.16-7.22c0-3.98,18.43-7.22,41.16-7.22
	C220.59,1037.56,239.02,1040.79,239.02,1044.78z"/>
<path class="st10" d="M245.6,1075.55c-10.98-1.16-25.58-2.03-45.59-0.51c-19.75,2.53-37.42-0.75-49.39,0.51c0,0-11.14,1.27-8.1,8.1
	c3.29,6.08,22.54,13.68,56.48,13.68c30.14,0.76,51.41-7.6,54.71-13.68C256.75,1076.82,245.6,1075.55,245.6,1075.55z"/>
<path class="st11" d="M165.34,1013.63c0,0-6.13,5.67-4.66,16.57c3.24,12.01,15.13,22.01,28.82,27.34
	c13.69,5.33,32.13,3.64,39.5-7.18c7.36-10.82,9.02-23.35,1.75-28.5C207.63,1021.74,183.36,1026.45,165.34,1013.63z"/>
<path class="st12" d="M171.67,1011.4c0,0-9.07-0.48-10.02,10.52c-0.94,11,16.55,28.82,39.52,30.93
	c22.97,2.11,31.9-12.41,33.59-20.85c1.69-8.44-5.71-18.72-18.78-18.12c-13.07,0.6-22.27,3.49-31.04,1.73
	C176.18,1013.85,174.88,1012.18,171.67,1011.4z"/>
<path class="st11" d="M174.69,1017.23c0,0-6.36-1.87-7.67,3.6c-1.31,5.47,6.73,15.91,11.71,16.42c4.98,0.52,11.76-3.64,16.03-10.1
	c4.28-6.46-2.3-6-6.88-6.76C183.29,1019.64,177.75,1018.65,174.69,1017.23z"/>
<path class="st11" d="M219.48,1019.15c0,0-6.75-1.62-13.29,2.93c-5.05,3.52-11.72,11.06-16.63,15.39
	c-6.05,5.36,7.1,12.94,23.27,9.34c16.17-3.6,17.03-15.64,16.51-19.17C228.83,1024.12,224.06,1019.91,219.48,1019.15z"/>
<path class="st13" d="M183.83,1023.87c0,0-3.88-1.42-5.2,1.23c-1.32,2.65,2.27,6.44,5.86,5.2
	C188.09,1029.08,187.52,1024.34,183.83,1023.87z"/>
<path class="st13" d="M212.58,1029.36c0,0-2.93-0.94-5.77,2.08c-2.84,3.03,1.23,9.36,6.81,6.81c3.78-2.18,3.69-4.92,2.84-6.52
	C215.61,1030.11,213.81,1029.45,212.58,1029.36z"/>
<path class="st14" d="M248.81,1079.83l-9.8-34.96c-0.28,3.95-18.59,7.13-41.14,7.13c-22.56,0-40.87-3.18-41.14-7.13l-9.8,34.96
	c-0.08,0.21-0.14,0.42-0.14,0.63c0,4.95,22.26,11.05,50.48,11.05c28.22,0,51.69-6.1,51.69-11.05
	C248.95,1080.25,248.89,1080.03,248.81,1079.83z"/>
<path class="st15" d="M177.85,955.38c0,0,4.66,17.35,25.9,30.31c0,0,14.51-6.74,24.09-30.57c0,0-5.18-4.92-23.31-4.41
	C194.43,950.97,184.33,949.94,177.85,955.38z"/>
<path class="st3" d="M248.02,821c-4.32-3.42-18.62,11.5-22.61,23.93c0,0-12.49-4.91-22.44-4.36c-9.95-0.55-22.44,4.36-22.44,4.36
	c-3.99-12.43-18.29-27.34-22.61-23.93c-13.96,21.76-3.66,50.66-3.66,50.66c-0.33,20.2,4.33,46.31,16.3,69.31
	c11.09,21.31,29.59,22.34,32.25,22.38l0,0c0,0,0.03,0,0.08,0c0.04,0,0.06,0,0.09,0c0.03,0,0.05,0,0.08,0c0.05,0,0.08,0,0.08,0l0,0
	c2.65-0.04,21.16-1.06,32.25-22.38c11.97-23,16.62-49.1,16.29-69.31C251.67,871.66,261.98,842.76,248.02,821z"/>
<path class="st16" d="M160.55,861.09c0,0,3.1-6.52,12.12-11.81c0,0-3.11-13.98-11.81-18.03
	C160.86,831.25,154.33,843.07,160.55,861.09z"/>
<path class="st16" d="M245.38,861.09c0,0-3.11-6.52-12.12-11.81c0,0,3.12-13.98,11.81-18.03
	C245.07,831.25,251.6,843.07,245.38,861.09z"/>
<path class="st17" d="M188.2,911.44c6.22-19.89-0.62-36.36-13.36-39.16c-8.61-1.89-16.09,3.18-20.41,8.2
	c0.76,14.85,4.01,31.86,10.51,48.17C171.23,928.41,183.64,926.03,188.2,911.44z"/>
<path class="st18" d="M214.93,943.13c0,3.43-5.43,6.22-12.12,6.22c-6.69,0-12.12-2.79-12.12-6.22c0-3.43,5.43-6.21,12.12-6.21
	C209.5,936.92,214.93,939.71,214.93,943.13z"/>
<path class="st18" d="M170.18,868.86c0,0,0-7.46,5.59-9.95c3.73-1.56,8.08,3.11,8.08,9.64c0,0-2.17,3.11-3.11-1.56
	c-0.94-4.66-4.97-6.52-7.46-2.79C171.73,866.99,170.8,870.41,170.18,868.86z"/>
<path class="st18" d="M183.85,893.26c0,3.17-2.58,5.75-5.75,5.75c-3.17,0-5.75-2.57-5.75-5.75c0-3.17,2.58-5.75,5.75-5.75
	C181.28,887.51,183.85,890.09,183.85,893.26z"/>
<path class="st18" d="M231.72,868.86c0,0,0-7.46-5.6-9.95c-3.73-1.56-8.08,3.11-8.08,9.64c0,0,2.17,3.11,3.11-1.56
	c0.93-4.66,4.97-6.52,7.46-2.79C230.16,866.99,231.09,870.41,231.72,868.86z"/>
<path class="st18" d="M218.04,893.26c0,3.17,2.57,5.75,5.75,5.75s5.75-2.57,5.75-5.75c0-3.17-2.58-5.75-5.75-5.75
	S218.04,890.09,218.04,893.26z"/>
<path class="st19" d="M258.51,1020.55c-0.13,0-0.27-0.04-0.38-0.13c-0.26-0.21-0.3-0.6-0.09-0.86c4.21-5.24,3.82-14.16,3.81-14.25
	c-0.02-0.34,0.24-0.62,0.58-0.64c0.32-0.03,0.62,0.24,0.64,0.58c0.02,0.38,0.42,9.48-4.08,15.08
	C258.87,1020.47,258.69,1020.55,258.51,1020.55z"/>
<path class="st19" d="M263.45,1020c-0.12,0-0.24-0.03-0.35-0.11c-0.28-0.19-0.35-0.57-0.15-0.85c3.04-4.39,2.38-9.38,2.37-9.43
	c-0.05-0.33,0.18-0.64,0.52-0.69c0.33-0.04,0.64,0.18,0.69,0.52c0.03,0.22,0.74,5.52-2.58,10.3
	C263.83,1019.91,263.64,1020,263.45,1020z"/>
<path class="st3" d="M289,858.61c-13.12,0-23.75,10.63-23.75,23.75c0,5.35,1.77,10.28,4.75,14.25l-3.84,4.64l7.48-0.77
	c4.14,3.52,9.5,5.64,15.36,5.64c13.12,0,23.75-10.64,23.75-23.75C312.75,869.25,302.12,858.61,289,858.61z"/>
<path class="st2" d="M289,878.55c-3.97-7.8-15.22-6.71-14.68,3.42c0.5,9.37,11.99,13.61,14.63,14.47v0.03
	c0.01,0,0.03-0.01,0.05-0.02c0.02,0,0.03,0.01,0.04,0.02v-0.03c2.65-0.86,14.13-5.11,14.64-14.47
	C304.23,871.84,292.97,870.75,289,878.55z"/>
<path class="st20" d="M201.79,968.57c0,0-8.26,6.62,0,18.83c4.51,6.21,3.59,13.22-1.83,18.47c0,0,13.63-4,6.34-18.65
	C199,972.58,200.29,971.06,201.79,968.57z"/>
<path class="st20" d="M217.33,972.67c0,0-7.59,6.08,0,17.31c4.14,5.71,3.3,12.15-1.69,16.99c0,0,12.53-3.68,5.83-17.15
	C214.76,976.35,215.94,974.96,217.33,972.67z"/>
<path class="st20" d="M186.49,972.67c0,0-7.59,6.08,0,17.31c4.14,5.71,3.3,12.15-1.69,16.99c0,0,12.53-3.68,5.83-17.15
	C183.93,976.35,185.11,974.96,186.49,972.67z"/>
<rect x="2.32" class="st0" width="423.73" height="423.73"/>
<g>
	<polygon class="st10" points="243.11,90.03 243.24,367.19 255.96,367.19 255.82,77.31 64.94,77.35 97.2,165.89 109.15,161.53 
		83.11,90.06 	"/>
</g>
<path class="st15" d="M208.63,160.42c-65.65-3.21-130.92,20.51-179.2,65.1c-4.89-13.48-9.79-26.95-14.68-40.42
	c48.28-44.6,113.55-68.31,179.2-65.1C198.84,133.47,203.73,146.94,208.63,160.42z"/>
<path class="st3" d="M208.63,160.42c4.72,12.99-31.58,38.09-81.06,56.07c-49.48,17.98-93.43,22.02-98.14,9.04
	c-4.72-12.99,31.57-38.09,81.06-56.07C159.97,151.48,203.91,147.43,208.63,160.42z"/>
<g>
	<path class="st21" d="M82.14,207.31c1.16,3.2-7.77,9.38-19.95,13.8c-12.19,4.43-23.01,5.42-24.17,2.23
		c-1.16-3.2,7.77-9.38,19.96-13.81C70.16,205.11,80.98,204.12,82.14,207.31z"/>
	<path class="st21" d="M204.23,162.96c1.16,3.2-7.77,9.37-19.95,13.8c-12.18,4.42-23,5.42-24.16,2.22
		c-1.16-3.2,7.77-9.38,19.96-13.8C192.25,160.76,203.07,159.76,204.23,162.96z"/>
	<path class="st21" d="M110.93,183.48c1.16,3.2-7.77,9.38-19.95,13.8c-12.18,4.42-23,5.42-24.16,2.22
		c-1.16-3.2,7.78-9.38,19.96-13.8C98.96,181.27,109.77,180.28,110.93,183.48z"/>
	<path class="st21" d="M161.72,165.03c1.16,3.2-7.77,9.38-19.96,13.81c-12.18,4.42-23,5.42-24.16,2.22
		c-1.16-3.2,7.78-9.38,19.96-13.8C149.74,162.82,160.56,161.83,161.72,165.03z"/>
	<path class="st21" d="M119.78,207.83c1.16,3.2-7.77,9.38-19.96,13.8c-12.18,4.42-23,5.42-24.16,2.22
		c-1.16-3.2,7.77-9.38,19.95-13.8C107.8,205.63,118.62,204.63,119.78,207.83z"/>
	<path class="st21" d="M170.57,189.38c1.16,3.2-7.77,9.38-19.95,13.8c-12.18,4.43-23,5.42-24.16,2.22
		c-1.16-3.2,7.77-9.38,19.96-13.8C158.59,187.17,169.4,186.18,170.57,189.38z"/>
</g>
<path class="st10" d="M60.08,368.76c0,0,3.02,16.32,4.87,21.06c1.39,3.56,3.12,7.46,5.89,7.46h327.57c2.76,0,4.18-3.67,5.49-7.29
	c2.01-5.5,4.38-21.23,4.38-21.23H60.08z"/>
<g>
	<g>
		<g>
			<g>
				<g>
					<path class="st22" d="M308.54,385.48c4.04,0,10.12,0,10.12,0c11.74-0.73,8.02-9.99,10.85-15.92
						c3.57-7.45,8.38-21.54,9.36-27.52c0.61-3.71-3.81-5.93-2.96-8.03c14.81-36.59,5.81-66.91-18.86-70.63
						c-11.82-1.78-26.03,7.69-28.5,19.22c-2.72,12.66-5.65,42.86,19.66,58.23c17.35,10.54,6.43,29.06,6.43,29.06
						C303.67,369.89,297.53,385.48,308.54,385.48z"/>
				</g>
			</g>
		</g>
		<path class="st23" d="M308.17,340.83c16.37,9.94,7.06,26.83,5.95,28.71h6.92c4.65-12.33,6.86-31.73-6.76-39.61
			c-16.17-9.37-21.28-42.56-13.45-62.91c-6.08,3.57-10.96,9.26-12.31,15.58C285.79,295.26,282.87,325.46,308.17,340.83z"/>
		<g>
			<g>
				<g>
					<path class="st3" d="M321.71,356.14c-1.31-0.1-2.61-0.19-3.92-0.21c0.15,7.41-3.82,13.76-3.82,13.76
						c-11.19,0-16.87,16.37-5.62,16.37c4.13,0,10.33,0,10.33,0c11.99-0.74,8.19-10.48,11.08-16.52c1.32-2.74,3-6.4,3.96-10.21
						C329.92,357.52,326.07,356.46,321.71,356.14z"/>
				</g>
			</g>
			<g>
				<path class="st3" d="M304.09,384.86c-0.15-0.93,0.02-1.86,0.34-2.73c0.33-0.87,0.85-1.69,1.55-2.35
					c0.7-0.66,1.58-1.17,2.52-1.38c0.94-0.22,1.92-0.17,2.78,0.21c-0.86,0.38-1.6,0.7-2.26,1.12c-0.67,0.4-1.25,0.85-1.8,1.37
					c-0.55,0.52-1.06,1.1-1.56,1.73C305.16,383.45,304.66,384.12,304.09,384.86z"/>
				<path class="st3" d="M302.95,379.83c-0.17-0.81-0.05-1.64,0.28-2.41c0.33-0.77,0.92-1.48,1.66-1.95
					c0.73-0.48,1.59-0.72,2.41-0.74c0.82-0.02,1.61,0.14,2.35,0.52c-0.74,0.38-1.44,0.61-2.07,0.88c-0.63,0.26-1.2,0.53-1.7,0.86
					c-0.51,0.33-0.98,0.71-1.44,1.19C303.95,378.65,303.51,379.2,302.95,379.83z"/>
				<path class="st3" d="M309.56,385.83c-0.17-0.8-0.05-1.64,0.28-2.42c0.33-0.77,0.91-1.47,1.65-1.94
					c0.74-0.48,1.59-0.71,2.41-0.73c0.82-0.02,1.61,0.14,2.35,0.51c-0.74,0.38-1.44,0.61-2.07,0.88c-0.63,0.26-1.2,0.53-1.71,0.86
					c-0.51,0.33-0.98,0.71-1.44,1.19C310.56,384.66,310.12,385.21,309.56,385.83z"/>
			</g>
		</g>
	</g>
	<g>
		<path class="st22" d="M193.17,314.52c2,7.53,4.75,13.96,11.56,27.17c6.81,13.21,5.61,19.57,0.8,30.78c0,0-5.57-1.15-8.61,4.2
			c-1.11,1.94-3.9,8.81,1.2,8.81c5.02,0,15.02-0.65,17.97-0.65c4.4,0,6-4,6-10.41c0-5.6,10.86-18.32,8.31-22.82
			c-3.8-6.7-4.51-7.46-3.45-11.41c2.23-8.39,6.39-17.28,6.75-29.13c0.3-9.76-8.41-18.9-22.23-18.9
			C201.58,292.16,189.87,302.05,193.17,314.52z"/>
		<g>
			<path class="st3" d="M223.41,366.3c-2.39-3.36-4.78-7.4-8.9-8.83c-1.62-0.57-3.29-0.79-5.01-0.89c-0.3,4.99-1.64,9.24-4.27,15.37
				c0,0-5.57-0.62-8.71,4.9c-1.14,2-4.02,9.09,1.24,9.09c5.18,0,14.99,0.02,18.03,0.02c4.54,0,6.7-4.83,6.7-11.43
				c0-1.68,0.85-4.53,2.13-7.06C224.17,366.91,223.83,366.88,223.41,366.3z"/>
			<g>
				<path class="st3" d="M196.97,385.56c-0.15-0.93,0.02-1.86,0.34-2.73c0.33-0.87,0.85-1.68,1.55-2.35
					c0.7-0.67,1.58-1.17,2.52-1.39c0.94-0.22,1.92-0.16,2.78,0.21c-0.86,0.38-1.6,0.7-2.27,1.11c-0.66,0.4-1.25,0.85-1.79,1.37
					c-0.55,0.52-1.06,1.1-1.56,1.73C198.04,384.15,197.54,384.82,196.97,385.56z"/>
				<path class="st3" d="M195.84,380.52c-0.17-0.8-0.05-1.64,0.27-2.41c0.33-0.77,0.92-1.47,1.65-1.95
					c0.73-0.48,1.59-0.71,2.41-0.74c0.82-0.02,1.61,0.15,2.35,0.52c-0.74,0.38-1.44,0.61-2.07,0.88c-0.64,0.26-1.2,0.53-1.71,0.86
					c-0.51,0.33-0.97,0.71-1.44,1.19C196.83,379.35,196.39,379.91,195.84,380.52z"/>
				<path class="st3" d="M202.74,385.86c-0.17-0.8-0.05-1.64,0.28-2.41c0.33-0.77,0.92-1.47,1.65-1.95
					c0.73-0.48,1.59-0.71,2.41-0.74c0.82-0.02,1.61,0.15,2.34,0.52c-0.74,0.37-1.44,0.61-2.07,0.87c-0.64,0.26-1.2,0.53-1.71,0.86
					c-0.51,0.33-0.98,0.71-1.44,1.19C203.74,384.68,203.3,385.23,202.74,385.86z"/>
			</g>
		</g>
	</g>
	<g>
		<path class="st24" d="M359.02,258.06c0,0,8.08-16.2,2.44-33.58c-5.63-17.38,12.44-27.99,15.72-30.74c0,0-7.89,17.62-4.18,26.83
			c6.68,16.62,12.03,48-19.96,64.95C353.03,285.52,348.58,266.31,359.02,258.06z"/>
		<path class="st3" d="M361.46,224.48c0.06,0.14,4.45,0.77,6.25,0.19c4.24-1.38,5.49-3.31,5.29-4.09
			c-2.76-10.61,5.14-28.43,5.14-28.43C374.86,194.89,353.06,204.14,361.46,224.48z"/>
	</g>
	<path class="st22" d="M317.04,338.51c42.74,0,65.86-57.7,35.23-81.09c-33.03-25.23-65.26,0.43-83.88,6.25
		c-18.62,5.83-42.04-10.35-42.04-10.35l-41.44,31.05c0,34.94,24.82,54.13,55.65,54.13C277.8,338.51,295.49,338.51,317.04,338.51z"/>
	<path class="st24" d="M365.23,276.8c-1.87-7.59-6.15-14.28-12.96-19.49c-33.03-25.23-65.26,0.43-83.88,6.25
		c-16.95,5.3-37.89-7.63-41.49-9.99c-3.05,11.86,17.33,36.99,36.69,31.68c24.82-6.8,38.44-14.51,46.65-14.51
		C323.35,270.75,343.48,288.64,365.23,276.8z"/>
	<path class="st3" d="M365.06,297.8c-33.42,32.42-78.03,13.68-116.49,18.79c-30.77,4.08-45.78-27.79-50.83-41.73l-12.83,9.62
		c0,34.94,24.82,54.13,55.65,54.13c37.23,0,54.93,0,76.47,0C342.04,338.61,360.32,318.87,365.06,297.8z"/>
	<g>
		<path class="st25" d="M179.93,221.75c0,0-6.39,0.94-13.23,3.88c-7.72,3.31-16.27,7.46-21.11,11.41c-4.29,3.5-5.77,6.19-4.3,10.94
			c2.55,8.28,8.59,28.46,11.82,39.28c1.29,4.31,4.07,6.01,6.65,3.99c4.97-3.9,12.3-11.15,12.62-20.21
			C172.87,257.26,179.93,221.75,179.93,221.75z"/>
		<path class="st26" d="M226.5,256.13l-4.61-26.73l-7.39-7.35c0,0-5.2-0.84-6.62-0.69c-3.46,0.37-9.39,1.64-12.88,1.62v0.03l0-0.03
			c-3.48,0.03-9.42-1.21-12.89-1.55c-1.43-0.14-10.14,1.84-13.97,8.12c-3.53,5.79-4.46,26.75-4.46,26.75
			c-2.14,3.99-5.22,16.67,2.18,21.59c11.94,7.94,14.6,14.03,25.06,14l4.26-0.01l0.01-0.03l0,0.03l4.26-0.01
			c10.46-0.03,13.09-6.13,24.99-14.14C231.81,272.77,228.67,260.12,226.5,256.13z"/>
		<path class="st3" d="M201.51,261.41l-3.14-38.68c-0.83,0.08-2.49,0.18-3.34,0.21c-0.81,0.03-1.78,0.06-3.27-0.14l-3.09,38.81
			c-7.89,1.78-15.01,6.64-14.99,13.11c0.01,3.87,5.23,12.39,8.17,15.02c2.53,1.36,5.27,2.14,9.02,2.13l4.26-0.01l0.01-0.03v0.03
			l4.26-0.01c3.74-0.01,6.49-0.8,9.01-2.18c2.93-2.64,8.18-12.78,8.17-16.65C216.57,266.57,209.41,262.74,201.51,261.41z"/>
		<g>
			<path class="st24" d="M216.58,252.9c0.01,2.27-1.15,4.1-2.59,4.11c-1.44,0-2.61-1.83-2.61-4.09c-0.01-2.26,1.15-4.1,2.59-4.11
				C215.41,248.81,216.58,250.64,216.58,252.9z"/>
			<path class="st24" d="M178.77,253c0.01,2.26-1.16,4.1-2.59,4.11c-1.44,0.01-2.61-1.83-2.61-4.09c-0.01-2.26,1.15-4.1,2.59-4.1
				C177.6,248.91,178.77,250.74,178.77,253z"/>
		</g>
		<path class="st25" d="M214.2,222.01c0,0,0.35,0.03,10.99,2.08c6.93,1.34,15.05,3.59,22.94,7.36c4.77,2.29,4.22,9.1,2.86,13.94
			c-2.59,9.27-7.72,30.34-9.97,39.7c-0.7,2.87-4.16,3.76-7.83,1.84c-5.58-2.92-12.61-8.25-12.63-16.56
			c-0.06-20.48-0.12-27.14-0.15-38.31C220.39,227.29,214.2,222.01,214.2,222.01z"/>
		<g>
			<path class="st24" d="M183.59,260.54c0.7-2.89,5.41-3.59,11.32-3.6c7.15-0.02,10.59,0.67,11.19,3.54
				c0.7,3.38-6.03,9.21-11.58,9.22C190,269.71,182.75,264.03,183.59,260.54z"/>
			<g>
				<path class="st24" d="M219.04,273.15c-0.05-0.04-0.13-0.04-0.17,0.01v0c-1.7,1.81-3.55,3.5-5.55,4.97
					c-1,0.74-2.04,1.41-3.13,1.96c-1.09,0.55-2.25,0.99-3.4,1.12c-0.29,0.03-0.57,0.04-0.86,0.03c-0.29-0.01-0.59-0.04-0.88-0.08
					c-0.58-0.08-1.15-0.23-1.71-0.43c-1.11-0.39-2.14-1-3.09-1.7c-0.95-0.71-1.83-1.54-2.62-2.43c-0.4-0.44-0.78-0.91-1.14-1.38
					c-0.18-0.24-0.35-0.48-0.52-0.72c-0.16-0.24-0.34-0.5-0.47-0.71c-0.09-0.14-0.21-0.27-0.36-0.36c-0.09-0.05,0.35-4.63,0.35-4.63
					l-1.86,0c0,0,0.21,4.75,0.07,4.97l-0.01,0.02c-0.13,0.22-0.3,0.48-0.47,0.72c-0.17,0.24-0.34,0.49-0.52,0.72
					c-0.36,0.48-0.74,0.94-1.14,1.38c-0.79,0.89-1.66,1.72-2.61,2.44c-0.95,0.71-1.98,1.32-3.09,1.71c-0.55,0.2-1.12,0.35-1.7,0.44
					c-0.29,0.05-0.58,0.07-0.87,0.09l-0.1,0l-0.11,0l-0.21,0c-0.14,0-0.29-0.02-0.43-0.03c-1.15-0.13-2.3-0.56-3.39-1.11
					c-1.09-0.55-2.14-1.22-3.14-1.95c-2-1.46-3.86-3.14-5.56-4.95l-0.01-0.01c-0.06-0.06-0.15-0.07-0.22-0.02
					c-0.07,0.06-0.08,0.15-0.02,0.22c1.61,1.93,3.37,3.72,5.33,5.34c0.98,0.8,2.01,1.56,3.14,2.21c1.12,0.64,2.34,1.2,3.7,1.43
					c0.17,0.03,0.34,0.05,0.52,0.07c0.08,0,0.17,0.01,0.27,0.02l0.12,0.01l0.13,0c0.34,0,0.68-0.01,1.02-0.04
					c0.68-0.06,1.35-0.2,2-0.39c1.3-0.39,2.5-1,3.6-1.73c1.1-0.73,2.1-1.58,3.03-2.5c0.46-0.46,0.9-0.94,1.32-1.43
					c0.11-0.13,0.21-0.26,0.32-0.38c0.1,0.13,0.2,0.26,0.31,0.38c0.42,0.49,0.87,0.97,1.33,1.42c0.93,0.91,1.94,1.76,3.04,2.48
					c1.1,0.72,2.31,1.33,3.61,1.71c0.65,0.19,1.32,0.32,2,0.37c0.34,0.03,0.68,0.04,1.02,0.03c0.35-0.01,0.7-0.04,1.04-0.1
					c1.36-0.25,2.57-0.81,3.69-1.46c1.11-0.66,2.14-1.42,3.12-2.23c1.94-1.63,3.69-3.44,5.29-5.37
					C219.09,273.26,219.09,273.2,219.04,273.15z"/>
			</g>
		</g>
	</g>
	<g>
		<path class="st22" d="M220.8,314.52c2,7.53,4.76,13.96,11.56,27.17c6.81,13.21,5.6,19.57,0.8,30.78c0,0-5.57-1.15-8.61,4.2
			c-1.1,1.94-3.9,8.81,1.2,8.81c5.02,0,15.02-0.65,17.97-0.65c4.4,0,6.01-4,6.01-10.41c0-5.6,10.86-18.32,8.31-22.82
			c-3.8-6.7-4.5-7.46-3.45-11.41c2.23-8.39,6.39-17.28,6.76-29.13c0.3-9.76-8.41-18.9-22.23-18.9
			C229.2,292.16,217.49,302.05,220.8,314.52z"/>
		<g>
			<path class="st3" d="M251.04,366.3c-2.39-3.36-4.78-7.4-8.9-8.83c-1.62-0.57-3.29-0.79-5.01-0.89c-0.3,4.99-1.64,9.24-4.27,15.37
				c0,0-5.57-0.62-8.71,4.9c-1.14,2-4.03,9.09,1.24,9.09c5.18,0,14.99,0.02,18.03,0.02c4.54,0,6.7-4.83,6.7-11.43
				c0-1.68,0.85-4.53,2.13-7.06C251.8,366.91,251.46,366.88,251.04,366.3z"/>
			<g>
				<path class="st3" d="M224.6,385.56c-0.15-0.93,0.02-1.86,0.34-2.73c0.33-0.87,0.85-1.68,1.56-2.35c0.7-0.67,1.58-1.17,2.52-1.39
					c0.94-0.22,1.92-0.16,2.78,0.21c-0.86,0.38-1.6,0.7-2.27,1.11c-0.66,0.4-1.24,0.85-1.79,1.37c-0.55,0.52-1.06,1.1-1.56,1.73
					C225.67,384.15,225.17,384.82,224.6,385.56z"/>
				<path class="st3" d="M223.46,380.52c-0.16-0.8-0.05-1.64,0.28-2.41c0.33-0.77,0.92-1.47,1.65-1.95
					c0.74-0.48,1.59-0.71,2.41-0.74c0.82-0.02,1.61,0.15,2.35,0.52c-0.74,0.38-1.44,0.61-2.07,0.88c-0.63,0.26-1.2,0.53-1.71,0.86
					c-0.51,0.33-0.98,0.71-1.44,1.19C224.46,379.35,224.02,379.91,223.46,380.52z"/>
				<path class="st3" d="M230.37,385.86c-0.17-0.8-0.05-1.64,0.28-2.41c0.33-0.77,0.92-1.47,1.65-1.95
					c0.73-0.48,1.59-0.71,2.41-0.74c0.82-0.02,1.61,0.15,2.34,0.52c-0.74,0.37-1.44,0.61-2.07,0.87c-0.63,0.26-1.2,0.53-1.71,0.86
					c-0.51,0.33-0.97,0.71-1.44,1.19C231.37,384.68,230.93,385.23,230.37,385.86z"/>
			</g>
		</g>
	</g>
	<g>
		<g>
			<g>
				<g>
					<path class="st22" d="M332.26,385.48c4.04,0,10.12,0,10.12,0c11.74-0.73,8.03-9.99,10.86-15.92
						c3.57-7.45,8.38-21.54,9.35-27.52c0.61-3.71-3.81-5.93-2.96-8.03c14.81-36.59,5.81-66.91-18.86-70.63
						c-11.82-1.78-26.03,7.69-28.5,19.22c-2.72,12.66-5.65,42.86,19.66,58.23c17.35,10.54,6.43,29.06,6.43,29.06
						C327.39,369.89,321.25,385.48,332.26,385.48z"/>
				</g>
			</g>
		</g>
		<path class="st23" d="M331.89,340.83c16.37,9.94,7.05,26.83,5.95,28.71h6.93c4.65-12.33,6.85-31.73-6.76-39.61
			c-16.18-9.37-21.28-42.56-13.45-62.91c-6.08,3.57-10.96,9.26-12.32,15.58C309.51,295.26,306.59,325.46,331.89,340.83z"/>
		<g>
			<g>
				<g>
					<path class="st3" d="M345.44,356.14c-1.31-0.1-2.61-0.19-3.92-0.21c0.15,7.41-3.82,13.76-3.82,13.76
						c-11.19,0-16.86,16.37-5.62,16.37c4.12,0,10.32,0,10.32,0c11.99-0.74,8.19-10.48,11.08-16.52c1.31-2.74,3-6.4,3.95-10.21
						C353.64,357.52,349.79,356.46,345.44,356.14z"/>
				</g>
			</g>
			<g>
				<path class="st3" d="M327.81,384.86c-0.15-0.93,0.02-1.86,0.34-2.73c0.33-0.87,0.86-1.69,1.56-2.35
					c0.7-0.66,1.58-1.17,2.52-1.38c0.94-0.22,1.92-0.17,2.78,0.21c-0.86,0.38-1.6,0.7-2.27,1.12c-0.66,0.4-1.24,0.85-1.79,1.37
					c-0.54,0.52-1.05,1.1-1.56,1.73C328.88,383.45,328.39,384.12,327.81,384.86z"/>
				<path class="st3" d="M326.67,379.83c-0.17-0.81-0.05-1.64,0.27-2.41c0.33-0.77,0.92-1.48,1.65-1.95
					c0.73-0.48,1.59-0.72,2.41-0.74c0.82-0.02,1.61,0.14,2.35,0.52c-0.74,0.38-1.44,0.61-2.07,0.88c-0.64,0.26-1.2,0.53-1.7,0.86
					c-0.51,0.33-0.98,0.71-1.44,1.19C327.67,378.65,327.23,379.2,326.67,379.83z"/>
				<path class="st3" d="M333.28,385.83c-0.17-0.8-0.05-1.64,0.27-2.42c0.33-0.77,0.92-1.47,1.65-1.94
					c0.74-0.48,1.59-0.71,2.41-0.73c0.82-0.02,1.61,0.14,2.35,0.51c-0.74,0.38-1.44,0.61-2.07,0.88c-0.64,0.26-1.2,0.53-1.71,0.86
					c-0.51,0.33-0.98,0.71-1.44,1.19C334.28,384.66,333.84,385.21,333.28,385.83z"/>
			</g>
		</g>
	</g>
</g>
<rect x="-428.91" y="736.13" class="st0" width="423.73" height="423.73"/>
<path class="st27" d="M-405.81,832.62c0,1.57-1.28,2.85-2.85,2.85c-1.57,0-2.85-1.28-2.85-2.85c0-1.57,1.28-2.85,2.85-2.85
	C-407.08,829.78-405.81,831.05-405.81,832.62z"/>
<path class="st27" d="M-34.73,852.85c0,3.82-3.1,6.91-6.91,6.91s-6.91-3.1-6.91-6.91c0-3.82,3.1-6.91,6.91-6.91
	S-34.73,849.04-34.73,852.85z"/>
<path class="st27" d="M-14.18,1050.5c0,5.06-4.1,9.15-9.15,9.15s-9.15-4.1-9.15-9.15s4.1-9.15,9.15-9.15
	S-14.18,1045.45-14.18,1050.5z"/>
<path class="st27" d="M-27.51,968.22c0,2.75-2.23,4.98-4.98,4.98c-2.75,0-4.98-2.23-4.98-4.98c0-2.75,2.23-4.98,4.98-4.98
	C-29.74,963.24-27.51,965.47-27.51,968.22z"/>
<path class="st27" d="M-302.43,765.37c0,1.75-1.42,3.16-3.16,3.16c-1.75,0-3.16-1.41-3.16-3.16c0-1.75,1.42-3.16,3.16-3.16
	C-303.85,762.21-302.43,763.62-302.43,765.37z"/>
<path class="st27" d="M-81.25,803.13c0,1.5-1.21,2.71-2.71,2.71c-1.5,0-2.71-1.21-2.71-2.71c0-1.5,1.22-2.71,2.71-2.71
	C-82.47,800.41-81.25,801.63-81.25,803.13z"/>
<path class="st27" d="M-415.43,971.32c0,1.5-1.21,2.71-2.71,2.71c-1.5,0-2.71-1.21-2.71-2.71c0-1.5,1.21-2.71,2.71-2.71
	C-416.64,968.61-415.43,969.82-415.43,971.32z"/>
<path class="st27" d="M-395.41,1061.76c0,2.75-2.23,4.98-4.98,4.98c-2.75,0-4.98-2.23-4.98-4.98c0-2.75,2.23-4.98,4.98-4.98
	C-397.64,1056.78-395.41,1059.01-395.41,1061.76z"/>
<path class="st27" d="M-368.23,982.58c0,1.94-1.58,3.52-3.52,3.52c-1.94,0-3.52-1.58-3.52-3.52c0-1.94,1.58-3.52,3.52-3.52
	C-369.8,979.06-368.23,980.64-368.23,982.58z"/>
<path class="st27" d="M-367.95,763.55c0,3.57-2.9,6.47-6.47,6.47c-3.57,0-6.47-2.9-6.47-6.47c0-3.57,2.9-6.47,6.47-6.47
	C-370.84,757.08-367.95,759.98-367.95,763.55z"/>
<path class="st27" d="M-42.95,768.91c0,2.96-2.4,5.36-5.36,5.36c-2.96,0-5.36-2.4-5.36-5.36c0-2.96,2.4-5.36,5.36-5.36
	C-45.35,763.55-42.95,765.95-42.95,768.91z"/>
<path class="st28" d="M-235.19,967.22c0,0,2.44-26.18,17.94-20.18c0,0,8.27-15.71,15.95-2.63c0,0,5.47,10.56-2.04,12.92
	c0,0,10.74,2.61,1.17,7.43l-10.87,2.84c0,0,7.47,1.92,6.68,4.83C-207.13,975.35-221.72,986.14-235.19,967.22z"/>
<path class="st28" d="M-229.29,993.18c-0.52-4.19-6.51-6.9-13.38-6.05c-6.14,0.76-10.91,4.1-11.48,7.8
	c-3.21-0.12-5.99,1.93-6.36,4.82c-0.4,3.08,2.1,5.93,5.58,6.38c3.29,0.42,6.28-1.47,6.92-4.28c2.11,0.59,4.6,0.79,7.21,0.46
	C-233.92,1001.45-228.77,997.37-229.29,993.18z"/>
<path class="st29" d="M-208.82,979.11c-0.43-1.05-1.09-1.94-1.87-2.61c1.69-2.67,2.18-7,1.01-11.52c-1.21-4.69-3.89-8.33-6.78-9.74
	c1.15-1.66,1.41-3.99,0.51-6.18c-1.05-2.53-3.35-4.1-5.68-4.1c-0.11-2.75-1.27-5.97-3.42-8.93c-2.9-3.99-6.81-6.43-10.05-6.6
	c0.92-2.5,1.15-5.75,0.47-9.16c-0.91-4.55-3.21-8.21-5.87-9.89c0.55-1.22,0.73-2.67,0.44-4.14c-0.69-3.44-3.71-5.73-6.75-5.12
	c-3.04,0.61-4.95,3.89-4.26,7.32c0.36,1.77,1.33,3.24,2.62,4.16c-1.47,2.61-1.99,6.52-1.16,10.67c1.24,6.21,5.08,10.78,8.89,10.88
	c-0.5,3.08,0.64,7.17,3.31,10.85c3.07,4.23,7.27,6.71,10.62,6.61c0.08,0.58,0.24,1.16,0.47,1.73c0.66,1.59,1.82,2.8,3.17,3.48
	c-1.94,2.61-2.56,7.19-1.32,11.97c1.03,3.97,3.1,7.19,5.47,8.94c-0.87,1.61-1,3.69-0.19,5.65c1.34,3.24,4.75,4.9,7.62,3.72
	C-208.72,985.93-207.48,982.35-208.82,979.11z"/>
<path class="st28" d="M-249.49,887.31c0,0,15.7,44.44,15.7,55.93c0,11.5,32.16,48.9-20.42,59.22c0,0-58.39,0.08-61.93-12.65
	c-3.54-12.72-13.18-82.1,0.42-100.22L-249.49,887.31z"/>
<path class="st29" d="M-235.48,931.65c-0.36,1.17-0.73,2.33-1.14,3.48c-1.76,4.18-4.52,17.43-6.98,21.16
	c-6.64,10.08-13.84,13.77-25.01,16.36c-3.51,0.81-7.42,0.25-10.71,0.88c-7.6,1.46-17.62,2.78-24.86-0.88
	c-7.96-4.02-15.61-19.92-18.42-28.71c-1.18-3.7-0.12-7.83-0.15-11.65c-0.05-5.72,0.07-11.45,0.52-17.16
	c0.49-6.31,1.18-13.57,3.56-19.74c0.15-0.38,0.36-0.86,0.6-1.4c0.36-0.77,0.8-1.67,1.28-2.57c0.01-0.01,0.01-0.01,0.01-0.02
	c0.96-1.83,2.02-3.68,2.7-4.63l0.15,0l48.94,0.84l15.57,0.27c0,0,0.16,0.47,0.42,1.23c0.5,1.46,1.37,3.98,2.19,6.36
	c0.55,1.59,1.19,3.44,1.88,5.48C-242.01,909.59-238.09,921.66-235.48,931.65z"/>
<path class="st29" d="M-311.88,959.07c-1.52-4.57-4.4-8.02-7.37-9.25c0.07-0.41,0.11-0.83,0.11-1.26c0-1.68-0.6-3.21-1.56-4.32
	c0.87-1.09,1.4-2.54,1.4-4.13c3.28-1.41,5.69-6.31,5.69-12.12c0-5.41-2.09-10.02-5.02-11.78c2.01-0.91,3.44-3.14,3.44-5.74
	c0-1.5-0.47-2.87-1.26-3.94c2.58-0.58,4.52-3.14,4.52-6.22c0-3.5-2.51-6.35-5.62-6.35s-5.62,2.84-5.62,6.35
	c0,1.57,0.51,3.01,1.35,4.12c-2.47,0.6-4.33,3.08-4.33,6.05c0,2.34,1.15,4.38,2.86,5.43c-3.24,1.46-5.61,6.32-5.61,12.09
	c0,2.53,0.46,4.89,1.25,6.86c-1.56,1.09-2.6,3.04-2.6,5.26c0,1.68,0.6,3.21,1.56,4.32c-0.87,1.1-1.4,2.54-1.4,4.13
	c0,2.49,1.3,4.64,3.18,5.62c-0.77,2.67-0.66,6.16,0.51,9.7c1.13,3.42,3.04,6.21,5.17,7.92c-1.1,1.13-1.79,2.76-1.79,4.57
	c0,3.42,2.45,6.19,5.48,6.19c3.02,0,5.48-2.77,5.48-6.19c0-1.55-0.51-2.97-1.34-4.06C-310.8,969.91-310.07,964.55-311.88,959.07z"/>
<path class="st28" d="M-313.94,886.78c-0.97,1.5-2.02,3.2-2.85,4.63c0,0.01-0.01,0.01-0.01,0.02c-0.59,1.03-1.08,1.92-1.35,2.51
	c0.03,0.02,0.05,0.04,0.07,0.05c2.08,1.48,5.28,3.53,9.48,5.57c0.02,0.04,12,22.1,20.52,22.21c8.51,0.1,32.24-17.27,32.36-17.36
	c3.49-0.89,7.09-2.03,10.79-3.46c-0.69-2.05-1.33-3.9-1.88-5.48c-0.83-2.38-1.69-4.9-2.19-6.36l-16-1.49L-313.94,886.78z"/>
<path class="st29" d="M-208.88,1001.57c-0.83,5.66-1.77,7.09-4.29,12.25c-0.9,1.84-2.22,3.54-4,4.56c-0.31,0.18-0.64,0.34-0.99,0.47
	c-0.34,0.14-0.69,0.26-1.06,0.36c-2.84,0.79-6.49,0.58-9.55-0.54c-0.44-0.16-0.87-0.34-1.28-0.53c-1.68-0.81-3.09-1.92-3.95-3.3
	c-1.88-3.03-3.55-6.64-3.21-10.29c0.26-2.8,2.1-5.11,3.94-7.1c0.06-0.06,0.13-0.15,0.21-0.24c2.45-2.97-1.4-6.76-2.95-9.15
	c-2.59-4-6.53-5.2-8.57-9.5c-2.61-5.48-5.02-12.15-5.21-18.31c-0.19-6,3.51-13.88,5-19.61c0.25-0.96,1.05-14.61,1.86-14.42
	l15.92,10.01c18.2,26.36,15.76,52.85,15.76,52.85C-209.64,997.44-208.53,999.22-208.88,1001.57z"/>
<path class="st29" d="M-300.17,1008.31c-5.69,9.31-10.34,7.34-14.06,7.35c-0.19,0-0.37,0.01-0.56,0.02
	c-0.18,0.01-0.37,0.02-0.56,0.03c-2.99,0.15-7.77,0.06-9.96,0c-0.63-0.01-1.05-0.03-1.15-0.03c-0.01,0-0.02,0-0.02,0
	s-4.32-0.56-4.82-2.59c-0.51-2.03-0.45-3.27-0.52-6.18c-0.13-5.47,5.85-6.35,5.85-6.35c3.81-3.43,6.48-12.2,7.24-17.92
	c0.77-5.72-3.81-15.25-4.38-19.44c-0.57-4.2-5.53-8.01-4.39-24.41c1.15-16.39,10.76-37.92,10.76-37.92l12.75,14.66l1.02,25.29
	l2.42,24.27c0,0,1.52,21.99,3.68,25.67C-294.71,994.45-300.17,1008.31-300.17,1008.31z"/>
<path class="st30" d="M-312.2,1004.43c-0.48,0.12-0.85,0.37-1.17,0.72c-0.32,0.36-0.58,0.84-0.78,1.42
	c-0.4,1.14-0.54,2.63-0.54,4.05c0,2.42,0.4,4.66,0.44,4.92l0,0.02c0.01,0.03,0.01,0.06,0.01,0.09c-0.19,0-0.37,0.01-0.56,0.02
	c-0.18,0.01-0.37,0.02-0.56,0.03c-0.07-0.42-0.46-2.64-0.46-5.08c0-1.12,0.08-2.3,0.31-3.38c0.24-1.08,0.62-2.08,1.29-2.84
	c0.44-0.5,1.03-0.89,1.73-1.07c0.3-0.07,0.6,0.1,0.68,0.41C-311.71,1004.05-311.9,1004.36-312.2,1004.43z"/>
<path class="st30" d="M-322.63,1003c-0.72,0.2-1.28,0.52-1.74,0.93c-0.46,0.41-0.82,0.92-1.09,1.5c-0.55,1.16-0.75,2.63-0.75,4.09
	c0,2.88,0.78,5.67,0.87,5.99l0.01,0.03c0.02,0.06,0.03,0.12,0.02,0.17c-0.63-0.01-1.05-0.03-1.15-0.03
	c-0.19-0.7-0.87-3.34-0.88-6.16c0-1.17,0.12-2.37,0.45-3.48c0.33-1.12,0.89-2.15,1.77-2.94c0.59-0.52,1.32-0.93,2.19-1.17
	c0.3-0.08,0.6,0.09,0.69,0.39C-322.15,1002.61-322.33,1002.92-322.63,1003z"/>
<path class="st30" d="M-218.16,1018.85c-0.34,0.14-0.69,0.26-1.06,0.36c-1.03-2.67-2.09-5.8-2.09-8.86c0-0.44,0.02-0.88,0.07-1.32
	c0.03-0.31,0.31-0.53,0.62-0.49c0.31,0.03,0.53,0.31,0.5,0.62c-0.04,0.39-0.06,0.79-0.06,1.19
	C-220.2,1013.16-219.19,1016.2-218.16,1018.85C-218.17,1018.85-218.16,1018.85-218.16,1018.85z"/>
<path class="st30" d="M-228.78,1018.67c-0.44-0.16-0.87-0.34-1.28-0.53c-0.98-2.61-1.87-5.54-1.88-8.43c0-0.26,0.01-0.53,0.03-0.79
	c0.02-0.31,0.28-0.55,0.59-0.53c0.31,0.02,0.55,0.28,0.53,0.59c-0.01,0.24-0.02,0.48-0.02,0.72c0,2.85,0.97,5.9,2.02,8.61
	C-228.74,1018.43-228.74,1018.56-228.78,1018.67z"/>
<path class="st28" d="M-283.38,982.55l-7.5,10.79c0,0-10.37,2.69-11.45,8.28c-1.08,5.59-2.64,8.36,2.71,8.57
	c5.35,0.21,8,0.69,8,0.69s19.4-4.82,20.31-9.65c0.91-4.82-1.43-7.52-1.43-7.52L-283.38,982.55z"/>
<path class="st30" d="M-291.79,1003.46c0,0.71-1.41,1.29-3.15,1.29c-1.74,0-3.15-0.58-3.15-1.29c0-0.71,1.41-1.29,3.15-1.29
	C-293.2,1002.18-291.79,1002.75-291.79,1003.46z"/>
<path class="st31" d="M-261.06,247.31c0,0.71-1.41,1.29-3.15,1.29c-1.74,0-3.15-0.58-3.15-1.29s1.41-1.29,3.15-1.29
	C-262.47,246.03-261.06,246.6-261.06,247.31z"/>
<ellipse class="st30" cx="-292.43" cy="1007.37" rx="3.15" ry="1.29"/>
<path class="st30" d="M-279.5,1003.24c0.05,1.21-2.3,2.29-5.26,2.41c-2.95,0.12-5.39-0.75-5.44-1.96c-0.05-1.21,2.3-2.29,5.26-2.41
	C-281.99,1001.15-279.55,1002.03-279.5,1003.24z"/>
<path class="st29" d="M-279.14,958.8c0,0,5.03,10.29,4.46,13.44c-0.57,3.15-7.16,10.29-6.44,14.01c0.72,3.72-0.83,18.59-2.63,22.59
	c-1.8,4-7.23,3.43-8.38,8.58s-7.15,7.72,0,11.15c0,0,2.25,4.1,9.82,2.67c3.39-0.64,5.05-1.24,5.05-1.24s-0.57,4.29,5.43,0.86
	s10.26-15.04,10.26-15.04s5.75-34.15,6.9-39.58c1.14-5.43-0.29-16.59,0-17.44C-254.38,957.95-263.87,946.22-279.14,958.8z"/>
<path class="st30" d="M-276.7,1029.99l0-0.01c0-0.03,0-0.11,0-0.24c0-0.73,0.05-2.92,0.59-5.12c0.27-1.1,0.65-2.19,1.19-3.09
	c0.54-0.9,1.22-1.6,2.09-1.98c0.28-0.13,0.41-0.46,0.29-0.74s-0.46-0.41-0.74-0.29c-1.13,0.5-1.97,1.39-2.59,2.43
	c-0.93,1.56-1.4,3.46-1.65,5.11c-0.25,1.66-0.28,3.08-0.28,3.66c0,0.18,0,0.28,0,0.28c0.01,0.31,0.27,0.55,0.58,0.54
	C-276.93,1030.56-276.69,1030.3-276.7,1029.99L-276.7,1029.99z"/>
<path class="st30" d="M-291.39,1028.23l0-0.02c0.01-0.21,0.16-2.23,0.93-4.49c0.38-1.13,0.92-2.32,1.66-3.38
	c0.74-1.06,1.68-1.98,2.88-2.61c0.27-0.14,0.38-0.48,0.24-0.76c-0.14-0.27-0.48-0.38-0.76-0.24c-1.43,0.75-2.53,1.86-3.36,3.07
	c-1.24,1.83-1.91,3.91-2.28,5.53c-0.37,1.63-0.43,2.8-0.43,2.83c-0.02,0.31,0.22,0.57,0.53,0.59
	C-291.67,1028.78-291.41,1028.54-291.39,1028.23L-291.39,1028.23z"/>
<path class="st29" d="M-313.32,804.06c0,0,0.93-6.67,8.74-7.96c0,0,8.37-8.18,15.38-4.34c0,0,16.36-8.79,28.21,1.57
	c0,0,20.6-0.1,24.14,13.29c0,0,9.64,2.33,9.26,11.73c0,0,11.71,2.88,8.21,17.43c0,0,3.84,38.08-14.93,39.06
	c0,0,0.82,20.67-15.68,22.21c0,0-10.03,11.32-26.39,3.25c0,0-29.34,4.55-33.53-10.24c0,0-19.21-7.73-12.57-22.39
	c0,0-10.26-23.77,7.49-38.32C-314.99,829.35-326.22,813.41-313.32,804.06z"/>
<path class="st32" d="M-255.72,862.69c1.14-7.01-8.05-9.84-8.05-9.84c-1.58-2.47-7.19-3.25-7.19-3.25c-3.18-3.8-7.7-3.59-8.01-3.57
	c-0.29-0.11-4.55-1.62-8.7,1.09c0,0-5.6-0.88-7.82,1.02c0,0-9.62,0.05-10.56,7.08c0,0-10.51,4.74-9.54,13.91
	c0.97,9.17,6.13,15.86,15.65,14.06c0,0,3.58,10.33,15.04,2.78c7.95,10.22,15.2,1.71,15.2,1.71c8.59,4.48,15.47-0.42,19.05-8.92
	C-247.05,870.28-255.72,862.69-255.72,862.69z"/>
<path class="st30" d="M-283.47,872.85c0,0-4.48-1.8-5.33-3.12c-0.86-1.32-1.99-6.33-1.61-7.45c0.38-1.12,0.5-1.4,0.5-1.4
	s1.95-3.58,5-2.29c5.43,2.3,9.14-0.22,10.58,2.21c1.44,2.43,1.1,5.42-0.93,8.27C-276.87,871.31-279.83,873.14-283.47,872.85z"/>
<path class="st30" d="M-298.15,875.1c0.04,0.07,0.35,0.61,1.09,1.15c0.37,0.27,0.84,0.54,1.42,0.73c0.58,0.2,1.28,0.32,2.09,0.32
	c0.42,0,0.87-0.03,1.35-0.11l-0.12-0.74l-0.41,0.63c0.03,0.02,0.72,0.47,1.83,0.91c1.11,0.45,2.65,0.9,4.4,0.9
	c0.64,0,1.31-0.06,1.99-0.21c0.3-0.07,0.53-0.31,0.58-0.62c0,0,0.25-1.54,0.5-3.21c0.13-0.83,0.26-1.7,0.36-2.41
	c0.05-0.36,0.09-0.68,0.13-0.95c0.03-0.27,0.05-0.48,0.06-0.64c0.02-0.41-0.3-0.77-0.72-0.79c-0.41-0.02-0.77,0.3-0.79,0.72
	c0,0.08-0.02,0.28-0.05,0.53c-0.11,0.89-0.35,2.53-0.57,3.93c-0.11,0.7-0.21,1.35-0.29,1.82c-0.07,0.47-0.12,0.76-0.12,0.76
	l0.74,0.12l-0.16-0.73c-0.56,0.12-1.12,0.18-1.67,0.18c-1.48,0-2.84-0.39-3.83-0.79c-0.49-0.2-0.89-0.4-1.17-0.55
	c-0.14-0.07-0.24-0.13-0.31-0.18c-0.03-0.02-0.06-0.04-0.08-0.05l-0.02-0.01l0,0l-0.14,0.21l0.14-0.21l0,0l-0.14,0.21l0.14-0.21
	c-0.16-0.1-0.34-0.14-0.53-0.11c-0.41,0.06-0.78,0.09-1.11,0.09c-0.65,0-1.18-0.1-1.61-0.25c-0.64-0.22-1.07-0.53-1.34-0.79
	c-0.13-0.13-0.23-0.24-0.28-0.32c-0.03-0.04-0.05-0.07-0.06-0.08l-0.01-0.01l-0.07,0.04l0.07-0.04l0,0l-0.07,0.04l0.07-0.04
	l-0.45,0.26l0.45-0.25l0-0.01l-0.45,0.26l0.45-0.25c-0.2-0.36-0.66-0.49-1.02-0.29S-298.35,874.74-298.15,875.1L-298.15,875.1z"/>
<path class="st30" d="M-271.91,877.99l0.35,0.37L-271.91,877.99L-271.91,877.99l0.35,0.37L-271.91,877.99l0.05,0.04L-271.91,877.99
	L-271.91,877.99l0.05,0.04L-271.91,877.99c0,0-0.19,0.17-0.55,0.34c-0.36,0.17-0.87,0.33-1.56,0.33c-0.66,0-1.49-0.15-2.5-0.63
	c-0.17-0.08-0.36-0.09-0.54-0.04l0.03,0.09l-0.03-0.09l0,0l0.03,0.09l-0.03-0.09c-0.03,0.01-1.23,0.35-2.83,0.35
	c-1.32,0-2.9-0.23-4.35-1.03l-0.36,0.66l0.75,0.1c0,0,0.01-0.1,0.03-0.27c0.08-0.6,0.28-2.11,0.48-3.56c0.1-0.73,0.21-1.45,0.3-2.03
	c0.05-0.29,0.09-0.55,0.12-0.75c0.04-0.2,0.07-0.36,0.08-0.43c0.1-0.4-0.14-0.81-0.55-0.91c-0.4-0.1-0.81,0.14-0.91,0.55
	c-0.04,0.16-0.08,0.36-0.12,0.63c-0.16,0.93-0.39,2.56-0.58,3.98c-0.19,1.41-0.35,2.6-0.35,2.6c-0.04,0.31,0.11,0.61,0.38,0.76
	c1.75,0.96,3.58,1.22,5.07,1.22c1.87,0,3.21-0.4,3.26-0.41l-0.21-0.72l-0.32,0.68c1.19,0.57,2.25,0.78,3.15,0.78
	c0.99,0,1.77-0.26,2.29-0.52c0.53-0.26,0.81-0.53,0.86-0.57c0.3-0.29,0.31-0.77,0.02-1.06
	C-271.13,877.71-271.61,877.7-271.91,877.99L-271.91,877.99z"/>
<path class="st28" d="M-313.87,839.01c4.32-10.91,7.86-20.31,7.89-21.85c0.08-3.96-6.31-9.57-6.31-9.57s-12.45-1.91-21.61,6.14
	c0,0-12.39,4.58-16.03,13.54c0,0-16.62,23.73-7.41,35.2c0,0-0.32,4.49,3.45,4.33c0,0-2.69,8.54,4.93,8.87c0,0,0.49,8.26,8.85,2.41
	c0,0,5.73,3.95,10.75-1.03c11.57-0.64,5.58-13.52,5.58-13.52c0.05-0.13,0.1-0.25,0.16-0.38c7.86-1.11,6.11-8.73,5-11.96
	c0.34,0.25,0.56,0.4,0.56,0.4C-309.46,849.59-312.12,842.35-313.87,839.01z"/>
<path class="st28" d="M-238.93,845.11c-2.5-11.47-4.47-21.31-4.26-22.84c0.56-3.92,7.78-8.43,7.78-8.43s12.6,0.13,20.33,9.55
	c0,0,11.49,6.52,13.63,15.95c0,0,12.57,26.11,1.62,35.93c0,0-0.41,4.48-4.11,3.71c0,0,1.28,8.87-6.3,7.96c0,0-1.82,8.07-9.12,0.95
	c0,0-6.29,2.97-10.44-2.75c-11.31-2.51-3.32-14.24-3.32-14.24c-0.03-0.13-0.06-0.27-0.09-0.4c-7.57-2.37-4.62-9.61-3-12.61
	c-0.37,0.2-0.61,0.31-0.61,0.31C-244.99,854.84-241.2,848.12-238.93,845.11z"/>
<path class="st28" d="M-281.33,824.64L-281.33,824.64c-0.05-0.08-1.04-1.6-2.01-3.64c-0.48-1.02-0.96-2.16-1.32-3.31
	c-0.35-1.14-0.58-2.29-0.58-3.3c0-0.53,0.06-1.01,0.19-1.44c0.12-0.41-0.11-0.83-0.52-0.95c-0.41-0.12-0.83,0.11-0.95,0.52
	c-0.18,0.6-0.25,1.23-0.25,1.88c0,1.25,0.27,2.55,0.66,3.81c0.59,1.89,1.46,3.7,2.18,5.04c0.72,1.34,1.3,2.22,1.31,2.23
	c0.23,0.35,0.71,0.45,1.06,0.22C-281.2,825.47-281.1,825-281.33,824.64L-281.33,824.64z"/>
<path class="st28" d="M-272.22,825.47c-1.4-2.16-2.59-4.53-3.33-6.96c-0.12-0.41-0.56-0.63-0.96-0.51
	c-0.41,0.12-0.63,0.56-0.51,0.96c0.8,2.6,2.05,5.09,3.51,7.35c0.23,0.36,0.71,0.46,1.06,0.23
	C-272.09,826.3-271.99,825.82-272.22,825.47L-272.22,825.47z"/>
<path class="st33" d="M-262.9,852.89c1.38-0.2,2.59-0.77,4.01-0.92c1.68-0.18,3.42-0.46,5.1-0.39c1.23,0.06,8.36,0.2,10.71,0.19
	c0,0,0.01,0,0.01,0c0.67-0.04,0.77-1.07,0.12-1.23c-9.06-2.31-13.78-2.52-19.98,1.74c-0.1,0.07-0.23,0.17-0.19,0.38
	C-263.12,852.65-262.95,852.89-262.9,852.89z"/>
<path class="st33" d="M-292.91,846.76c-1.3-0.51-2.35-1.34-3.7-1.81c-1.6-0.56-3.22-1.23-4.87-1.54c-1.21-0.23-8.19-1.71-10.47-2.25
	c0,0-0.01,0-0.01,0c-0.65-0.19-0.51-1.21,0.16-1.23c9.35-0.19,13.99,0.68,19.06,6.24c0.09,0.09,0.19,0.22,0.1,0.41
	C-292.64,846.58-292.86,846.78-292.91,846.76z"/>
<path class="st34" d="M-81.06,918.1c0-0.01-0.02-0.03-0.03-0.04c-2.69-3.52-6.4-6.43-10.5-6.46l-0.01,0c-0.13-0.01-0.26-0.01-0.4,0
	c-1.17,0.03-2.37,0.3-3.58,0.88c-0.08,0.04-0.16,0.07-0.24,0.11c-0.09,0.04-0.17,0.08-0.25,0.12c-0.44,0.23-0.87,0.49-1.32,0.8
	c-0.13,0.09-0.26,0.19-0.39,0.28c-0.03,0.02-0.04,0.04-0.07,0.06c-0.12,0.1-0.24,0.19-0.35,0.29c-2.62,2.21-4.23,5.65-3.76,9.39
	c0.09,0.66,0.23,1.3,0.42,1.93c0.07,0.26,0.15,0.52,0.24,0.77c0.34,0.95,0.77,1.86,1.25,2.76l0.01,0.03
	c0.5,0.75,0.96,1.47,1.37,2.15c0.94,1.57,1.65,2.98,2.18,4.22c0.34,0.81,0.59,1.53,0.78,2.19l0.03,0.08
	c0.03,0.11,0.06,0.21,0.08,0.32c0.08,0.3,0.15,0.58,0.2,0.86c0.02,0.06,0.03,0.13,0.05,0.19c0.04,0.21,0.07,0.42,0.1,0.62
	c0.02,0.23,0.06,0.45,0.07,0.68c0.01,0.17,0.02,0.36,0.02,0.53c0,0.04,0.01,0.08,0.01,0.12c-0.01,1.02-0.18,2.03-0.58,2.99
	c-0.05,0.13-0.11,0.26-0.18,0.41c-0.07,0.13-0.14,0.27-0.21,0.39c-0.03,0.05-0.06,0.09-0.1,0.15c-0.07,0.13-0.14,0.25-0.23,0.38
	c-0.11,0.17-0.23,0.34-0.36,0.49c-1.11,1.43-2.63,2.54-4.19,3.49c-7.42,4.54-18.29,8.1-27.1,7.99c-0.87-1.76-5.75,2.5-6.45,3.14
	c-5.54,5.11-4.3,13.6,2.14,17.3c10.57,6.05,26.95-1.73,36.75-6.4c8.33-3.96,15.69-10.05,19.58-18.57c2.08-4.56,2.84-9.23,2.57-13.87
	c-0.01-0.34-0.04-0.68-0.07-1.01c-0.27-3.04-0.96-6.06-1.99-9.01L-81.06,918.1z"/>
<path class="st35" d="M-75.6,928.88c1.03,2.95,1.71,5.97,1.99,9.01c0.03,0.33,0.05,0.67,0.07,1.01c-3.46,1.64-7.08,3.01-10.71,4.12
	c-2.13,0.66-4.28,1.26-6.46,1.75c-1.83,0.41-4.21,1.19-6.13,1.04c0.13-0.15,0.25-0.32,0.36-0.49c0.08-0.12,0.16-0.24,0.23-0.38
	c1.25-2.33,1.25-4.97,0.5-7.48c-0.7-2.34-1.96-4.46-3.17-6.58c-1.32-2.29-2.71-4.69-3.06-7.34c-0.71-5.73,3.76-11.45,9.58-11.9
	c4.69-0.36,8.62,2.9,11.3,6.41c0,0.01,0.02,0.03,0.03,0.04L-75.6,928.88z"/>
<path class="st34" d="M-156.71,896.48c-8.25-0.83-16.72,1.3-24.38,7.61c-12.09,9.95-15.32,27.68-16.71,42.43
	c-1.57,16.81-0.24,34.2,5,50.31c5.41,16.6,19.86,30.38,38.31,28.38c11.87-1.29,22.36-9.22,29.02-18.79
	c15.52-22.28,16.93-53.75,7.27-78.57C-124.01,912.88-139.95,898.18-156.71,896.48z"/>
<path class="st35" d="M-176.09,841.96c0.78-1.23-11.86-6.16-13.1-6.62c-4.18-1.52-8.46-2.77-12.8-3.73
	c-2.01-0.44-8.06-2.47-9.22,0.29c-0.92,2.19-0.32,5.96-0.01,8.2c0.64,4.73,1.77,9.24,3.12,13.82c1.73,5.86,4.47,11.67,7.41,17.04
	c0.92,1.68,1.37,3.66,2.6,5.14C-198.1,876.11-176.23,842.18-176.09,841.96z"/>
<path class="st34" d="M-146.59,839.94c0,0,26.52,30.81,26.54,30.83c-0.45-0.52,1.9-5.26,2.12-5.89c3.62-10,5.81-20.75,5.88-31.4
	c0.02-2.64,0.25-5.93-1.15-8.29c-1.74-2.94-9.03,0.93-11.25,1.8c-6.83,2.69-13.3,6.15-19.45,10.15c-0.87,0.56-2.43,1.57-2.67,2.65
	C-146.58,839.85-146.58,839.89-146.59,839.94z"/>
<path class="st36" d="M-119.03,832.51c-0.97-1.14-2.56-0.89-4.34-0.37c-3.66,1.07-7.19,2.53-10.59,4.23c-2.02,1-4.05,1.97-6.01,3.09
	c-0.95,0.54-1.88,1.11-2.77,1.75c-2.78,1.97,2.3,4.76,3.61,5.84c2.62,2.16,4.42,5.12,6.4,7.83c1.47,2.02,2.91,4.06,4.56,5.94
	c1.04,1.19,4.55,5.8,6.28,3.27c0.75-1.09,0.86-2.53,1.07-3.8c0.26-1.56,0.74-3.06,1.1-4.6c0.9-3.82,1.4-7.75,1.67-11.67
	c0.21-3.19,0.53-6.89-0.28-10.04C-118.49,833.34-118.73,832.86-119.03,832.51z"/>
<path class="st36" d="M-191.94,858.95c0.71-1.44,1.53-2.81,2.53-4.11c1.57-2.04,3.33-3.92,5.12-5.76c0.42-0.44,4.76-5.36,5.05-5.22
	c-2.35-1.1-4.76-2.08-7.18-2.84c-3.8-1.2-7.55-2.2-11.49-2.8c-1.87-0.29-5-0.83-6.84-0.08c-2.1,0.86-0.66,6.24-0.28,8.02
	c0.88,4.19,2.05,8.63,3.58,12.62c0.84,2.2,1.72,4.45,2.68,6.6c0.41,0.93,1.04,2.82,2.38,2.35c1.56-0.54,2.22-3.52,2.75-4.87
	C-193.12,861.53-192.57,860.22-191.94,858.95z"/>
<path class="st37" d="M-212.12,898.21c2.18,5.25,5.77,10.08,10.92,14.02c3.71,2.84,8.65,5.02,14.33,6.57
	c6.63,1.82,14.26,2.78,22.09,2.95c0,0,0.01,0,0.01,0c6.64,0.15,13.43-0.27,19.86-1.22l0.01,0c7.86-1.16,15.19-3.1,21.09-5.75
	c0.34-0.15,0.67-0.31,1.01-0.47c4.28-2.04,8.37-4.74,11.24-7.74c6.96-7.3,8.96-16.78,8.03-25.93c0-0.03-0.01-0.06-0.01-0.09
	c-0.07-0.72-0.17-1.44-0.27-2.15c-0.16-1.05-0.36-2.1-0.6-3.13c-0.99-4.42-2.6-8.64-4.59-12.36c-1.3-2.43-3.03-4.71-5.11-6.83
	c0,0,0,0,0,0c-1.24-1.26-2.61-2.47-4.09-3.6c0,0,0,0,0-0.01c-6.16-4.72-14.21-8.29-22.95-10.3l0,0c-0.07-0.02-0.14-0.03-0.21-0.05
	c-1.51-0.34-3.04-0.64-4.58-0.89c-1.07-0.17-2.15-0.32-3.24-0.45c-1.82-0.21-3.66-0.35-5.5-0.42c-0.7-0.03-1.39-0.04-2.09-0.05
	c-0.13,0-0.26,0-0.39,0c-0.55,0-1.1,0-1.64,0.01c-0.98,0.02-1.95,0.06-2.92,0.12c-0.87,0.05-1.73,0.12-2.59,0.21
	c-1.35,0.13-2.69,0.31-4.02,0.51c-1.35,0.21-2.69,0.46-4.02,0.75c-0.47,0.1-0.93,0.2-1.4,0.31c-0.69,0.17-1.37,0.33-2.05,0.52l0,0
	c-1.71,0.46-3.4,0.98-5.04,1.55l0,0c-8.26,2.87-15.61,7.14-21.23,12.34l0,0c-1.32,1.22-2.54,2.49-3.66,3.8l0,0
	c-1.68,1.98-3.12,4.05-4.28,6.21c-2.66,4.94-4.24,10.37-4.6,15.84c-0.12,1.79-0.11,3.58,0.03,5.36c0.03,0.43,0.08,0.86,0.13,1.29
	C-214.12,892.24-213.34,895.29-212.12,898.21z"/>
<path class="st34" d="M-212.64,896.73c0.07,0.18,0.15,0.35,0.23,0.53c7.21,16.3,23.69,21.03,39.97,22.88
	c24.69,2.79,66.01-2.91,68.78-34.27c1.55-17.52-11.86-35.46-27.67-41.92c-23.2-9.48-52.68-6-71.38,11.26
	C-213.92,865.54-218.67,882.43-212.64,896.73z"/>
<path class="st35" d="M-215.08,887.71c0.37,1.37,0.82,2.72,1.34,4.05c7.17,2.53,15.45,2.97,23.78,0.77
	c20.06-5.31,30.27-23.48,29.37-41.71c-0.27-5.44-0.79-11.87-1.76-11.81c-0.87,0.05-1.73,0.12-2.59,0.21
	c-1.35,0.13-2.69,0.31-4.02,0.51c-1.35,0.21-2.69,0.46-4.02,0.75c-0.47,0.1-0.93,0.2-1.4,0.31c-0.69,0.17-1.37,0.33-2.05,0.52l0,0
	c-1.71,0.46-3.4,0.98-5.04,1.55l0,0c-8.26,2.87-15.61,7.14-21.23,12.34l0,0c-1.32,1.22-2.54,2.49-3.66,3.8l0,0
	c-1.68,1.98-3.12,4.05-4.28,6.21c-2.66,4.94-4.24,10.37-4.6,15.84c-0.12,1.79-0.11,3.58,0.03,5.36
	C-215.18,886.85-215.13,887.28-215.08,887.71z"/>
<path class="st33" d="M-143.65,883.82c1.55-0.61,2.8-1.61,4.41-2.18c1.91-0.67,3.84-1.48,5.82-1.86c1.45-0.27,9.78-2.07,12.51-2.73
	c0,0,0.01,0,0.01,0c0.77-0.23,0.61-1.45-0.2-1.47c-11.17-0.19-16.72,0.86-22.75,7.53c-0.1,0.11-0.23,0.26-0.12,0.49
	C-143.98,883.61-143.71,883.84-143.65,883.82z"/>
<path class="st33" d="M-175.73,886.17c-1.65-0.23-3.1-0.92-4.8-1.09c-2.01-0.21-4.08-0.54-6.09-0.45c-1.47,0.07-9.99,0.27-12.8,0.26
	c0,0-0.01,0-0.01,0c-0.8-0.04-0.93-1.27-0.15-1.47c10.81-2.79,16.46-3.06,23.88,2.01c0.12,0.09,0.28,0.2,0.23,0.45
	C-175.46,885.88-175.67,886.17-175.73,886.17z"/>
<path class="st3" d="M-157.67,896.66c0.45,4.54-3.01,8.54-7.73,8.94c-4.72,0.39-8.92-2.97-9.37-7.52c-0.45-4.54,3-8.54,7.73-8.94
	C-162.32,888.75-158.13,892.12-157.67,896.66z"/>
<path class="st3" d="M-158.68,896.44c-0.45-4.54,3.01-8.54,7.73-8.94c4.72-0.39,8.92,2.97,9.37,7.52c0.45,4.54-3,8.55-7.73,8.94
	c-3.16,0.26-6.08-1.16-7.81-3.48L-158.68,896.44z"/>
<path class="st38" d="M-161.03,895.12l-5.41-4.34c-0.87-0.7-0.33-1.97,0.87-2.07l12.64-1.05c1.19-0.1,1.91,1.05,1.19,1.88
	l-4.48,5.18C-157.41,896.11-159.57,896.29-161.03,895.12z"/>
<path class="st38" d="M-158.34,896.72c0.04,0.39,0.05,0.78,0.02,1.16c-0.1,1.85-0.9,3.53-2.17,4.81c-1.27,1.27-3,2.12-4.98,2.28
	c-0.41,0.03-0.81,0.04-1.2,0.01c-1.92-0.12-3.69-0.9-5.02-2.14c-1.33-1.23-2.23-2.91-2.42-4.81c-0.04-0.35-0.36-0.61-0.73-0.58
	c-0.37,0.03-0.64,0.34-0.6,0.7c0.22,2.22,1.27,4.18,2.83,5.62c1.56,1.44,3.62,2.36,5.87,2.5c0.46,0.03,0.93,0.02,1.4-0.01
	c2.3-0.19,4.34-1.18,5.82-2.67c1.48-1.48,2.42-3.46,2.54-5.62c0.03-0.44,0.02-0.89-0.03-1.35c-0.04-0.35-0.36-0.62-0.73-0.58
	C-158.11,896.05-158.38,896.36-158.34,896.72L-158.34,896.72z"/>
<path class="st38" d="M-142.25,895.07c0.04,0.39,0.05,0.78,0.03,1.16c-0.1,1.85-0.9,3.53-2.17,4.8c-1.27,1.27-3,2.12-4.98,2.28
	c-0.41,0.03-0.81,0.04-1.2,0.01c-2.44-0.15-4.63-1.38-6-3.23c-0.22-0.29-0.63-0.36-0.93-0.16c-0.3,0.2-0.37,0.6-0.15,0.89
	c1.6,2.16,4.16,3.59,7.01,3.77c0.46,0.03,0.93,0.02,1.4-0.01c2.31-0.19,4.34-1.18,5.82-2.67c1.48-1.48,2.42-3.46,2.54-5.62
	c0.03-0.44,0.02-0.89-0.03-1.35c-0.04-0.35-0.36-0.62-0.73-0.58C-142.02,894.41-142.29,894.72-142.25,895.07L-142.25,895.07z"/>
<path class="st38" d="M-156.82,899.81l-0.37-3.7c-0.04-0.35-0.36-0.62-0.73-0.58c-0.37,0.03-0.64,0.34-0.6,0.7l0.37,3.7
	c0.04,0.35,0.36,0.62,0.73,0.58C-157.06,900.48-156.79,900.17-156.82,899.81L-156.82,899.81z"/>
<path class="st37" d="M-196.45,1009.58c0.24,3.44,0.69,6.88,1.38,10.17c1.19,5.66,3.1,10.84,5.92,14.72
	c1.83,2.51,4.25,4.47,6.62,5.67c6.06,3.07,14.33,2.55,21.44-0.95l0,0c0.89-0.44,1.76-0.92,2.6-1.45c0.16-0.1,0.32-0.2,0.48-0.31
	c4.32-2.82,7.94-6.85,9.96-11.92c1.27-3.19,2.13-6.68,2.61-10.31c0.19-1.43,0.33-2.88,0.4-4.35c0,0,0,0,0,0
	c0.09-1.64,0.11-3.3,0.06-4.96l0,0c-0.03-1.21-0.1-2.43-0.2-3.64c-0.05-0.65-0.12-1.29-0.19-1.94l0,0
	c-0.15-1.37-0.35-2.74-0.58-4.09c0-0.03-0.01-0.05-0.01-0.08c-0.5-2.88-1.19-5.69-2.03-8.35c-0.25-0.8-0.52-1.59-0.8-2.36
	c-0.45-1.23-0.93-2.43-1.44-3.57c-0.06-0.14-0.12-0.27-0.19-0.41c-0.36-0.78-0.74-1.54-1.14-2.27c-0.98-1.8-2.08-3.46-3.28-4.96
	c-1.28-1.61-2.67-3.03-4.13-4.26l-0.01-0.01l0,0c-4.44-3.7-9.61-5.57-14.71-5.03c-0.6,0.06-1.2,0.16-1.8,0.29
	c-1.21,0.26-2.4,0.67-3.57,1.22c-2.25,1.04-4.4,2.57-6.38,4.5c-0.54,0.53-1.07,1.08-1.58,1.67c-2.38,2.7-4.44,6-6.03,9.69
	c0,0,0,0,0,0c-1.59,3.7-2.69,7.8-3.14,12.1C-196.69,999.03-196.82,1004.29-196.45,1009.58z"/>
<path class="st37" d="M-155.76,1081.33c-0.33,0.22-0.71,0.42-1.13,0.58c-0.67,0.28-1.45,0.5-2.32,0.65
	c-0.57,0.09-1.17,0.14-1.83,0.15c-0.43,0.03-0.9,0.03-1.38,0.01c-0.14,0-0.29-0.01-0.44-0.02c-2.98-0.16-5.58-2.1-6.68-4.9
	c-1.02-2.6-2.64-6.44-5.11-11.6c-5.12-10.74-13.01-14.67-15.29-18.07c-1.59-2.36-1.29-10.86-0.94-15.88
	c0.01-0.15,0.01-0.3,0.02-0.45c0.16-1.99,0.29-3.34,0.29-3.34s6.35-12.86,13.65-13.87c3.86-0.53,7.99,2.25,11.59,12.01
	c0,0-1.48,5.07-0.23,13.09c0.05,0.4,0.13,0.8,0.21,1.19c1.05,5.74,3.51,12.82,8.76,20.58c0,0,4.64,8.46,3.87,14.71
	c-0.09,0.73-0.26,1.42-0.51,2.07C-153.71,1079.47-154.51,1080.55-155.76,1081.33z"/>
<path class="st34" d="M-197.98,1008.59c0.54,6.3,1.95,12.22,4.02,16.96c5.09,11.63,18.06,19.16,30.49,13.71
	c16.97-7.43,21-28.97,17.26-45.39c-3.18-13.95-13.25-34.31-30.86-29.19C-194.07,969.62-199.53,990.61-197.98,1008.59z"/>
<path class="st34" d="M-155.92,1080.9c-0.3,0.28-0.66,0.53-1.05,0.76c-0.63,0.37-1.37,0.68-2.23,0.9c-0.04,0-0.07,0-0.11,0.02
	c-0.51,0.12-1.07,0.21-1.67,0.27c-0.43,0.05-0.88,0.07-1.34,0.08c-0.53,0.01-1.09,0-1.69-0.03c-3.03-0.17-5.68-2.14-6.83-4.95
	c-1.04-2.61-2.73-6.47-5.25-11.65c-5.26-10.79-13.3-14.76-15.63-18.19c-2.01-2.94-1.12-15.36-0.83-18.82
	c0.03-0.49,0.07-0.8,0.07-0.89c0.01-0.01,0.01-0.01,0.01-0.01s7.42-14.95,15.55-13.81c0.01-0.01,0.02,0,0.02,0
	c3.39,0.48,6.9,3.75,10.06,12.09c0,0-1.53,5.2-0.1,13.44c0.05,0.38,0.13,0.77,0.21,1.17c1.13,5.7,3.67,12.7,8.97,20.37
	c0,0,3.71,6.62,4.05,12.49l0.01,0.01c0.06,0.92,0.02,1.82-0.12,2.68C-154.07,1078.41-154.73,1079.83-155.92,1080.9z"/>
<path class="st37" d="M-145.79,997.4c0.24,3.44,0.69,6.88,1.38,10.17c1.19,5.66,3.1,10.84,5.92,14.72c1.83,2.51,4.25,4.47,6.62,5.67
	c6.06,3.07,14.33,2.55,21.44-0.95h0c0.89-0.44,1.76-0.92,2.6-1.45c0.16-0.1,0.32-0.2,0.48-0.31c4.32-2.82,7.94-6.85,9.96-11.92
	c1.27-3.19,2.13-6.68,2.61-10.31c0.19-1.43,0.33-2.88,0.4-4.35c0,0,0,0,0,0c0.09-1.64,0.11-3.3,0.06-4.96l0,0
	c-0.03-1.21-0.1-2.43-0.2-3.64c-0.05-0.65-0.12-1.29-0.19-1.94l0,0c-0.15-1.37-0.35-2.74-0.58-4.09c0-0.03-0.01-0.05-0.01-0.08
	c-0.5-2.88-1.19-5.69-2.03-8.35c-0.25-0.8-0.52-1.59-0.8-2.36c-0.45-1.23-0.93-2.43-1.44-3.57c-0.06-0.14-0.12-0.27-0.19-0.41
	c-0.36-0.78-0.74-1.54-1.14-2.27c-0.98-1.8-2.08-3.46-3.28-4.96c-1.28-1.61-2.67-3.03-4.13-4.26l-0.01-0.01l0,0
	c-4.44-3.7-9.61-5.57-14.71-5.03c-0.6,0.06-1.2,0.16-1.8,0.29c-1.21,0.26-2.4,0.67-3.57,1.22c-2.25,1.04-4.4,2.57-6.38,4.5
	c-0.54,0.53-1.07,1.08-1.58,1.67c-2.38,2.7-4.44,6-6.03,9.69c0,0,0,0,0,0c-1.59,3.7-2.69,7.8-3.14,12.1
	C-146.03,986.86-146.16,992.12-145.79,997.4z"/>
<path class="st37" d="M-105.1,1069.16c-0.33,0.22-0.71,0.42-1.13,0.58c-0.67,0.28-1.45,0.5-2.32,0.65
	c-0.57,0.09-1.17,0.14-1.83,0.15c-0.43,0.03-0.9,0.03-1.38,0.01c-0.14,0-0.29-0.01-0.44-0.02c-2.98-0.16-5.58-2.09-6.68-4.9
	c-1.02-2.6-2.64-6.44-5.11-11.6c-5.12-10.74-13.01-14.67-15.29-18.07c-1.59-2.36-1.29-10.86-0.94-15.88
	c0.01-0.15,0.01-0.3,0.02-0.45c0.16-1.99,0.29-3.34,0.29-3.34s6.35-12.86,13.65-13.87c3.86-0.53,7.99,2.25,11.59,12.01
	c0,0-1.48,5.07-0.23,13.09c0.05,0.4,0.13,0.8,0.21,1.19c1.05,5.74,3.51,12.82,8.76,20.58c0,0,4.64,8.46,3.87,14.71
	c-0.09,0.73-0.26,1.42-0.51,2.07C-103.05,1067.3-103.85,1068.38-105.1,1069.16z"/>
<path class="st34" d="M-147.32,996.41c0.54,6.3,1.95,12.22,4.02,16.96c5.09,11.63,18.06,19.16,30.49,13.71
	c16.97-7.43,21-28.97,17.26-45.39c-3.18-13.95-13.25-34.31-30.86-29.19C-143.41,957.45-148.87,978.44-147.32,996.41z"/>
<path class="st34" d="M-105.26,1068.73c-0.3,0.28-0.66,0.53-1.05,0.76c-0.63,0.37-1.37,0.68-2.23,0.9c-0.04,0-0.07,0-0.11,0.02
	c-0.51,0.12-1.07,0.21-1.67,0.27c-0.43,0.05-0.88,0.07-1.34,0.08c-0.53,0.01-1.09,0-1.69-0.03c-3.03-0.17-5.68-2.14-6.83-4.95
	c-1.04-2.61-2.73-6.47-5.25-11.65c-5.26-10.79-13.3-14.76-15.63-18.19c-2.01-2.94-1.12-15.36-0.83-18.82
	c0.03-0.49,0.07-0.8,0.07-0.89c0.01-0.01,0.01-0.01,0.01-0.01s7.42-14.95,15.55-13.81c0.01-0.01,0.02,0,0.02,0
	c3.39,0.48,6.9,3.75,10.06,12.09c0,0-1.53,5.2-0.1,13.44c0.05,0.38,0.14,0.77,0.21,1.17c1.13,5.7,3.67,12.7,8.97,20.37
	c0,0,3.71,6.62,4.05,12.49l0.01,0.01c0.06,0.92,0.02,1.82-0.12,2.68C-103.41,1066.23-104.07,1067.65-105.26,1068.73z"/>
<path class="st34" d="M-135.32,963.28l-8.6,26.53c0,0,20.81,1.41,22.83-0.72C-119.07,986.96-135.32,963.28-135.32,963.28z"/>
<ellipse class="st1" cx="-214.15" cy="1117.74" rx="163" ry="17.98"/>
<path class="st3" d="M-212.22,931.88c-6.33,0-12.14,1.88-16.74,5.02c0.11-0.83,0.16-1.68,0.16-2.53c0-12.76-12.05-23.09-26.91-23.09
	c-9.26,0-17.43,4.02-22.27,10.13c-1.92-3.33-5.67-5.59-9.98-5.59c-4.96,0-9.17,3-10.71,7.17c-0.75-0.05-1.51-0.09-2.28-0.09
	c-3.23,0-6.26,0.49-8.9,1.34c0.09-0.44,0.15-0.89,0.15-1.34c0-5.89-8.2-10.67-18.32-10.67c-10.12,0-18.31,4.78-18.31,10.67
	c0,0.65,0.1,1.28,0.29,1.89c-0.9-0.06-1.82-0.1-2.75-0.1c-12.68,0-22.96,5.99-22.96,13.38c0,6.18,7.19,11.38,16.97,12.92
	c-0.01,0.15-0.02,0.31-0.02,0.46c0,5.89,8.2,10.67,18.32,10.67c5.63,0,10.66-1.48,14.02-3.81c2.13,1.75,5.13,3.11,8.65,3.87
	c3.24,9.64,13.58,16.69,25.86,16.69c14.38,0,26.13-9.68,26.87-21.86c1.74,0.3,3.54,0.46,5.38,0.46c6.33,0,12.14-1.88,16.74-5.02
	c-0.11,0.83-0.16,1.68-0.16,2.53c0,12.76,12.05,23.09,26.91,23.09c14.86,0,26.91-10.34,26.91-23.09
	C-185.31,942.22-197.36,931.88-212.22,931.88z"/>
<path class="st3" d="M-45.04,914.36c0-13.1-12.37-23.72-27.64-23.72c-13.8,0-25.23,8.68-27.3,20.02
	c-10.42,3.4-17.82,12.04-17.82,22.17c0,13.1,12.37,23.72,27.64,23.72c13.8,0,25.23-8.68,27.3-20.02
	C-52.45,933.14-45.04,924.49-45.04,914.36z"/>
<path class="st39" d="M-289.14,1093.39v23.37c0,4.23-3.44,7.67-7.67,7.67c-4.23,0-7.66-3.44-7.66-7.67v-23.37
	c0-4.23,3.43-7.66,7.66-7.66c2.12,0,4.03,0.86,5.42,2.24C-290,1089.36-289.14,1091.28-289.14,1093.39z"/>
<path class="st39" d="M-134.42,1093.39v23.37c0,4.23-3.43,7.67-7.66,7.67c-4.23,0-7.67-3.44-7.67-7.67v-23.37
	c0-4.23,3.44-7.66,7.67-7.66c2.12,0,4.03,0.86,5.42,2.24C-135.27,1089.36-134.42,1091.28-134.42,1093.39z"/>
<path class="st40" d="M-291.39,1087.97c1.39,1.39,2.25,3.31,2.25,5.42v20.4c-5.28-0.98-10.4-2.4-15.33-4.23v-16.18
	c0-4.23,3.43-7.66,7.66-7.66C-294.69,1085.73-292.78,1086.59-291.39,1087.97z"/>
<path class="st40" d="M-134.42,1093.39v16.18c-4.93,1.82-10.05,3.24-15.33,4.23v-20.4c0-4.23,3.44-7.66,7.67-7.66
	c2.12,0,4.03,0.86,5.42,2.24C-135.27,1089.36-134.42,1091.28-134.42,1093.39z"/>
<path class="st41" d="M-61.7,940.29c-1.99,0-3.82,6.6-5.29,14.61c-2.06,11.29-3.43,25.4-3.56,27.74c-1.1,19.46,5,39.13,1.27,58.49
	c-10.07,52.44-80.63,67.72-124.66,70.8c-35.36,2.47-71.21-1.18-98.15-7.2c-34.87-7.8-75.58-30.66-81.22-69.12
	c-2.55-17.47,6.12-32.42,6.85-49.55c0.09-2.22-0.55-9.4-1.84-16.98c-0.75-4.4-1.72-8.93-2.91-12.69c-1.62-5.17-3.64-8.9-6.02-8.9
	h47.54c29.12,7.87,69,15.7,111.66,15.69c26.71,0,54.49-3.06,81.47-10.98c10.08-2.96,20.06-6.59,29.83-11
	c8.06-0.55,16.1-0.96,24.15-1.11c6.7-0.13,13.4-0.1,20.09,0.18C-62.23,940.26-61.97,940.27-61.7,940.29z"/>
<path class="st40" d="M-61.7,940.29c-1.99,0-3.82,6.6-5.29,14.61c-20.37,13.21-41.91,22.59-63.7,28.98
	c-29.3,8.59-59.05,11.82-87.34,11.82c-45.27-0.01-86.85-8.24-117.24-16.44c-13.41-3.62-24.64-7.26-33.03-10.18
	c-0.75-4.4-1.72-8.93-2.91-12.69c-1.62-5.17-3.64-8.9-6.02-8.9h10.54c0.71,0.26,1.46,0.54,2.24,0.82
	c8.18,2.93,20.05,6.87,34.62,10.81c0.04,0.01,0.09,0.03,0.13,0.04c29.12,7.87,69,15.7,111.66,15.69c26.71,0,54.49-3.06,81.47-10.98
	c10.08-2.96,20.06-6.59,29.83-11c8.2-3.7,16.27-7.94,24.15-12.77c6.7-0.13,13.4-0.1,20.09,0.18
	C-62.23,940.26-61.97,940.27-61.7,940.29z"/>
<path class="st41" d="M-46.4,928.22c-5.27,4.31-10.63,8.32-16.09,12.04c-21.68,14.78-44.8,25.09-68.19,31.96
	c-29.3,8.59-59.05,11.82-87.34,11.82c-45.27-0.01-86.85-8.24-117.24-16.44c-15.03-4.06-27.32-8.13-35.94-11.21
	c-8.81-3.15-13.8-5.28-13.97-5.36c-5.29-2.28-7.75-8.41-5.48-13.71c2.27-5.29,8.4-7.75,13.7-5.48h0.01l0.02,0.01l0.13,0.06
	c0.12,0.04,0.31,0.13,0.57,0.24c0.53,0.22,1.33,0.54,2.4,0.96c2.13,0.84,5.29,2.05,9.38,3.53c8.18,2.93,20.05,6.87,34.62,10.81
	c0.04,0.01,0.09,0.03,0.13,0.04c29.12,7.87,69,15.7,111.66,15.69c26.71,0,54.49-3.06,81.47-10.98c10.08-2.96,20.06-6.59,29.83-11
	c16.38-7.38,32.22-16.93,47.11-29.12c4.46-3.65,11.03-3,14.69,1.47C-41.29,918-41.95,924.58-46.4,928.22z"/>
<ellipse class="st3" cx="-254.1" cy="954.27" rx="25.33" ry="21.74"/>
<ellipse class="st3" cx="-287.33" cy="954.27" rx="12.41" ry="11.67"/>
<path class="st3" d="M-244.96,955.82c-3.9,7.6,0.12,17.44,8.98,21.98c8.86,4.54,19.19,2.06,23.09-5.54
	c3.9-7.6-0.12-17.44-8.98-21.98C-230.73,945.74-241.06,948.22-244.96,955.82z"/>
<path class="st3" d="M-215.74,970.8c-2.09,4.08-0.27,9.19,4.07,11.42c4.34,2.22,9.55,0.72,11.65-3.36
	c2.09-4.08,0.27-9.19-4.07-11.42C-208.44,965.22-213.65,966.72-215.74,970.8z"/>
<path class="st37" d="M-159.34,957.28c-0.01-0.01-0.02-0.02-0.02-0.03c-0.21-2.59-1.32-5.43-3.22-8.07
	c-1.02-1.42-2.27-2.79-3.72-4.03c-6.63-5.67-15.07-6.69-18.85-2.27c-3.78,4.42-1.47,12.6,5.17,18.27c0.42,0.36,0.85,0.7,1.29,1.03
	c4.16,3.08,8.83,4.43,12.56,3.86c0.37-0.05,0.72-0.13,1.07-0.22c1.1-0.29,2.1-0.77,2.94-1.45c0.26-0.21,0.51-0.43,0.74-0.68
	c0.09-0.09,0.17-0.18,0.25-0.28c0.58-0.67,1.01-1.44,1.31-2.26c0.14-0.39,0.25-0.79,0.33-1.2
	C-159.43,959.6-159.09,957.62-159.34,957.28z"/>
<path class="st42" d="M-154,208.2c0.42,0.36,0.85,0.7,1.29,1.03c4.16,3.08,8.83,4.43,12.56,3.86c0.37-0.05,0.72-0.13,1.07-0.22
	c1.1-0.29,2.1-0.77,2.94-1.45c0.26-0.21,0.51-0.43,0.74-0.68c0.09-0.09,0.17-0.18,0.25-0.28c0.58-0.67,1.01-1.44,1.31-2.26
	c0.14-0.39,0.25-0.79,0.33-1.2c0.63-3.22-0.5-7.17-3.09-10.77c-1.02-1.42-2.27-2.79-3.72-4.03c-6.63-5.67-15.07-6.69-18.85-2.27
	C-162.94,194.35-160.63,202.53-154,208.2z"/>
<path class="st3" d="M-179.15,961.18c4.16,3.08,8.83,4.43,12.56,3.86c0.37-0.05,0.72-0.13,1.07-0.22c1.1-0.29,2.1-0.77,2.94-1.45
	c0.26-0.21,0.51-0.43,0.74-0.68c0.09-0.09,0.17-0.18,0.25-0.28c0.58-0.67,1.01-1.44,1.31-2.26c0.14-0.39,0.25-0.79,0.33-1.2
	c0.63-3.22-0.5-7.17-3.09-10.77c-3.49,0.03-7.09,1.22-10.14,3.63C-176.33,954.31-178.36,957.67-179.15,961.18z"/>
<path class="st33" d="M-163.29,962.38c0.23,0.31,0.46,0.62,0.71,1c0.26-0.21,0.51-0.43,0.74-0.68c-0.23-0.34-0.44-0.63-0.66-0.91
	c-0.29-0.39-0.59-0.77-0.95-1.26c-0.08-0.12-0.18-0.24-0.28-0.37c-0.54-0.69-1.31-1.54-1.81-2.08c-0.19-0.2-0.5-0.22-0.7-0.03
	c-0.2,0.18-0.22,0.5-0.03,0.7c0.49,0.54,1.25,1.39,1.76,2.03c0.1,0.12,0.18,0.23,0.26,0.34C-163.87,961.61-163.57,962-163.29,962.38
	z"/>
<path class="st33" d="M-160.46,959.91c0.06,0.08,0.12,0.16,0.19,0.25c0.14-0.39,0.25-0.79,0.33-1.2c-0.21-0.27-0.42-0.55-0.67-0.9
	c-0.08-0.12-0.18-0.24-0.28-0.37c-0.54-0.69-1.31-1.54-1.81-2.08c-0.18-0.2-0.49-0.22-0.7-0.03c-0.2,0.19-0.22,0.5-0.03,0.7
	c0.49,0.54,1.25,1.39,1.76,2.03c0.09,0.12,0.18,0.23,0.25,0.33C-161.04,959.14-160.74,959.53-160.46,959.91z"/>
<path class="st33" d="M-166.61,965.01c0.01,0.01,0.02,0.03,0.03,0.04c0.37-0.05,0.72-0.13,1.07-0.22c-0.1-0.14-0.2-0.28-0.3-0.41
	c-0.29-0.39-0.59-0.77-0.94-1.26c-0.08-0.12-0.18-0.24-0.28-0.37c-0.54-0.69-1.31-1.54-1.81-2.08c-0.19-0.2-0.5-0.22-0.7-0.03
	c-0.2,0.18-0.22,0.5-0.03,0.7c0.49,0.54,1.25,1.39,1.76,2.03c0.09,0.12,0.18,0.23,0.25,0.33
	C-167.2,964.24-166.9,964.63-166.61,965.01z"/>
<path class="st37" d="M-144.19,954.99c0-0.01,0.01-0.02,0.01-0.03c-0.32-2.31,0.11-5.01,1.27-7.69c0.62-1.44,1.45-2.87,2.49-4.25
	c4.72-6.24,11.92-8.75,16.07-5.61c4.16,3.14,3.7,10.75-1.02,16.99c-0.3,0.4-0.61,0.78-0.93,1.15c-3.05,3.5-6.88,5.57-10.26,5.79
	c-0.33,0.02-0.66,0.03-0.98,0.01c-1.02-0.05-1.98-0.27-2.86-0.7c-0.27-0.13-0.53-0.28-0.78-0.45c-0.09-0.06-0.18-0.13-0.27-0.2
	c-0.63-0.48-1.16-1.06-1.58-1.73c-0.2-0.31-0.37-0.64-0.52-0.99C-143.66,957.01-144.34,955.34-144.19,954.99z"/>
<path class="st35" d="M-124.56,952.24c-0.32,0.45-0.66,0.88-1,1.29c-3.27,3.94-7.27,6.38-10.73,6.76c-0.34,0.04-0.67,0.06-1,0.05
	c-1.04-0.01-2.01-0.21-2.89-0.64c-0.27-0.13-0.53-0.28-0.77-0.46c-0.09-0.06-0.18-0.13-0.27-0.2c-0.63-0.49-1.14-1.11-1.54-1.82
	c-0.19-0.33-0.35-0.68-0.49-1.06c-1.08-2.89-0.68-6.9,1.09-10.95c0.7-1.6,1.61-3.2,2.73-4.74c5.09-7.01,12.55-10.06,16.66-6.81
	C-118.67,936.92-119.47,945.24-124.56,952.24z"/>
<path class="st3" d="M-125.57,953.53c-3.27,3.94-7.27,6.38-10.73,6.76c-0.34,0.04-0.67,0.06-1,0.05c-1.04-0.01-2.01-0.21-2.89-0.64
	c-0.27-0.13-0.53-0.28-0.77-0.46c-0.09-0.06-0.18-0.13-0.27-0.2c-0.63-0.49-1.14-1.11-1.54-1.82c-0.19-0.33-0.35-0.68-0.49-1.06
	c-1.08-2.89-0.68-6.9,1.09-10.95c3.16-0.84,6.59-0.6,9.73,0.93C-129.19,947.73-126.83,950.41-125.57,953.53z"/>
<path class="st33" d="M-139.7,958.59c-0.16,0.35-0.32,0.7-0.48,1.12c-0.27-0.13-0.53-0.28-0.77-0.46c0.16-0.38,0.3-0.71,0.45-1.03
	c0.2-0.44,0.41-0.87,0.65-1.43c0.06-0.13,0.12-0.27,0.19-0.42c0.38-0.78,0.94-1.78,1.3-2.42c0.14-0.24,0.41-0.33,0.63-0.2
	c0.21,0.12,0.27,0.42,0.14,0.65c-0.36,0.63-0.91,1.62-1.27,2.36c-0.07,0.14-0.13,0.27-0.18,0.38
	C-139.29,957.72-139.5,958.16-139.7,958.59z"/>
<path class="st33" d="M-142.64,956.96c-0.04,0.09-0.08,0.18-0.13,0.28c-0.19-0.33-0.35-0.68-0.49-1.06
	c0.14-0.31,0.29-0.63,0.46-1.02c0.06-0.13,0.12-0.27,0.19-0.42c0.38-0.78,0.94-1.78,1.3-2.42c0.13-0.24,0.41-0.33,0.63-0.21
	c0.21,0.13,0.27,0.42,0.14,0.65c-0.36,0.63-0.91,1.62-1.27,2.36c-0.07,0.14-0.13,0.26-0.18,0.38
	C-142.23,956.09-142.44,956.53-142.64,956.96z"/>
<path class="st33" d="M-136.28,960.25c-0.01,0.01-0.01,0.03-0.02,0.04c-0.34,0.04-0.67,0.06-1,0.05c0.07-0.16,0.14-0.31,0.21-0.46
	c0.2-0.44,0.41-0.87,0.65-1.43c0.06-0.13,0.12-0.27,0.19-0.42c0.38-0.78,0.94-1.78,1.3-2.42c0.14-0.24,0.41-0.33,0.63-0.21
	c0.21,0.13,0.27,0.42,0.14,0.65c-0.36,0.63-0.91,1.62-1.27,2.36c-0.07,0.14-0.13,0.27-0.18,0.38
	C-135.87,959.39-136.08,959.83-136.28,960.25z"/>
</svg>
